<?xml version="1.0" encoding="utf-8"?>
<!-- Generator: Adobe Illustrator 16.0.0, SVG Export Plug-In . SVG Version: 6.00 Build 0)  -->
<!DOCTYPE svg PUBLIC "-//W3C//DTD SVG 1.1//EN" "http://www.w3.org/Graphics/SVG/1.1/DTD/svg11.dtd">
<svg version="1.1" id="Layer_1" xmlns="http://www.w3.org/2000/svg" xmlns:xlink="http://www.w3.org/1999/xlink" x="0px" y="0px"
	 width="500px" height="40px" viewBox="0 0 500 40" enable-background="new 0 0 500 40" xml:space="preserve">
<path fill="#303440" d="M14.179,20.472c-0.694-0.78-0.714-1.027-0.423-1.967c0.389,0.14,0.632,0.68,0.832,0.24
	c0.451,0.061,0.283,0.491,0.833,0.491c-0.271,0.739-0.887-0.233-1.662,0.01c0.354,0.36,1.048,0.52,2.078,0.48
	C15.967,20.375,15.267,20.539,14.179,20.472 M393.445,36.805c0.204-0.775-0.982-1.005,0.407-1.231
	c0.934,0.261,0.776,1.181,2.497,0.971c-0.351-0.943-0.297-0.437,0.413-0.741c0.277-0.116,0.037-0.362,0.413-0.492
	c0.637-0.216,0.86,0.084,1.243-0.004c0.187-0.047,0.521-0.403,0.827-0.5c1.768-0.53,2.114,0.396,2.91-0.504
	c0.591,0.057,0.701,0.401,1.244,0.487c0.094-0.19,0.013-0.482,0.413-0.493c0.687,0.713,1.254,0.189,2.081,0.237
	c1.525,0.082,4.216,0.119,4.987-0.024c-0.255-0.01-0.495-0.032-0.421-0.244c0.573,0.008,0.913-0.116,1.242-0.249
	c-0.996,0.906,1.682,0.237,1.664,0.237c-0.399-0.014-0.246-0.308,0-0.243c0.147,0.036,0.221,0.462,0.42,0.489
	c0.667,0.088,2.414,0.026,3.733-0.017c1.678-0.057,3.362-0.164,4.151-0.267c-0.217,0.029-0.478-0.217,0-0.246
	c0.824,0.693,3.203,0.182,3.737,0.232c0.566,0.054,1.229,1.221,1.664,0.24c-0.504-0.03-0.984-0.07-0.831-0.492
	c3.094-0.568,3.421-1.257,7.054-1.508c0.017-0.267,0.101-0.391,0.41-0.493c3.911-1.304,8.225,0.221,11.212-1.037
	c0.405,0.13,1.859,0.261,2.075,0.241c0.107-0.014,0.07-0.451,0.414-0.498c0.953-0.13,2.218,0.434,2.903-0.26
	c-0.677,0.187-1.807-0.48-0.833-0.487c1.121,0.657,1.583-0.319,2.494-0.507c0.363,0.364,0.626,0.781,1.662,0.734
	c0.701-1.261,2.168-0.337,3.738-0.26c0.066-0.294-0.073-0.701,0.414-0.744c0.325,1.057,2.253,0.17,3.32,0.234
	c0.103,0.003,0.049,0.46,0.419,0.489c0.04,0,0.473-0.563,0.83-0.497c0.084,0.018,0.297,0.446,0.416,0.49
	c0.13,0.047,1.327,0.25,1.248,0.24c2.353,0.323,5.997,0.223,7.473-0.277c-0.176,0.061-0.516-0.246,0-0.249
	c0.247,0.526,1.86,1.503,2.91,0.727c-1.203-0.364-1.889,0.369-2.083-0.73c0.965,0.076,1.602-0.043,2.077-0.249
	c0.07,0.286-0.063,0.696,0.42,0.736c0.403-0.34,1.397-0.33,1.657-0.751c-0.194,0.728,1.121,0.367,1.246,0.244
	c-0.322-0.054-0.483-0.204-0.419-0.49c1.37-0.061,0.84-0.55,2.493-0.26c0.06-0.217,0.06-0.384,0.329-0.464
	c-0.003-0.007,0.014-0.017,0.085-0.033c-0.034,0.007-0.054,0.023-0.085,0.033c0.031,0.033,1.038-0.023,0.911-0.036
	c1.337,0.13,4.583,0.296,5.82-0.024c-0.323-0.053-0.82-0.003-0.833-0.239c0.272-0.004,0.553-0.004,0.833-0.004
	c-0.354-0.793-0.36-0.51,0.407-0.989c-0.32-0.054-0.82-0.004-0.834-0.243c0.53,0.069,0.406-0.534,0.834-0.497
	c-0.027-0.003,0.139,0.43,0.413,0.243c0.28-0.184-0.24-0.77-0.003-0.983c0.504-0.45,2.036,0.359,1.659-0.5
	c-1.483,0.18-0.629-0.847-0.836-1.227c-0.206-0.371-0.941-0.75-1.254-1.23c-0.591-0.896-0.4-1.271-1.253-1.47
	c1.813,0.01-0.504-0.967-0.007-1.724c0.677,0.066,1.119-0.337,0.414-0.497c-1.081,0.6,0.266-0.583,0.416-0.493
	c-0.48-0.283-1.956,0.704-1.664-0.24c1.4,0,0.841-1.146,1.653-1.483c-0.426-0.24-0.844-0.487-1.246-0.737
	c1.2-0.713-0.814-0.767-0.427-1.72c0.327-0.057,0.823-0.013,0.829-0.253c-1.552,0.253-1.249-0.843-1.662-1.223
	c0.216,0.2-0.841,0.173-0.834-0.243c0.007-0.527,0.616-0.221-0.414-0.491c-1.039-0.273-0.405-1.937-0.427-1.97
	c-0.199-0.31-1.386-0.31-1.249-0.733c0.656-0.52,0.855-1.3,0.815-2.224c-0.726-0.22-1.438-0.45-1.246-1.223
	c-0.416-0.357-1.381,0.143-1.664,0.007c-0.396-0.194-0.057-0.784-0.419-0.983c-0.761-0.423-0.714,0.146-1.243-0.241
	c-0.073-0.177-0.047-0.293,0.026-0.383c-0.906,0.543-1.9,0.964-2.961,1.274c-0.094,0.073-0.24,0.116-0.447,0.123
	c-2.089,0.541-4.473,0.65-7.133,0.413c-0.094,0.197-0.216,0.377-0.694,0.347c-0.689,0.003-1.384,0.007-2.077,0.01
	c-0.089-0.193-0.012-0.49-0.416-0.493c-0.043,0.63-0.756,0.864-1.24,1.236c-0.523-0.323-1.254-0.476-0.419-0.983
	c-1.478-0.377-0.247,0.84-1.248,0.743c-0.733,0.467-1.053-0.193-2.489,0.013c-0.061,0.29,0.077,0.697-0.41,0.744
	c-0.574-0.011-0.91,0.116-1.247,0.246c-0.22-0.35,1.621-0.607,0.413-0.74c-0.68,0.603-3.624,1.31-4.147,0.513
	c-0.139,0.573-0.427,1.063-1.239,1.237c-0.714-0.314-2.701,0.139-3.74-0.23c0.27,1.37-3.547,0.043-2.074,0.993
	c-1.033-0.63-1.48,0.173-2.076,0.5c-0.063-0.29,0.069-0.7-0.417-0.736c0.027,0.46-0.317,0.526-0.827,0.253
	c-0.068,0.37,0.153,0.906-0.413,0.986c-0.356-0.32-2.767-0.293-3.737,0.264c-0.159,0.423,0.617,0.627,0.004,0.736
	c-0.12-0.57-1.113-0.56-1.66-0.24c0.113-0.56-0.106-0.924-0.834-0.98c-0.493,0.693-1.775,0.924-2.489,1.49
	c-0.543,0-0.384-0.43-0.831-0.49c-0.413,1.02-1.246,0.363-2.489,0.997c-0.024-0.74-1.53-0.217-2.49-0.237
	c-1.121-0.02-1.604-0.406-2.081,0.253c-1.053-0.103-1.681-0.47-2.077-0.974c-0.173,0.474-0.146,1.06-1.243,0.994
	c0.1-0.357,0.684-0.42,0.827-0.746c-1.26-0.007-1.61,0.526-2.487,0.753c-0.533-0.42-0.859-0.967-2.079-0.977
	c-0.164,0.423,0.62,0.627,0.003,0.736c-0.664,0.29-0.784-0.476-0.834-0.487c-0.644-0.109-1.537,0.347-2.076,0.25
	c-0.28-0.047-0.211-0.654-0.421-0.733c-0.359-0.137-1.232,0.077-1.656,0.007c-0.911-0.147-1.804-0.833-2.077-0.237
	c0.23,0,0.467,0.197,0,0.247c-0.547-0.5-1.776-0.584-2.497-0.977c0.303,1.066-1.729,0.223-2.077,0.256
	c0.014,0-0.21,0.447-0.413,0.497c-0.503,0.11-0.96-0.194-1.246-0.244c-0.067,0.37,0.152,0.907-0.407,0.987
	c-0.633-0.377-1.614,0.22-2.497,0.014c-0.216-0.054,0.003-0.774-0.83-0.491c-0.917,0.36,0.527,0.6-0.413,0.74
	c-0.246-0.01-0.767-0.689-1.247-0.73c0.233,0.017-0.213,0.344-0.353,0.447c0.013,0.01,0.003,0.023-0.062,0.043
	c0,0,0.034-0.023,0.062-0.043c-0.073-0.05-1.106,0.06-1.308,0.05c-0.716-0.033-0.987-0.293-1.66-0.24
	c-0.063,0.003-0.56,0.45-0.833,0.497c-0.363,0.067-1.254-0.3-1.659-0.24c-0.195,0.03-0.379,0.573-0.827,0.497
	c0.072-0.944-0.341-0.087-1.251-0.241c-0.483-0.746-1.754-1.02-1.664-1.469c-0.39,0.923-1.266,0.146-2.077,0.256
	c-0.146,0.02-0.489,0.433-0.829,0.494c-0.634,0.116-1.427-0.081-2.073,0.01c-0.097,0.19-0.014,0.483-0.413,0.497
	c-0.787-0.027-0.294-0.817-1.251-0.737c-0.71,0.24-0.832,0.824-1.659,0.99c0.094-0.463-0.47-0.536-0.421-0.98
	c-1.209,0.164-2.77,0.811-4.15,0.264c-0.394-0.156,0.307-0.704-0.419-0.736c0.306,0.013-0.367,0.726-0.413,0.74
	c-0.948,0.286-1.82-0.438-2.488-0.48c0.407,0.716-2.247,0.517-2.08,0.5c-1.594,0.15-1.913,0.91-2.494,0.013
	c-1.249,0.243-1.684,0.977-2.898,1.244c0.006-0.88-0.625-0.127-1.664-0.24c-1.067-0.116-1.515,0.236-2.491,0.257
	c-0.586,0.016-0.756-0.357-1.659-0.237c-0.537,0.066-1.047,0.697-1.664,0.497c-0.407-0.247-0.82-0.493-1.246-0.733
	c-1.191,0.753-3.258-0.467-3.325,0.753c-0.206-0.776-1.346-1-2.493-1.216c-0.092,0.19-0.007,0.483-0.414,0.49
	c-1.226-0.543-1.571-0.477-3.326-0.227c-1.014-1.95-2.579,1.127-4.566,0.017c-0.093,0.193-0.008,0.486-0.413,0.493
	c-0.931-0.207-1.715,0.004-2.494-0.726c-0.863,0.583-2.261,0.54-2.906,0.013c-0.094,0.194-0.014,0.487-0.414,0.494
	c0-0.247-0.007-0.494-0.007-0.737c-0.967,0.083-1.714,0.304-2.486,0.503c-0.043-0.673,0.69-0.5-0.008-0.986
	c-1.346-0.3-0.313,0.8-1.659,0.5c-0.063-0.29,0.073-0.7-0.413-0.74c-0.606,0.081-3.627,0.541-2.914-0.479
	c-0.727,0.023-1.293-0.047-1.66-0.237c-0.173,1.187-0.153-0.294-1.246,0.003c-0.142,0.657-1.087,0.837-2.074,0.994
	c-0.12-1.44-0.253-0.086-0.833,0.007c-0.814,0.133-0.814-0.383-1.24-0.487c0.066,0.016-0.427,0.316-0.834,0.25
	c-0.847-0.143-0.686-0.766-1.667-0.729c-0.043,0.3-0.119,0.583-0.83,0.493c-0.029-0.83-0.946-0.037-1.659-0.73
	c-0.067,0.29,0.073,0.697-0.413,0.74c-0.377-0.14-1.534-1.009-1.664-0.487c0.637,0.057,0.063,0.407-0.413,0.494
	c0.683-0.77-1.551-1.183-0.42-0.737c0.456,1.164-1.424,0.713-1.658,0.257c-0.566,0.563,1.07,0.916,0,0.983
	c-0.753-0.314-2.01,0.18-2.493-0.727c-0.566,0.563,1.074,0.92,0.003,0.986c-0.329-0.543-1.456-0.613-2.079-0.979
	c-0.101,0.436-0.713,0.566-1.661,0.5c-1.072-0.126-1.613-0.757-2.913-0.726c-1.734,0.046-5.527,0.517-5.813-0.464
	c-0.507,1.204-2.233,0.394-3.323,0.26c-0.507-0.063-1.661,0.173-2.074,0.007c-0.417-0.16,0.254-0.627-0.423-0.737
	c0.052,0.01-0.094,0.521-0.407,0.497c-1.45-0.124-1.084-0.323-1.667-0.487c-1.837-0.514-2.764,0.344-3.326-0.48
	c-1.724,1.11-2.542-0.31-4.563,0.514c0.156-0.067,0.529,0.25,0,0.25c-0.558-0.94-3.702,0.4-4.571-0.72
	c1.187-0.14-1.807-0.423-0.413,0.244c-0.793-0.101-1.047-0.523-2.081-0.481c-0.413,1.021-1.242,0.361-2.487,0.998
	c-0.352-0.287-0.553-0.661-0.422-1.234c-1.356-0.057-0.875,0.96-2.07,0.997c-0.041-0.387-1.061-0.186-0.834-0.736
	c-1.348-0.297-0.313,0.8-1.659,0.503c-0.283-0.274-1.888-0.974-2.081-0.487c0.669,0.077-0.027,0.353-0.826,0.25
	c0.946-0.813-0.34-0.173-0.421-0.246c-0.153-0.14,0.101-1.18-0.833-0.98c-0.027,1.014-2.244,0.747-3.32,0.507
	c-0.043,0.303-0.121,0.583-0.826,0.497c0.759-1.081-2.237-0.134-2.91-0.97c-0.345,0.79-0.351,0.51,0.416,0.98
	c-2.506-0.31-5.107-0.561-7.066-1.2c-0.081,0.28-0.458,0.386-0.827,0.5c-1.644-0.583-3.264-1.176-4.577-1.953
	c-1.662-0.224-2.692,0.066-3.322,0.016c-0.71-0.063-0.847-0.704-1.249-0.736c0.092,0.01-0.184,0.48-0.412,0.494
	c-1.08,0.077-1.223-0.26-2.492-0.48c-0.333-0.06-2.198,0.39-1.664-0.487c-1.153-0.113-1.402,0.347-2.079,0.257
	c-0.947-0.13-0.58-0.64-1.249-0.733c0.233,0.03-0.328,0.479-0.412,0.493c-0.527,0.086-0.752-0.51-1.248-0.487
	c0.288,0.664-0.856,0.477-1.245,0.744c-0.062-0.29,0.072-0.701-0.417-0.737c-0.046,0.12-0.069,0.577-0.414,0.497
	c-0.984-0.234-1.731-1.184-3.326-0.48c-0.736-0.757-1.757-0.403-2.495-0.73c-0.044-0.276,0.606-0.386,0-0.49
	c-0.117,1.233-4.168,0.48-2.904,1.243c-1.368-0.083-1.823-0.72-2.495-1.22c0.003,0.577,0.003,1.15,0.006,1.724
	c-1.324-0.204-1.28,0.396-2.073,0.504c-0.095-0.191-0.012-0.487-0.417-0.494c-0.208,0.043-3.662,0.28-3.737,0.263
	c-0.078-0.013,0.769-0.727-0.419-0.493c-0.779,0.067,0.237,0.407-0.413,0.497c-0.482-0.208-1.115-0.317-2.076-0.237
	c0.194,0.98-2.922,0.483-2.909,0.01c-1.935,0.904-5.439-0.677-6.647-0.213c0.553,0.247,1.549,0.223,1.666,0.729
	c-1.552-0.65-0.026,0.474-0.83,0.497c-0.485-0.04-0.45-0.386-0.419-0.736c-0.771,0.04-1.382,0.167-1.66,0.5
	c0.493,0.037,1.182-0.05,1.251,0.24c-3.028,0.237-2.373-0.21-5.401,0.027c0.208-0.937-0.924-0.247-1.246-0.243
	c-1.747,0.02-2.59-0.527-3.322,0.263c0.021-0.427-0.32-0.634-0.836-0.737c0.092,0.79-1.479,0.607-2.068,0.997
	c0.095-0.356,0.678-0.419,0.825-0.746c-3.311,0.376-4.438-0.677-6.642,0.276c0.19-0.72-0.549-0.18-0.834-0.244
	c-0.13-0.03-0.259-0.436-0.417-0.493c-0.306-0.097-0.908,0.066-1.245,0.006c-0.159-0.026-0.615-0.449-0.834-0.486
	c-1.532-0.274-3.594-0.134-4.982-0.228c-0.476-1.173-2.828,0.244-3.743-0.473c-0.65,0.967,1.08,0.5,1.251,0.977
	c-1.56,0.117-1.892-0.51-2.496-0.974c-2.657-0.086-4.768,0.147-5.811,1.01c-0.044-1.377-0.361-0.184-0.83,0.003
	c-1.013,0.407-2.134-0.219-2.076,0.257c-0.234-0.356-0.65-0.597-1.248-0.733c-1.268,0.32-3.718,0.616-5.395,1.01
	c-0.178-0.553-2.205,0.004-2.495-0.487c0.291,0.667-0.856,0.484-1.243,0.75c-1.799-0.51-2.027,0.334-3.32,0.257
	c-0.244-0.014-0.194-0.314-0.83-0.24c-0.543,0.06-0.743,0.497-1.248,0.497c-0.343,0-0.581-0.276-0.832-0.24
	c-0.032,0.004-0.185,0.44-0.413,0.494c0.127-0.03-0.482-0.283-0.83-0.244c-0.891,0.097-2.072,0.597-2.492,0.504
	c-0.306-0.074,0.147-0.47-0.416-0.494c-0.591-0.02-2.256,0.143-2.906,0.263c0.211-0.04,0.488,0.227,0,0.247
	c-0.386-0.617-1.477,0.023-2.076,0.006c-0.736-0.02-3.287-0.5-4.153-0.473c-0.161,0.003-0.554,0.443-1.248,0.25
	c-1.368-0.376,1.295-0.692-0.416-0.736c0.08,0-0.658,0.467-0.828,0.497c-0.161,0.03-1.011-0.273-1.251-0.241
	c-0.098,0.014-0.556,0.427-0.825,0.497c-1.123,0.277-1.614,0.02-2.908,0.014c-0.093,0.19-0.01,0.483-0.413,0.49
	c-0.332-0.646-1.949,0.561-2.079-0.48c-1.377,0.4-1.396,0.327-2.905,0.26c-1.97-0.09-2.078,0.42-2.905,0.503
	c-0.45,0.043-1.126-0.313-1.663-0.24c-0.771,0.107-0.778,0.7-1.66,0.5c-0.241-0.514-1.029-0.696-0.835-1.473
	c-1.07,0.356-2.472,0.513-2.905,1.243c-0.863-0.006-0.492-0.517-1.247-0.733c0.156,0.043-0.505,0.287-0.831,0.25
	c-0.91-0.103-1.03-0.893-2.078-0.73c-0.307,0.76,1.43,0.297,0.833,1.227c-0.57-0.007-0.913,0.12-1.244,0.253
	c0.4-1.144-2.484-0.324-2.082-1.467c-1.69,0.388-2.32-0.376-3.325-0.483c-1.246-0.123-2.484,0.543-3.741-0.474
	c-1.247,0.717-3.251,0.227-4.155,0.263c-4.355,0.187-9.61,0.754-14.115,0.557c-0.055,0.25-0.058,0.414-0.413,0.493
	c-3.045,0.697-6.557,0.193-9.548,1.027c-0.762,0.017-1.41-1.256-2.078-0.483c0.231-0.003,0.473,0.2,0.003,0.247
	c-0.713-0.56-1.714,0.02-2.081,0.006c-0.138,0-0.313-0.24-0.828-0.24c-0.41-0.004-0.508,0.259-0.83,0.247
	c-0.222-0.003-0.209-0.334-0.833-0.24c-0.249,0.041-0.819,0.457-1.243,0.5c0.037-0.007-0.041-0.494-0.003-0.497
	c-0.99,0.074-1.625,0.364-2.492,0.507c-0.396,0.063-0.515-0.28-0.83-0.247c-0.167,0.02-0.399,0.586-0.829,0.5
	c-0.041-0.387,0.051-0.854-0.833-0.733c-0.688,0.006-0.232,0.68-0.831,0.74c-2.185-0.22-3.03,0.123-4.567-0.227
	c-0.092,0.19-0.01,0.49-0.413,0.497c-0.417-0.34-0.687,0.107-1.249-0.49c-0.573,0.743-2.151-0.5-2.905,0.26
	c0.187-0.497-0.433-0.324-0.833-0.49c-0.294-0.12-0.011-0.363-0.417-0.49c0.232,0.073-0.283,0.49-0.413,0.494
	c-0.317,0.02-1.13-0.974-1.249-0.977c0.222,0.006-0.256,0.71-0.414,0.74c-0.362,0.067-0.85-0.223-1.662-0.24
	c-2.576-0.06-5.429,1.217-5.814,0.27c-0.824,1.077-2.492-0.046-4.155-0.223c0.035,0-0.419,0.263-0.828,0.246
	c-0.182-0.01-0.936-0.233-1.664-0.236c-0.535-0.007-0.563,0.27-1.245,0.247c-1.447-0.036-4.371-0.46-4.564,0.764
	c1.675,0.467-0.106,1.03-0.407,1.724c1.038,0.32,1.297-0.98,1.658-0.253c0.079,0.697-1.56,0.58-0.408,1.236
	c-0.902-0.39-1.284,0.813-1.66,0.991c0.218-0.101-0.365-0.347-0.413-0.244c-0.153,0.317,0.298,0.557,0.416,0.737
	c-1.27-0.174-1.218,0.429-2.491,0.256c0.781-0.494,0.387-1.053,0.827-1.237c0.102,0.266,0.687,0.59,0.833,0.243
	c-1.074-0.017-0.445-1.05-2.081-0.727c0.003,0.736,0.007,1.474,0.007,2.213c1.035,0.321,1.722-0.729,2.077-0.006
	c-1.335-0.147-0.563,0.89-1.66,0.253c-0.792,1.247,1.287,1.013,1.254,1.227c-0.035,0.207-1.527,0.267-0.828,0.743
	c-0.189-0.403,2.26-0.413,2.076-0.01c-1.559-0.177-0.9,0.947-2.072,0.994c-0.597-0.137-1.017-0.38-1.248-0.734
	c0.825,0,0.531,0.674,1.662,0.484c0.368-0.793-1.356-0.337-1.666-0.73c-0.566,1.06-1.13,2.124-1.645,3.21
	c0.928-0.429,1.128,1.587,0.835,1.231c0.147,0.176,0.69-0.051,0.831,0.239c0.361,0.75,0.495,2.26,0.426,2.464
	c0.045-0.134-0.372-0.283-0.417,0c1.215,0.022-0.255,1.149,0.006,0.986c-1,0.63,0.592-0.431,0.417,0.246
	c-0.117,0.447-1.102,1.483-2.065,2.471c0.87-0.217-0.597,1.257,0.417,0.493c0.16-0.353,0.495-0.416-0.003-0.74
	c2.525-0.256,0.85-0.359,0.83-0.743c0.003,0.06,1.333-1.017,1.238-0.993c0.625,0.043,1.534-0.09,1.662,0.243
	c-1.026,0.43-0.675,0.64,0.417,0.243c-0.542,0.696,0.59,1.03,0.423,1.477c-0.065,0.167-1.098,0.13-1.245,0.25
	c-0.321,0.264,0.34,0.994-0.41,0.991c-0.068-0.29,0.069-0.7-0.419-0.737c0.13,0.767-1.202-0.623-1.247,0.253
	c2.188,0.087,0.205,0.728,0.42,0.98c0.393,0.464,2.312-0.22,1.25,0.733c-0.466,0.03-0.648-0.354-0.831,0.007
	c0.577,0.393,1.977,0.297,1.667,1.224c-0.599,0.133-1.019-0.954-1.247-0.24c0.264,0.417,1.257,0.396,1.667,0.729
	c-1.426-0.136,0.04,1.164-1.66,0.5c0.186,1.058,3.325,2.088,4.159,1.218c0.57,0.644,1.402,1.133,2.495,1.464
	c-0.816-1.518,0.593,0.346,1.246-0.744c0.045,0.631,1.547,0.391,2.08,0.73c0.528-0.425,0.854-0.974,2.071-0.994
	c-0.598,0.383-0.871,0.963-1.243,1.48c1.807-0.189,2.168-2.287,4.148-1.494c-0.093-0.38,0.464-0.663,1.246-0.499
	c0.023,0.006-0.518,0.714,0.417,0.739c-0.129-0.003,0.723-0.47,0.83-0.5c-0.137,0.036,0.147,0.28,0.415,0.248
	c0.188-0.024,0.423-0.447,0.831-0.498c-0.12,0.014,0.525,0.237,0.83,0.243c0.56,0.011,1.71-0.279,2.075-0.257
	c0.58,0.037,1.394,0.685,2.079,0.24c-0.252,0.717,0.628,0.178,0.833,0.243c0.525,0.164,1.212,1.054,1.246,0.237
	c-0.419,0-0.525-0.427-0.004-0.489c0.41,0.329,1.11,0.486,1.667,0.733c3.284-0.598,3.505,0.109,7.059-0.034
	c1.222-0.297,2.229-1.647,3.736-0.999c0.228-0.818,0.352-1.078,1.658-0.751c0.392-0.46-1.25-0.817-0.003-0.987
	c0.916,0.96,4.795,0.487,4.98-0.51c0.519,0.98,2.003-0.333,2.906,0.233c-0.025-0.424,0.316-0.634,0.828-0.743
	c0.045,0.276-0.603,0.387,0.003,0.493c0.374-0.437,0.922-0.77,1.657-0.993c0.265,0.536-1.175,0.786,0.417,0.737
	c0.072-0.371-0.152-0.907,0.412-0.988c0.599,0.771,1.472-0.17,2.073-0.256c0.529-0.073,0.754,0.42,1.246-0.007
	c0.153,0.327,2.615,1.047,1.666,0.49c-0.324-0.058-0.484-0.207-0.416-0.493c1.307-0.123,1.623,0.344,2.492,0.482
	c-0.29-0.659,0.856-0.482,1.241-0.746c0.104,0.434,0.717,0.561,1.662,0.487c0.09-0.211,0.019-0.464,0.414-0.497
	c0.82-0.063,2.452,0.44,4.156-0.017c0.733,0.22,1.29,0.546,1.665,0.979c-0.03,0.344,0.1,0.94,0.417,0.49
	c0.775-1.293,2.748-0.08,3.738-0.017c-0.018-0.003,0.102-0.49,0.412-0.493c0.038,0-0.044,0.477,0.003,0.49
	c1.107,0.362,1.352-0.624,2.489-0.501c0.321,1.161,1.632,0.444,3.325,0.478c-0.058,1.033,0.218,0.59,0.833,0.243
	c0,0.246,0,0.489,0.003,0.737c1.427-0.447,2.529,0.069,3.322-0.014c-0.044,0.003,0.258-0.453,0.412-0.497
	c0.438-0.11,0.82,0.454,1.247-0.003c0,0.246,0.003,0.492,0.003,0.74c1.287,0.02,1.983-0.311,2.905-0.507
	c0.505,0.16-0.044,0.453,0.307,0.677c-0.065-0.104,1.104,0.036,0.941,0.057c0.765-0.101,1.149,0.233,2.081,0.24
	c2.32,0.01,5.669-1.175,7.059-0.28c0.242-0.514,0.794-0.844,1.655-0.99c0.918,0.347-0.521,0.6,0.42,0.736
	c0.716-0.316,1.082-0.84,2.485-0.75c0.846,0.783-1.639,0.776-0.411,0.987c1.097-0.177,0.875-1.127,2.072-1.24
	c0.4,0.453-1.242,0.826,0.003,0.983c0.202-0.29,0.441-0.561,0.827-0.74c1.342,0.166,2.13-0.384,3.325-0.263
	c-0.372-0.037-0.383,0.249-0.417,0.249c0.955-0.05,1.407-0.31,2.078,0.479c-0.59-1.09,0.515,0.047,0.831-0.003
	c0.13-0.02,0.089-0.426,0.413-0.489c1.539-0.311,4.211-0.371,5.813-0.768c2.001,0.34,2.751,0.777,4.983,0.475
	c0.213,0.923,2.139-0.167,2.497,0.97c0.099-0.434,0.713-0.563,1.659-0.497c0.061,0.457,0.277,0.823,0.836,0.979
	c0.239-1.103,3.02-0.753,3.733-0.756c0.176,0,0.875-0.407,1.664-0.251c0.519,0.101,1.46,0.837,1.666,0.978
	c-0.866-0.127-0.877,0.963-0.417,0.247c0.96,0.072,0.458-0.715,1.243-0.744c1.05,0.827,4.121-0.529,4.98-0.517
	c0.047,0.004-0.597,0.61,0.004,0.497c0.378-0.074,0.828-1.03,1.238-0.747c0.206,0.294,0.446,0.56,0.836,0.736
	c0.066-0.29-0.075-0.7,0.414-0.74c0.164,0.351,0.499,0.414,0.003,0.737c1.523-0.1,1.857-0.727,2.073-0.993
	c0.774,0.477,1.678,0.16,2.074-0.257c0.066,0.29-0.07,0.7,0.418,0.736c0.104-0.379,0.911-0.173,1.245-0.007
	c-0.311-0.942,2.267,0.314,2.489-0.746c-0.28,0.819,0.862,0.394,1.25,0.239c0.055,1.244,0.762,0.501,0.831,0.244
	c0.631,1.15,2.87-0.023,2.912,1.22c1.215-0.229,1.277-0.229,2.492-0.01c0.442-0.233,0.124-0.913,1.241-0.746
	c0.586,0.06,0.478,0.536,0.836,0.736c1.959-0.061,3.206,0.243,4.568,0.223c0.658-0.01,0.766-0.406,1.658-0.496
	c0.579-0.063,1.289,0.297,2.08,0.483c0.457-0.937,1.646,0.08,2.076-0.75c0.378,0.43,0.774,0.854,2.079,0.729
	c0.464-1.7,4.158,0.264,4.566-0.02c-0.417,0-0.522-0.431,0-0.49c0.383,1.093,2.635,0.597,4.568,0.474
	c-0.399,0.023-0.328-0.237-0.413-0.247c1.673,0.174,3.075,0.43,1.659-0.253c1.032-0.043,1.286,0.38,2.079,0.483
	c0.599-0.91,2.967,0.13,3.732-1.001c0.029,1.014,2.628-0.263,3.74,0.475c-0.17-1.024,2.271,0.046,2.906-0.507
	c-0.233,0.006-0.473-0.197-0.003-0.243c1.228,0.329,3.342,0.423,4.161,0.97c0.272,0.18-0.137,1.061,0.416,0.489
	c0.432-1.083,2.664,0.137,4.155,0.227c-0.133-0.006,0.569-0.229,0.83-0.249c1.556-0.131,1.995,0.346,2.904-0.014
	c-0.118,0.152-1.027,0.95,0.003,0.987c0.029-0.267,0.093-0.394,0.418-0.498c2.074-0.643,3.516-0.275,4.154-0.017
	c-0.237-0.72,0.594-0.183,0.825-0.25c0.588-0.17,0.868-0.876,1.66-0.499c0.871-0.004,1.567,1.334,2.082,0.729
	c-1.188-0.123,0.669-0.37,0.828-0.496c0.49,0.65-0.791,1.452,0.006,1.48c0.412-0.754,0.684-0.317,1.245-0.008
	c0.341-0.697-0.586-0.637-0.419-1.229c2.608,0.447,3.611,0.326,6.647,0.459c-0.386,1.005,2.414,0.75,1.252,1.478
	c1.041,0.291,1.124-0.37,1.656-0.501c1.923-0.479,2.803-0.003,4.574,0.718c1.16-1.511,0.979,1.06,1.663,0.487
	c0.318-0.268-0.337-0.987,0.413-0.987c1.194,0.022,2.716-0.147,3.322,0.229c1.26-0.863,5.054-0.966,5.814-0.267
	c0.945-0.853,1.463-0.439,2.902-1.002c0.521,0.595,1.703,0.789,2.91,0.972c-0.687,0.77,2.074,0.871,0.834,0.491
	c-0.254-0.011-0.493-0.033-0.413-0.243c3.366-0.021,3.08,0.243,5.813-0.027c0.406,0.33,1.107,0.486,1.66,0.732
	c0.619-0.569,3.377,0.28,2.128-0.702c-0.025,0.017-0.062,0.026-0.082,0.046c-0.049,0.184-0.039,0.394-0.386,0.401
	c0.106-0.155,0.233-0.285,0.386-0.401c0.008-0.029,0.015-0.063,0.028-0.094c0.022,0.018,0.033,0.031,0.054,0.048
	c0.999-0.693,2.822-0.656,4.513-0.561c-0.474,0.666,1.997,1.173,0.834,0.736c-0.02-0.316-0.534-0.34-0.421-0.736
	c2.193,0,2.026,0.1,2.91,0.479c-0.224-0.097,0.764-0.156,0.831,0.243c1.354-0.79,3.072,0.288,3.74,0.721
	c0.687-0.942,1.026,0.213,1.663,0.241c0.35,0.017,1.14-0.521,2.076-0.258c-0.153,1.024,1.934,1.057,2.08,0.977
	c-0.127,0.074-0.553-0.249,0-0.246c1.101,0.286,1.294,0.21,0.835,0.982c1.306,0.11,1.096-0.666,2.072-0.747
	c1.647,0.495,4.421-0.413,4.994,0.719c0.36-0.178,1.66-0.237,2.9-0.507c-0.113,0.563,0.107,0.926,0.833,0.982
	c-0.08-0.943,0.341-0.09,1.247-0.249c0.199-0.294,0.439-0.561,0.827-0.747c1.772-0.623,3.127-0.258,4.153-0.261
	c0.645-0.006,1.211-0.326,1.664-0.253c1.233,0.188,2.973,1.289,5.4,0.957c-0.3,0.406,0.833,1.07,0.833,0.49
	c-1.187-0.124,0.667-0.367,0.826-0.498c-0.065,0.62,0.934,0.598,1.254,0.98c-0.026-0.46,0.316-0.52,0.83-0.247
	c-0.27-1.476,3.515-0.932,4.146-1.003c0.221-0.027,0.361-0.503,0.828-0.5c0.38,0.008,0.866,0.64,1.666,0.733
	c0.588,0.07,1.754-0.337,2.493-0.261c0.895,0.102,0.88,0.367,1.661,0.491c0.666-0.817,1.554,0.026,2.489-0.506
	c-0.176,0.719,0.534,0.182,0.834,0.243c0.237,0.049,0.923,0.646,1.251,0.733c-0.147-0.037,0.493-0.288,0.826-0.251
	c1,0.109,0.463,0.497,1.253,0.737c1.49-1.061,3.661-0.75,4.554-1.748c1.427,0.24,1.254-0.108,2.083,0.486
	c0.091-0.708,1.237-0.295,2.491-0.753c0.6-0.133,1.02,0.957,1.246,0.243c-0.326-0.053-0.487-0.203-0.42-0.489
	c0.96,0.483,0.461-0.066,1.246-0.253c0.534,0.53,1.655-0.384,2.081,0.482c-0.06-0.445,2.881-0.394,2.487-0.261
	c0.334-0.108-0.133-0.419,0.413-0.492c0.046-0.003,0.326,0.333,0.833,0.246c0.28-0.054,0.801-0.445,1.247-0.502
	c1.207-0.144,2.057,0.496,1.663,0.49c1.44,0.028,3.102-0.337,4.981-0.025c0.082-0.223,0.025-0.445,0.413-0.495
	c0.146-0.018,2.98,0.053,2.493-0.011c1.008,0.13,2.607,0.721,2.913,0.974c0.064-0.29-0.076-0.697,0.414-0.743
	c-0.219,0.593,0.737,2.387,0.837,1.229c-0.24-0.146-0.977-1.163-0.006-1.233c2.786,0.2,3.859,1.986,5.82,1.947
	c0.065-0.29-0.073-0.7,0.413-0.74c1.146-0.109,0.394,0.917,1.254,0.98c-0.121-1,0.146-0.558,1.24-0.501
	c0.166-0.423-0.62-0.626,0-0.736c0.159,0.841,1.387,0.693,2.08,0.73c-0.194-0.011-0.601,0.227-0.421,0.246
	c1.021,0.116,2.293-0.99,2.913,0.237c1.335,0.207,0.854-0.647,1.661-0.75c0.667,0.34,1.313,0.693,2.077,0.977
	c0.216-0.931,1.622-0.036,2.91-0.504c0.866,0.558,2.077,1.057,3.323,0.728C392.999,36.66,393.126,37.254,393.445,36.805"/>
<g>
	<path fill="#FFFFFF" d="M53.295,22.695c-0.604,0.511-1.376,0.767-2.317,0.767c-0.94,0-1.605-0.256-1.995-0.767
		c-0.534-0.63-0.674-1.533-0.42-2.716c0.255-1.204,0.782-2.107,1.575-2.714c0.605-0.51,1.377-0.766,2.317-0.766
		s1.605,0.256,1.996,0.766c0.537,0.607,0.675,1.51,0.419,2.714C54.617,21.162,54.092,22.065,53.295,22.695z M53.496,19.979
		c0.154-0.737,0.115-1.307-0.119-1.71c-0.233-0.404-0.622-0.604-1.167-0.604s-1.022,0.2-1.431,0.6
		c-0.41,0.403-0.693,0.974-0.851,1.714c-0.157,0.743-0.117,1.313,0.121,1.717c0.239,0.399,0.629,0.6,1.174,0.6s1.02-0.2,1.427-0.6
		C53.056,21.292,53.337,20.722,53.496,19.979z"/>
	<path fill="#FFFFFF" d="M59.243,18.412l-0.62,2.934c-0.06,0.276-0.071,0.486-0.034,0.626c0.061,0.248,0.263,0.371,0.602,0.371
		c0.435,0,0.77-0.177,1.005-0.526c0.125-0.191,0.22-0.444,0.285-0.754l0.563-2.65h1.291l-1.032,4.867h-1.237l0.144-0.688
		c-0.015,0.014-0.053,0.061-0.117,0.134c-0.062,0.073-0.131,0.141-0.21,0.197c-0.238,0.176-0.456,0.3-0.658,0.366
		c-0.2,0.063-0.425,0.097-0.675,0.097c-0.722,0-1.15-0.26-1.29-0.776c-0.079-0.287-0.057-0.707,0.062-1.264l0.621-2.934H59.243z"/>
	<path fill="#FFFFFF" d="M68.222,18.305l-0.277,1.303c-0.077-0.006-0.146-0.013-0.21-0.016c-0.062-0.003-0.111-0.003-0.151-0.003
		c-0.512,0-0.89,0.167-1.139,0.5c-0.137,0.186-0.247,0.473-0.33,0.863l-0.49,2.327h-1.282l1.032-4.867h1.214l-0.178,0.85
		c0.265-0.323,0.481-0.546,0.651-0.667c0.283-0.197,0.615-0.296,0.995-0.296c0.025,0,0.045,0,0.06,0
		C68.134,18.302,68.169,18.302,68.222,18.305z"/>
	<path fill="#FFFFFF" d="M79.303,20.782c-0.182,0.861-0.514,1.514-0.994,1.96c-0.481,0.45-1.025,0.678-1.632,0.678
		c-0.386,0-0.687-0.101-0.901-0.294c-0.119-0.106-0.224-0.264-0.312-0.467l-0.541,2.534h-1.26l1.442-6.781h1.218l-0.151,0.72
		c0.182-0.21,0.363-0.377,0.545-0.5c0.327-0.217,0.687-0.327,1.077-0.327c0.569,0,1.003,0.21,1.311,0.63
		C79.408,19.355,79.475,19.972,79.303,20.782z M77.191,19.419c-0.461,0-0.825,0.216-1.088,0.657
		c-0.139,0.23-0.245,0.526-0.321,0.883c-0.121,0.564-0.054,0.964,0.196,1.191c0.152,0.133,0.349,0.199,0.594,0.199
		c0.353,0,0.653-0.136,0.896-0.409c0.243-0.273,0.413-0.637,0.509-1.094c0.081-0.373,0.067-0.706-0.043-0.993
		C77.821,19.562,77.575,19.419,77.191,19.419z"/>
	<path fill="#FFFFFF" d="M85.389,18.305l-0.277,1.303c-0.077-0.006-0.146-0.013-0.209-0.016c-0.062-0.003-0.112-0.003-0.152-0.003
		c-0.512,0-0.89,0.167-1.139,0.5c-0.136,0.186-0.247,0.473-0.33,0.863l-0.49,2.327H81.51l1.032-4.867h1.214l-0.178,0.85
		c0.265-0.323,0.481-0.546,0.651-0.667c0.283-0.197,0.615-0.296,0.995-0.296c0.025,0,0.045,0,0.061,0
		C85.3,18.302,85.335,18.302,85.389,18.305z"/>
	<path fill="#FFFFFF" d="M89.056,23.449c-0.835,0-1.405-0.253-1.707-0.76c-0.302-0.511-0.376-1.121-0.225-1.834
		c0.148-0.704,0.483-1.31,1.003-1.827c0.521-0.513,1.2-0.77,2.035-0.77c0.837,0,1.405,0.257,1.705,0.77
		c0.302,0.518,0.377,1.124,0.229,1.827c-0.151,0.713-0.487,1.323-1.007,1.834C90.571,23.196,89.893,23.449,89.056,23.449z
		 M90.761,20.855c0.105-0.487,0.085-0.863-0.06-1.127c-0.143-0.263-0.402-0.396-0.773-0.396c-0.374,0-0.688,0.133-0.944,0.396
		c-0.255,0.264-0.435,0.64-0.54,1.127c-0.104,0.486-0.083,0.863,0.062,1.131c0.143,0.263,0.402,0.396,0.773,0.396
		c0.372,0,0.687-0.134,0.942-0.396C90.478,21.719,90.657,21.342,90.761,20.855z"/>
	<path fill="#FFFFFF" d="M98.362,19.028l0.49-2.32h1.29l-1.392,6.571h-1.237l0.144-0.674c-0.246,0.287-0.497,0.497-0.757,0.63
		c-0.262,0.131-0.563,0.197-0.909,0.197c-0.568,0-0.998-0.23-1.288-0.69s-0.359-1.05-0.207-1.77c0.178-0.831,0.508-1.483,0.991-1.96
		c0.485-0.477,1.047-0.713,1.686-0.713c0.295,0,0.543,0.063,0.743,0.193C98.118,18.622,98.267,18.802,98.362,19.028z M97.995,20.919
		c0.125-0.597,0.065-1.023-0.178-1.277c-0.152-0.157-0.351-0.233-0.594-0.233c-0.371,0-0.675,0.14-0.908,0.423
		c-0.233,0.28-0.395,0.63-0.484,1.047c-0.095,0.446-0.083,0.807,0.037,1.077c0.118,0.27,0.358,0.403,0.718,0.403
		c0.36,0,0.664-0.134,0.909-0.4C97.738,21.688,97.906,21.342,97.995,20.919z"/>
	<path fill="#FFFFFF" d="M104.032,18.412l-0.62,2.934c-0.06,0.276-0.071,0.486-0.035,0.626c0.062,0.248,0.264,0.371,0.602,0.371
		c0.435,0,0.77-0.177,1.005-0.526c0.125-0.191,0.22-0.444,0.285-0.754l0.563-2.65h1.291l-1.032,4.867h-1.237l0.143-0.688
		c-0.015,0.014-0.054,0.061-0.116,0.134c-0.062,0.073-0.132,0.141-0.21,0.197c-0.238,0.176-0.457,0.3-0.658,0.366
		c-0.2,0.063-0.425,0.097-0.675,0.097c-0.722,0-1.149-0.26-1.29-0.776c-0.079-0.287-0.057-0.707,0.061-1.264l0.62-2.934H104.032z"/>
	<path fill="#FFFFFF" d="M112.713,20.159c0.014-0.18-0.012-0.347-0.081-0.49c-0.102-0.197-0.303-0.297-0.603-0.297
		c-0.429,0-0.767,0.213-1.014,0.64c-0.13,0.228-0.236,0.527-0.317,0.9c-0.075,0.356-0.093,0.646-0.058,0.863
		c0.067,0.403,0.309,0.607,0.728,0.607c0.297,0,0.525-0.081,0.685-0.241c0.158-0.162,0.279-0.369,0.359-0.626h1.3
		c-0.109,0.387-0.329,0.754-0.651,1.097c-0.518,0.557-1.169,0.837-1.952,0.837c-0.782,0-1.309-0.233-1.577-0.697
		c-0.27-0.463-0.325-1.066-0.168-1.806c0.176-0.836,0.518-1.487,1.025-1.95c0.506-0.467,1.12-0.697,1.837-0.697
		c0.61,0,1.08,0.136,1.41,0.41c0.33,0.274,0.457,0.757,0.38,1.45H112.713z"/>
	<path fill="#FFFFFF" d="M116.39,19.365l0.193-0.906h0.679l0.289-1.357h1.259l-0.29,1.357h0.79l-0.191,0.906h-0.791l-0.549,2.57
		c-0.042,0.2-0.042,0.323-0.002,0.373c0.041,0.047,0.19,0.074,0.449,0.074c0.038,0,0.08,0,0.123-0.004
		c0.043,0,0.087-0.003,0.132-0.007l-0.208,0.95l-0.606,0.023c-0.604,0.021-0.992-0.083-1.165-0.313
		c-0.11-0.144-0.134-0.37-0.072-0.673l0.638-2.994H116.39z"/>
	<path fill="#FFFFFF" d="M122.249,21.726c-0.02,0.227,0.005,0.387,0.077,0.483c0.119,0.17,0.39,0.254,0.817,0.254
		c0.25,0,0.458-0.037,0.62-0.114c0.164-0.072,0.262-0.183,0.295-0.333c0.031-0.143-0.007-0.25-0.112-0.327
		c-0.105-0.073-0.52-0.199-1.245-0.383c-0.521-0.137-0.872-0.306-1.053-0.514c-0.185-0.203-0.235-0.493-0.151-0.874
		c0.095-0.45,0.354-0.836,0.773-1.16c0.422-0.324,0.952-0.483,1.593-0.483c0.606,0,1.075,0.12,1.407,0.363
		c0.329,0.244,0.459,0.664,0.391,1.257h-1.271c0.014-0.164-0.006-0.293-0.06-0.386c-0.103-0.174-0.323-0.26-0.66-0.26
		c-0.276,0-0.483,0.043-0.618,0.13c-0.135,0.086-0.215,0.187-0.239,0.303c-0.033,0.147,0.007,0.25,0.12,0.317
		c0.11,0.066,0.527,0.187,1.25,0.354c0.478,0.116,0.819,0.296,1.021,0.54c0.2,0.244,0.26,0.546,0.184,0.914
		c-0.106,0.483-0.369,0.877-0.79,1.18c-0.424,0.307-1.009,0.46-1.759,0.46c-0.765,0-1.295-0.163-1.592-0.486
		c-0.296-0.323-0.391-0.733-0.288-1.233H122.249z"/>
	<path fill="#FFFFFF" d="M134.749,20.319c0.245-0.03,0.421-0.066,0.531-0.11c0.197-0.076,0.312-0.2,0.349-0.363
		c0.041-0.197,0.001-0.336-0.121-0.414c-0.123-0.073-0.318-0.113-0.585-0.113c-0.301,0-0.529,0.078-0.687,0.224
		c-0.11,0.11-0.201,0.26-0.272,0.447h-1.227c0.118-0.423,0.311-0.773,0.581-1.05c0.427-0.427,1.051-0.64,1.869-0.64
		c0.533,0,0.984,0.104,1.352,0.316c0.371,0.21,0.493,0.61,0.367,1.197l-0.479,2.231c-0.031,0.155-0.067,0.343-0.105,0.563
		c-0.028,0.167-0.028,0.28,0.001,0.34c0.027,0.057,0.08,0.106,0.154,0.147l-0.037,0.187h-1.384c-0.018-0.097-0.024-0.19-0.021-0.277
		c0.001-0.086,0.012-0.183,0.028-0.293c-0.219,0.19-0.457,0.35-0.71,0.487c-0.311,0.156-0.637,0.236-0.983,0.236
		c-0.439,0-0.777-0.127-1.012-0.381c-0.233-0.249-0.302-0.605-0.202-1.065c0.127-0.601,0.452-1.034,0.968-1.301
		c0.283-0.147,0.678-0.25,1.183-0.313L134.749,20.319z M135.396,20.912c-0.089,0.054-0.179,0.094-0.268,0.123
		c-0.09,0.034-0.208,0.061-0.356,0.087l-0.295,0.054c-0.28,0.05-0.484,0.106-0.615,0.177c-0.221,0.113-0.355,0.293-0.406,0.54
		c-0.049,0.217-0.021,0.373,0.078,0.47c0.098,0.097,0.235,0.144,0.409,0.144c0.272,0,0.542-0.08,0.807-0.24
		c0.265-0.159,0.449-0.453,0.549-0.88L135.396,20.912z"/>
	<path fill="#FFFFFF" d="M142.99,18.305l-0.277,1.303c-0.077-0.006-0.146-0.013-0.21-0.016c-0.061-0.003-0.111-0.003-0.151-0.003
		c-0.511,0-0.889,0.167-1.137,0.5c-0.138,0.186-0.248,0.473-0.331,0.863l-0.49,2.327h-1.283l1.032-4.867h1.214l-0.177,0.85
		c0.265-0.323,0.48-0.546,0.65-0.667c0.283-0.197,0.615-0.296,0.995-0.296c0.026,0,0.046,0,0.061,0
		C142.903,18.302,142.937,18.302,142.99,18.305z"/>
	<path fill="#FFFFFF" d="M149.184,19.232c0.132,0.287,0.184,0.624,0.158,1.003c-0.012,0.224-0.067,0.543-0.162,0.964h-3.328
		c-0.087,0.486-0.008,0.829,0.239,1.026c0.148,0.123,0.348,0.184,0.594,0.184c0.262,0,0.492-0.073,0.689-0.224
		c0.103-0.079,0.207-0.193,0.308-0.333h1.298c-0.095,0.286-0.308,0.58-0.638,0.877c-0.518,0.473-1.151,0.71-1.901,0.71
		c-0.619,0-1.122-0.2-1.509-0.597c-0.389-0.4-0.489-1.048-0.299-1.947c0.179-0.843,0.53-1.487,1.052-1.938
		c0.522-0.45,1.125-0.673,1.805-0.673c0.406,0,0.755,0.073,1.047,0.227C148.828,18.662,149.045,18.902,149.184,19.232z
		 M146.06,20.359h1.978c0.05-0.337,0.001-0.59-0.144-0.763c-0.148-0.177-0.358-0.264-0.629-0.264c-0.294,0-0.542,0.094-0.743,0.276
		C146.321,19.795,146.168,20.045,146.06,20.359z"/>
	<path fill="#FFFFFF" d="M160.823,18.922c0.095,0.184,0.138,0.371,0.129,0.561c-0.012,0.193-0.063,0.506-0.156,0.94l-0.606,2.857
		h-1.298l0.625-2.96c0.057-0.26,0.057-0.473,0.003-0.633c-0.067-0.228-0.265-0.341-0.588-0.341c-0.336,0-0.615,0.113-0.837,0.337
		c-0.222,0.227-0.378,0.546-0.467,0.963l-0.557,2.634h-1.268l1.392-6.557h1.269l-0.498,2.327c0.245-0.284,0.5-0.48,0.767-0.594
		c0.265-0.109,0.534-0.166,0.8-0.166c0.302,0,0.563,0.053,0.787,0.156C160.543,18.548,160.709,18.708,160.823,18.922z"/>
	<path fill="#FFFFFF" d="M165.74,20.319c0.245-0.03,0.421-0.066,0.531-0.11c0.198-0.076,0.313-0.2,0.349-0.363
		c0.042-0.197,0.001-0.336-0.121-0.414c-0.123-0.073-0.318-0.113-0.584-0.113c-0.302,0-0.53,0.078-0.689,0.224
		c-0.109,0.11-0.199,0.26-0.271,0.447h-1.226c0.118-0.423,0.311-0.773,0.579-1.05c0.429-0.427,1.053-0.64,1.871-0.64
		c0.533,0,0.984,0.104,1.352,0.316c0.371,0.21,0.492,0.61,0.368,1.197l-0.479,2.231c-0.03,0.155-0.067,0.343-0.105,0.563
		c-0.027,0.167-0.027,0.28,0.001,0.34c0.028,0.057,0.08,0.106,0.155,0.147l-0.037,0.187h-1.384c-0.018-0.097-0.024-0.19-0.021-0.277
		c0.001-0.086,0.012-0.183,0.026-0.293c-0.217,0.19-0.455,0.35-0.709,0.487c-0.311,0.156-0.637,0.236-0.983,0.236
		c-0.439,0-0.777-0.127-1.012-0.381c-0.232-0.249-0.301-0.605-0.202-1.065c0.127-0.601,0.452-1.034,0.968-1.301
		c0.283-0.147,0.678-0.25,1.183-0.313L165.74,20.319z M166.387,20.912c-0.088,0.054-0.179,0.094-0.268,0.123
		c-0.09,0.034-0.208,0.061-0.357,0.087l-0.295,0.054c-0.28,0.05-0.485,0.106-0.617,0.177c-0.219,0.113-0.354,0.293-0.404,0.54
		c-0.049,0.217-0.021,0.373,0.078,0.47c0.098,0.097,0.236,0.144,0.409,0.144c0.272,0,0.542-0.08,0.807-0.24
		c0.265-0.159,0.449-0.453,0.55-0.88L166.387,20.912z"/>
	<path fill="#FFFFFF" d="M175.223,20.002l-0.696,3.277h-1.303l0.625-2.96c0.057-0.256,0.063-0.45,0.021-0.59
		c-0.07-0.246-0.282-0.374-0.634-0.374c-0.432,0-0.766,0.184-1.003,0.551c-0.125,0.193-0.22,0.44-0.281,0.74l-0.559,2.634h-1.266
		l1.03-4.857h1.228l-0.152,0.71c0.218-0.25,0.411-0.43,0.581-0.54c0.303-0.197,0.655-0.293,1.056-0.293
		c0.503,0,0.886,0.13,1.149,0.394C175.285,18.956,175.352,19.392,175.223,20.002z"/>
	<path fill="#FFFFFF" d="M181.57,19.028l0.49-2.32h1.289l-1.391,6.571h-1.237l0.144-0.674c-0.245,0.287-0.496,0.497-0.756,0.63
		c-0.262,0.131-0.563,0.197-0.909,0.197c-0.568,0-0.998-0.23-1.288-0.69c-0.291-0.46-0.359-1.05-0.207-1.77
		c0.178-0.831,0.508-1.483,0.991-1.96c0.485-0.477,1.047-0.713,1.685-0.713c0.295,0,0.543,0.063,0.744,0.193
		C181.327,18.622,181.474,18.802,181.57,19.028z M181.203,20.919c0.125-0.597,0.066-1.023-0.178-1.277
		c-0.153-0.157-0.351-0.233-0.594-0.233c-0.372,0-0.675,0.14-0.909,0.423c-0.233,0.28-0.395,0.63-0.484,1.047
		c-0.095,0.446-0.084,0.807,0.037,1.077c0.118,0.27,0.358,0.403,0.718,0.403c0.359,0,0.663-0.134,0.908-0.4
		C180.945,21.688,181.114,21.342,181.203,20.919z"/>
	<path fill="#FFFFFF" d="M188.508,20.159c0.015-0.18-0.011-0.347-0.08-0.49c-0.101-0.197-0.303-0.297-0.603-0.297
		c-0.429,0-0.767,0.213-1.014,0.64c-0.13,0.228-0.237,0.527-0.317,0.9c-0.075,0.356-0.093,0.646-0.058,0.863
		c0.067,0.403,0.308,0.607,0.729,0.607c0.297,0,0.525-0.081,0.685-0.241c0.159-0.162,0.278-0.369,0.358-0.626h1.301
		c-0.11,0.387-0.329,0.754-0.652,1.097c-0.519,0.557-1.168,0.837-1.952,0.837c-0.782,0-1.309-0.233-1.577-0.697
		c-0.27-0.463-0.325-1.066-0.168-1.806c0.176-0.836,0.519-1.487,1.026-1.95c0.507-0.467,1.119-0.697,1.837-0.697
		c0.609,0,1.079,0.136,1.41,0.41c0.329,0.274,0.457,0.757,0.38,1.45H188.508z"/>
	<path fill="#FFFFFF" d="M195.719,18.305l-0.277,1.303c-0.077-0.006-0.147-0.013-0.21-0.016c-0.061-0.003-0.112-0.003-0.151-0.003
		c-0.513,0-0.891,0.167-1.139,0.5c-0.136,0.186-0.246,0.473-0.329,0.863l-0.491,2.327h-1.281l1.032-4.867h1.214l-0.179,0.85
		c0.265-0.323,0.482-0.546,0.652-0.667c0.283-0.197,0.615-0.296,0.995-0.296c0.024,0,0.044,0,0.06,0
		C195.63,18.302,195.666,18.302,195.719,18.305z"/>
	<path fill="#FFFFFF" d="M199.774,20.319c0.245-0.03,0.421-0.066,0.531-0.11c0.197-0.076,0.313-0.2,0.349-0.363
		c0.042-0.197,0.001-0.336-0.121-0.414c-0.123-0.073-0.317-0.113-0.584-0.113c-0.302,0-0.53,0.078-0.688,0.224
		c-0.11,0.11-0.201,0.26-0.272,0.447h-1.226c0.118-0.423,0.311-0.773,0.58-1.05c0.427-0.427,1.052-0.64,1.869-0.64
		c0.533,0,0.984,0.104,1.352,0.316c0.371,0.21,0.493,0.61,0.368,1.197l-0.479,2.231c-0.03,0.155-0.067,0.343-0.105,0.563
		c-0.028,0.167-0.028,0.28,0.001,0.34c0.027,0.057,0.08,0.106,0.155,0.147l-0.037,0.187h-1.384c-0.018-0.097-0.024-0.19-0.021-0.277
		c0.002-0.086,0.013-0.183,0.028-0.293c-0.219,0.19-0.456,0.35-0.71,0.487c-0.311,0.156-0.637,0.236-0.983,0.236
		c-0.439,0-0.777-0.127-1.01-0.381c-0.234-0.249-0.303-0.605-0.204-1.065c0.129-0.601,0.452-1.034,0.968-1.301
		c0.283-0.147,0.678-0.25,1.183-0.313L199.774,20.319z M200.423,20.912c-0.09,0.054-0.18,0.094-0.269,0.123
		c-0.09,0.034-0.208,0.061-0.357,0.087l-0.295,0.054c-0.278,0.05-0.484,0.106-0.615,0.177c-0.221,0.113-0.355,0.293-0.406,0.54
		c-0.049,0.217-0.021,0.373,0.078,0.47c0.098,0.097,0.236,0.144,0.409,0.144c0.274,0,0.542-0.08,0.807-0.24
		c0.265-0.159,0.449-0.453,0.55-0.88L200.423,20.912z"/>
	<path fill="#FFFFFF" d="M207.84,16.659l-0.224,1.036c-0.069-0.01-0.185-0.016-0.352-0.02c-0.167-0.003-0.291,0.034-0.374,0.11
		c-0.081,0.08-0.131,0.167-0.15,0.264c-0.02,0.093-0.049,0.23-0.087,0.41h0.834l-0.193,0.896h-0.834l-0.83,3.924h-1.268l0.83-3.924
		h-0.71l0.193-0.896h0.695l0.067-0.314c0.11-0.52,0.275-0.88,0.491-1.076c0.247-0.29,0.724-0.437,1.429-0.437
		c0.079,0,0.151,0.003,0.217,0.007C207.638,16.645,207.727,16.652,207.84,16.659z"/>
	<path fill="#FFFFFF" d="M209.356,19.365l0.193-0.906h0.678l0.291-1.357h1.258l-0.291,1.357h0.79l-0.191,0.906h-0.79l-0.55,2.57
		c-0.042,0.2-0.042,0.323-0.001,0.373c0.04,0.047,0.19,0.074,0.447,0.074c0.04,0,0.081,0,0.124-0.004
		c0.042,0,0.087-0.003,0.131-0.007l-0.207,0.95l-0.606,0.023c-0.603,0.021-0.992-0.083-1.165-0.313
		c-0.11-0.144-0.135-0.37-0.072-0.673l0.639-2.994H209.356z"/>
	<path fill="#FFFFFF" d="M218.571,19.232c0.132,0.287,0.184,0.624,0.156,1.003c-0.011,0.224-0.066,0.543-0.161,0.964h-3.33
		c-0.086,0.486-0.006,0.829,0.24,1.026c0.148,0.123,0.346,0.184,0.594,0.184c0.262,0,0.492-0.073,0.688-0.224
		c0.104-0.079,0.207-0.193,0.309-0.333h1.298c-0.095,0.286-0.308,0.58-0.638,0.877c-0.519,0.473-1.151,0.71-1.901,0.71
		c-0.619,0-1.122-0.2-1.511-0.597c-0.389-0.4-0.489-1.048-0.299-1.947c0.181-0.843,0.53-1.487,1.052-1.938
		c0.522-0.45,1.125-0.673,1.805-0.673c0.406,0,0.756,0.073,1.047,0.227C218.215,18.662,218.431,18.902,218.571,19.232z
		 M215.445,20.359h1.979c0.049-0.337,0.001-0.59-0.146-0.763c-0.148-0.177-0.356-0.264-0.627-0.264
		c-0.294,0-0.542,0.094-0.743,0.276C215.707,19.795,215.554,20.045,215.445,20.359z"/>
	<path fill="#FFFFFF" d="M224.851,19.028l0.49-2.32h1.289l-1.391,6.571h-1.237l0.144-0.674c-0.245,0.287-0.496,0.497-0.756,0.63
		c-0.262,0.131-0.563,0.197-0.909,0.197c-0.568,0-0.998-0.23-1.288-0.69c-0.291-0.46-0.359-1.05-0.207-1.77
		c0.178-0.831,0.508-1.483,0.991-1.96c0.485-0.477,1.047-0.713,1.685-0.713c0.295,0,0.543,0.063,0.744,0.193
		C224.607,18.622,224.754,18.802,224.851,19.028z M224.483,20.919c0.125-0.597,0.064-1.023-0.178-1.277
		c-0.153-0.157-0.351-0.233-0.594-0.233c-0.372,0-0.675,0.14-0.909,0.423c-0.233,0.28-0.395,0.63-0.484,1.047
		c-0.095,0.446-0.084,0.807,0.037,1.077c0.118,0.27,0.358,0.403,0.718,0.403c0.36,0,0.663-0.134,0.908-0.4
		C224.226,21.688,224.395,21.342,224.483,20.919z"/>
	<path fill="#FFFFFF" d="M227.928,24.336c0.271-0.07,0.484-0.19,0.642-0.356c0.154-0.167,0.274-0.4,0.358-0.7h-0.771l0.282-1.33
		h1.375l-0.247,1.149c-0.041,0.204-0.113,0.417-0.212,0.637c-0.103,0.221-0.242,0.41-0.421,0.57
		c-0.196,0.174-0.411,0.304-0.64,0.391c-0.231,0.086-0.387,0.133-0.467,0.133L227.928,24.336z"/>
	<path fill="#FFFFFF" d="M242.152,20.782c-0.182,0.861-0.514,1.514-0.993,1.96c-0.482,0.45-1.026,0.678-1.632,0.678
		c-0.387,0-0.688-0.101-0.902-0.294c-0.119-0.106-0.224-0.264-0.313-0.467l-0.54,2.534h-1.26l1.442-6.781h1.218l-0.151,0.72
		c0.182-0.21,0.363-0.377,0.545-0.5c0.326-0.217,0.688-0.327,1.076-0.327c0.569,0,1.004,0.21,1.311,0.63
		C242.256,19.355,242.324,19.972,242.152,20.782z M240.04,19.419c-0.461,0-0.825,0.216-1.088,0.657
		c-0.138,0.23-0.245,0.526-0.321,0.883c-0.12,0.564-0.054,0.964,0.197,1.191c0.151,0.133,0.348,0.199,0.592,0.199
		c0.354,0,0.654-0.136,0.897-0.409c0.244-0.273,0.414-0.637,0.508-1.094c0.081-0.373,0.067-0.706-0.043-0.993
		C240.67,19.562,240.424,19.419,240.04,19.419z"/>
	<path fill="#FFFFFF" d="M245.67,23.279h-1.271l1.396-6.581h1.273L245.67,23.279z"/>
	<path fill="#FFFFFF" d="M253.412,19.232c0.133,0.287,0.184,0.624,0.156,1.003c-0.01,0.224-0.065,0.543-0.16,0.964h-3.33
		c-0.086,0.486-0.006,0.829,0.24,1.026c0.148,0.123,0.348,0.184,0.594,0.184c0.262,0,0.491-0.073,0.687-0.224
		c0.104-0.079,0.207-0.193,0.311-0.333h1.297c-0.094,0.286-0.307,0.58-0.638,0.877c-0.519,0.473-1.151,0.71-1.901,0.71
		c-0.619,0-1.122-0.2-1.511-0.597c-0.388-0.4-0.488-1.048-0.299-1.947c0.181-0.843,0.531-1.487,1.052-1.938
		c0.522-0.45,1.125-0.673,1.807-0.673c0.404,0,0.754,0.073,1.045,0.227C253.057,18.662,253.273,18.902,253.412,19.232z
		 M250.287,20.359h1.979c0.051-0.337,0.002-0.59-0.145-0.763c-0.148-0.177-0.357-0.264-0.628-0.264
		c-0.294,0-0.542,0.094-0.743,0.276C250.548,19.795,250.396,20.045,250.287,20.359z"/>
	<path fill="#FFFFFF" d="M258.186,20.319c0.248-0.03,0.424-0.066,0.534-0.11c0.196-0.076,0.314-0.2,0.347-0.363
		c0.044-0.197,0.004-0.336-0.12-0.414c-0.119-0.073-0.316-0.113-0.583-0.113c-0.303,0-0.529,0.078-0.69,0.224
		c-0.107,0.11-0.2,0.26-0.27,0.447h-1.228c0.118-0.423,0.311-0.773,0.58-1.05c0.431-0.427,1.05-0.64,1.871-0.64
		c0.532,0,0.982,0.104,1.353,0.316c0.368,0.21,0.49,0.61,0.368,1.197l-0.481,2.231c-0.033,0.155-0.067,0.343-0.106,0.563
		c-0.026,0.167-0.026,0.28,0,0.34c0.03,0.057,0.081,0.106,0.157,0.147l-0.036,0.187h-1.385c-0.017-0.097-0.022-0.19-0.022-0.277
		c0.003-0.086,0.012-0.183,0.026-0.293c-0.216,0.19-0.453,0.35-0.706,0.487c-0.313,0.156-0.642,0.236-0.984,0.236
		c-0.439,0-0.776-0.127-1.011-0.381c-0.232-0.249-0.303-0.605-0.206-1.065c0.13-0.601,0.453-1.034,0.971-1.301
		c0.283-0.147,0.677-0.25,1.183-0.313L258.186,20.319z M258.836,20.912c-0.09,0.054-0.179,0.094-0.269,0.123
		c-0.088,0.034-0.207,0.061-0.354,0.087l-0.297,0.054c-0.279,0.05-0.483,0.106-0.616,0.177c-0.221,0.113-0.354,0.293-0.406,0.54
		c-0.047,0.217-0.021,0.373,0.08,0.47c0.1,0.097,0.232,0.144,0.405,0.144c0.274,0,0.544-0.08,0.807-0.24
		c0.269-0.159,0.45-0.453,0.555-0.88L258.836,20.912z"/>
	<path fill="#FFFFFF" d="M263.881,21.726c-0.021,0.227,0.006,0.387,0.079,0.483c0.116,0.17,0.388,0.254,0.814,0.254
		c0.253,0,0.459-0.037,0.62-0.114c0.167-0.072,0.263-0.183,0.295-0.333c0.031-0.143-0.009-0.25-0.108-0.327
		c-0.107-0.073-0.521-0.199-1.247-0.383c-0.521-0.137-0.873-0.306-1.054-0.514c-0.187-0.203-0.232-0.493-0.153-0.874
		c0.097-0.45,0.354-0.836,0.773-1.16c0.424-0.324,0.954-0.483,1.594-0.483c0.606,0,1.073,0.12,1.406,0.363
		c0.331,0.244,0.46,0.664,0.394,1.257h-1.273c0.014-0.164-0.006-0.293-0.06-0.386c-0.1-0.174-0.32-0.26-0.66-0.26
		c-0.273,0-0.48,0.043-0.616,0.13c-0.137,0.086-0.218,0.187-0.237,0.303c-0.034,0.147,0.007,0.25,0.12,0.317
		c0.106,0.066,0.527,0.187,1.246,0.354c0.481,0.116,0.821,0.296,1.024,0.54c0.199,0.244,0.259,0.546,0.183,0.914
		c-0.106,0.483-0.366,0.877-0.79,1.18c-0.423,0.307-1.011,0.46-1.756,0.46c-0.768,0-1.299-0.163-1.594-0.486
		c-0.297-0.323-0.394-0.733-0.288-1.233H263.881z"/>
	<path fill="#FFFFFF" d="M274.15,19.232c0.131,0.287,0.184,0.624,0.158,1.003c-0.014,0.224-0.067,0.543-0.161,0.964h-3.329
		c-0.088,0.486-0.008,0.829,0.24,1.026c0.149,0.123,0.346,0.184,0.592,0.184c0.264,0,0.49-0.073,0.69-0.224
		c0.1-0.079,0.207-0.193,0.307-0.333h1.301c-0.098,0.286-0.311,0.58-0.641,0.877c-0.52,0.473-1.153,0.71-1.9,0.71
		c-0.62,0-1.123-0.2-1.513-0.597c-0.387-0.4-0.486-1.048-0.297-1.947c0.18-0.843,0.53-1.487,1.051-1.938
		c0.523-0.45,1.126-0.673,1.806-0.673c0.407,0,0.754,0.073,1.048,0.227C273.794,18.662,274.012,18.902,274.15,19.232z
		 M271.027,20.359h1.977c0.051-0.337,0.005-0.59-0.143-0.763c-0.149-0.177-0.361-0.264-0.63-0.264c-0.294,0-0.544,0.094-0.744,0.276
		C271.288,19.795,271.135,20.045,271.027,20.359z"/>
	<path fill="#FFFFFF" d="M284.326,20.159c0.017-0.18-0.011-0.347-0.08-0.49c-0.104-0.197-0.305-0.297-0.604-0.297
		c-0.426,0-0.767,0.213-1.014,0.64c-0.13,0.228-0.235,0.527-0.316,0.9c-0.076,0.356-0.094,0.646-0.057,0.863
		c0.067,0.403,0.308,0.607,0.728,0.607c0.297,0,0.526-0.081,0.687-0.241c0.156-0.162,0.277-0.369,0.357-0.626h1.299
		c-0.109,0.387-0.33,0.754-0.65,1.097c-0.519,0.557-1.169,0.837-1.953,0.837c-0.779,0-1.306-0.233-1.577-0.697
		c-0.269-0.463-0.322-1.066-0.17-1.806c0.181-0.836,0.521-1.487,1.027-1.95c0.507-0.467,1.121-0.697,1.837-0.697
		c0.609,0,1.079,0.136,1.41,0.41c0.331,0.274,0.456,0.757,0.38,1.45H284.326z"/>
	<path fill="#FFFFFF" d="M289.815,23.449c-0.833,0-1.402-0.253-1.707-0.76c-0.3-0.511-0.372-1.121-0.222-1.834
		c0.15-0.704,0.482-1.31,1.003-1.827c0.521-0.513,1.2-0.77,2.032-0.77c0.841,0,1.407,0.257,1.707,0.77
		c0.3,0.518,0.377,1.124,0.227,1.827c-0.149,0.713-0.485,1.323-1.006,1.834C291.333,23.196,290.656,23.449,289.815,23.449z
		 M291.522,20.855c0.107-0.487,0.087-0.863-0.06-1.127c-0.143-0.263-0.399-0.396-0.773-0.396c-0.373,0-0.688,0.133-0.942,0.396
		c-0.258,0.264-0.438,0.64-0.541,1.127c-0.104,0.486-0.084,0.863,0.063,1.131c0.142,0.263,0.401,0.396,0.775,0.396
		c0.368,0,0.686-0.134,0.939-0.396C291.239,21.719,291.42,21.342,291.522,20.855z"/>
	<path fill="#FFFFFF" d="M300.189,20.002l-0.693,3.277h-1.306l0.626-2.96c0.054-0.256,0.06-0.45,0.021-0.59
		c-0.066-0.246-0.28-0.374-0.633-0.374c-0.435,0-0.767,0.184-1.001,0.551c-0.127,0.193-0.221,0.44-0.286,0.74l-0.558,2.634h-1.266
		l1.03-4.857h1.227l-0.147,0.71c0.215-0.25,0.407-0.43,0.58-0.54c0.3-0.197,0.654-0.293,1.054-0.293c0.507,0,0.888,0.13,1.154,0.394
		C300.251,18.956,300.316,19.392,300.189,20.002z"/>
	<path fill="#FFFFFF" d="M302.824,19.365l0.193-0.906h0.68l0.294-1.357h1.253l-0.286,1.357h0.785l-0.187,0.906h-0.793l-0.546,2.57
		c-0.046,0.2-0.046,0.323-0.007,0.373c0.04,0.047,0.193,0.074,0.453,0.074c0.034,0,0.08,0,0.12-0.004
		c0.047,0,0.087-0.003,0.133-0.007l-0.207,0.95l-0.605,0.023c-0.606,0.021-0.994-0.083-1.167-0.313
		c-0.107-0.144-0.133-0.37-0.073-0.673l0.64-2.994H302.824z"/>
	<path fill="#FFFFFF" d="M309.907,20.319c0.243-0.03,0.421-0.066,0.531-0.11c0.196-0.076,0.31-0.2,0.35-0.363
		c0.039-0.197,0-0.336-0.12-0.414c-0.127-0.073-0.319-0.113-0.586-0.113c-0.3,0-0.531,0.078-0.688,0.224
		c-0.113,0.11-0.2,0.26-0.273,0.447h-1.229c0.119-0.423,0.313-0.773,0.58-1.05c0.427-0.427,1.056-0.64,1.874-0.64
		c0.529,0,0.982,0.104,1.35,0.316c0.374,0.21,0.493,0.61,0.366,1.197l-0.477,2.231c-0.03,0.155-0.07,0.343-0.106,0.563
		c-0.026,0.167-0.026,0.28,0.003,0.34c0.027,0.057,0.081,0.106,0.152,0.147l-0.036,0.187h-1.383c-0.02-0.097-0.027-0.19-0.02-0.277
		c0-0.086,0.009-0.183,0.026-0.293c-0.221,0.19-0.457,0.35-0.714,0.487c-0.306,0.156-0.637,0.236-0.982,0.236
		c-0.441,0-0.781-0.127-1.014-0.381c-0.234-0.249-0.3-0.605-0.2-1.065c0.127-0.601,0.453-1.034,0.966-1.301
		c0.287-0.147,0.681-0.25,1.188-0.313L309.907,20.319z M310.555,20.912c-0.09,0.054-0.181,0.094-0.266,0.123
		c-0.094,0.034-0.212,0.061-0.361,0.087l-0.293,0.054c-0.28,0.05-0.486,0.106-0.617,0.177c-0.22,0.113-0.359,0.293-0.406,0.54
		c-0.047,0.217-0.021,0.373,0.081,0.47c0.093,0.097,0.232,0.144,0.408,0.144c0.274,0,0.54-0.08,0.807-0.24
		c0.264-0.159,0.447-0.453,0.548-0.88L310.555,20.912z"/>
	<path fill="#FFFFFF" d="M317.85,20.159c0.017-0.18-0.011-0.347-0.081-0.49c-0.1-0.197-0.301-0.297-0.601-0.297
		c-0.43,0-0.766,0.213-1.014,0.64c-0.133,0.228-0.238,0.527-0.319,0.9c-0.073,0.356-0.094,0.646-0.057,0.863
		c0.067,0.403,0.311,0.607,0.73,0.607c0.293,0,0.523-0.081,0.684-0.241c0.156-0.162,0.275-0.369,0.356-0.626h1.3
		c-0.106,0.387-0.326,0.754-0.65,1.097c-0.516,0.557-1.17,0.837-1.95,0.837c-0.782,0-1.309-0.233-1.58-0.697
		c-0.266-0.463-0.322-1.066-0.167-1.806c0.178-0.836,0.521-1.487,1.027-1.95c0.507-0.467,1.121-0.697,1.834-0.697
		c0.612,0,1.079,0.136,1.413,0.41c0.326,0.274,0.453,0.757,0.38,1.45H317.85z"/>
	<path fill="#FFFFFF" d="M321.526,19.365l0.192-0.906h0.68l0.294-1.357h1.254l-0.287,1.357h0.786l-0.187,0.906h-0.793l-0.547,2.57
		c-0.047,0.2-0.047,0.323-0.006,0.373c0.04,0.047,0.193,0.074,0.453,0.074c0.034,0,0.08,0,0.119-0.004
		c0.048,0,0.088-0.003,0.134-0.007l-0.207,0.95l-0.606,0.023c-0.605,0.021-0.993-0.083-1.166-0.313
		c-0.107-0.144-0.133-0.37-0.073-0.673l0.64-2.994H321.526z"/>
	<path fill="#FFFFFF" d="M332.739,18.412l-0.62,2.934c-0.06,0.276-0.073,0.486-0.039,0.626c0.067,0.248,0.266,0.371,0.607,0.371
		c0.434,0,0.766-0.177,1.003-0.526c0.124-0.191,0.22-0.444,0.283-0.754l0.566-2.65h1.287l-1.03,4.867h-1.236l0.144-0.688
		c-0.017,0.014-0.054,0.061-0.116,0.134c-0.062,0.073-0.135,0.141-0.212,0.197c-0.235,0.176-0.456,0.3-0.656,0.366
		c-0.199,0.063-0.426,0.097-0.68,0.097c-0.72,0-1.146-0.26-1.287-0.776c-0.08-0.287-0.061-0.707,0.061-1.264l0.62-2.934H332.739z"/>
	<path fill="#FFFFFF" d="M339.167,21.726c-0.02,0.227,0.007,0.387,0.08,0.483c0.116,0.17,0.388,0.254,0.814,0.254
		c0.253,0,0.459-0.037,0.62-0.114c0.167-0.072,0.263-0.183,0.295-0.333c0.031-0.143-0.009-0.25-0.108-0.327
		c-0.107-0.073-0.521-0.199-1.248-0.383c-0.521-0.137-0.872-0.306-1.053-0.514c-0.187-0.203-0.232-0.493-0.153-0.874
		c0.097-0.45,0.354-0.836,0.773-1.16c0.424-0.324,0.953-0.483,1.594-0.483c0.605,0,1.073,0.12,1.406,0.363
		c0.331,0.244,0.461,0.664,0.394,1.257h-1.273c0.014-0.164-0.006-0.293-0.06-0.386c-0.1-0.174-0.32-0.26-0.66-0.26
		c-0.273,0-0.48,0.043-0.617,0.13c-0.136,0.086-0.217,0.187-0.237,0.303c-0.033,0.147,0.008,0.25,0.121,0.317
		c0.105,0.066,0.527,0.187,1.246,0.354c0.48,0.116,0.82,0.296,1.024,0.54c0.199,0.244,0.259,0.546,0.183,0.914
		c-0.106,0.483-0.366,0.877-0.79,1.18c-0.423,0.307-1.011,0.46-1.756,0.46c-0.768,0-1.297-0.163-1.594-0.486
		s-0.394-0.733-0.288-1.233H339.167z"/>
	<path fill="#FFFFFF" d="M352.822,16.659l-0.227,1.036c-0.067-0.01-0.181-0.016-0.348-0.02c-0.167-0.003-0.292,0.034-0.373,0.11
		c-0.086,0.08-0.134,0.167-0.153,0.264c-0.02,0.093-0.046,0.23-0.086,0.41h0.833l-0.193,0.896h-0.834l-0.826,3.924h-1.274
		l0.835-3.924h-0.714l0.193-0.896h0.699l0.067-0.314c0.107-0.52,0.272-0.88,0.487-1.076c0.246-0.29,0.727-0.437,1.433-0.437
		c0.081,0,0.146,0.003,0.214,0.007C352.622,16.645,352.709,16.652,352.822,16.659z"/>
	<path fill="#FFFFFF" d="M356.156,23.449c-0.84,0-1.406-0.253-1.707-0.76c-0.308-0.511-0.381-1.121-0.228-1.834
		c0.146-0.704,0.48-1.31,1.001-1.827c0.526-0.513,1.2-0.77,2.041-0.77c0.835,0,1.401,0.257,1.702,0.77
		c0.303,0.518,0.381,1.124,0.23,1.827c-0.149,0.713-0.486,1.323-1.007,1.834C357.672,23.196,356.989,23.449,356.156,23.449z
		 M357.858,20.855c0.107-0.487,0.088-0.863-0.06-1.127c-0.139-0.263-0.399-0.396-0.776-0.396c-0.373,0-0.687,0.133-0.939,0.396
		c-0.254,0.264-0.434,0.64-0.54,1.127c-0.107,0.486-0.088,0.863,0.06,1.131c0.146,0.263,0.399,0.396,0.772,0.396
		c0.374,0,0.688-0.134,0.94-0.396C357.578,21.719,357.759,21.342,357.858,20.855z"/>
	<path fill="#FFFFFF" d="M365.286,18.305l-0.272,1.303c-0.081-0.006-0.146-0.013-0.214-0.016c-0.061-0.003-0.11-0.003-0.15-0.003
		c-0.51,0-0.89,0.167-1.136,0.5c-0.141,0.186-0.247,0.473-0.334,0.863l-0.486,2.327h-1.283l1.028-4.867h1.215l-0.177,0.85
		c0.264-0.323,0.482-0.546,0.649-0.667c0.288-0.197,0.617-0.296,0.998-0.296c0.022,0,0.043,0,0.06,0
		C365.2,18.302,365.232,18.302,365.286,18.305z"/>
	<path fill="#FFFFFF" d="M372.478,23.279h-1.273l1.399-6.581h1.273L372.478,23.279z"/>
	<path fill="#FFFFFF" d="M378.084,20.319c0.24-0.03,0.421-0.066,0.526-0.11c0.2-0.076,0.313-0.2,0.354-0.363
		c0.04-0.197,0-0.336-0.119-0.414c-0.127-0.073-0.32-0.113-0.586-0.113c-0.301,0-0.535,0.078-0.688,0.224
		c-0.113,0.11-0.201,0.26-0.274,0.447h-1.226c0.119-0.423,0.313-0.773,0.58-1.05c0.427-0.427,1.053-0.64,1.865-0.64
		c0.535,0,0.988,0.104,1.355,0.316c0.373,0.21,0.492,0.61,0.365,1.197l-0.479,2.231c-0.027,0.155-0.067,0.343-0.107,0.563
		c-0.027,0.167-0.027,0.28,0.006,0.34c0.028,0.057,0.081,0.106,0.153,0.147l-0.04,0.187h-1.379c-0.02-0.097-0.027-0.19-0.02-0.277
		c0-0.086,0.006-0.183,0.025-0.293c-0.221,0.19-0.459,0.35-0.713,0.487c-0.307,0.156-0.634,0.236-0.98,0.236
		c-0.44,0-0.78-0.127-1.013-0.381c-0.234-0.249-0.3-0.605-0.201-1.065c0.128-0.601,0.447-1.034,0.968-1.301
		c0.28-0.147,0.68-0.25,1.181-0.313L378.084,20.319z M378.731,20.912c-0.094,0.054-0.181,0.094-0.267,0.123
		c-0.093,0.034-0.214,0.061-0.361,0.087l-0.292,0.054c-0.28,0.05-0.487,0.106-0.62,0.177c-0.221,0.113-0.354,0.293-0.401,0.54
		c-0.052,0.217-0.025,0.373,0.074,0.47c0.101,0.097,0.24,0.144,0.413,0.144c0.273,0,0.54-0.08,0.807-0.24
		c0.26-0.159,0.447-0.453,0.548-0.88L378.731,20.912z"/>
	<path fill="#FFFFFF" d="M386.326,18.305l-0.277,1.303c-0.077-0.006-0.147-0.013-0.21-0.016c-0.062-0.003-0.113-0.003-0.153-0.003
		c-0.511,0-0.888,0.167-1.137,0.5c-0.137,0.186-0.247,0.473-0.331,0.863l-0.49,2.327h-1.282l1.033-4.867h1.214l-0.181,0.85
		c0.267-0.323,0.483-0.546,0.653-0.667c0.283-0.197,0.612-0.296,0.994-0.296c0.025,0,0.046,0,0.06,0
		C386.238,18.302,386.272,18.302,386.326,18.305z"/>
	<path fill="#FFFFFF" d="M391.289,18.408c0.283,0.13,0.483,0.364,0.603,0.708l0.147-0.704h1.236l-0.982,4.617
		c-0.13,0.627-0.334,1.1-0.614,1.42c-0.48,0.547-1.233,0.82-2.267,0.82c-0.62,0-1.1-0.12-1.44-0.366
		c-0.343-0.244-0.482-0.607-0.423-1.094h1.384c0.006,0.149,0.04,0.256,0.105,0.323c0.113,0.116,0.334,0.173,0.657,0.173
		c0.457,0,0.797-0.153,1.017-0.46c0.144-0.196,0.265-0.526,0.361-0.99l0.068-0.313c-0.165,0.21-0.332,0.364-0.496,0.471
		c-0.294,0.193-0.643,0.29-1.047,0.29c-0.626,0-1.079-0.22-1.359-0.66c-0.28-0.437-0.34-1.033-0.178-1.783
		c0.15-0.724,0.461-1.331,0.923-1.824c0.468-0.49,1.035-0.736,1.695-0.736C390.918,18.299,391.126,18.335,391.289,18.408z
		 M391.516,20.826c0.096-0.463,0.076-0.814-0.066-1.053c-0.144-0.244-0.376-0.364-0.704-0.364c-0.447,0-0.799,0.21-1.06,0.63
		c-0.138,0.224-0.24,0.497-0.313,0.827c-0.06,0.28-0.06,0.533-0.014,0.754c0.087,0.409,0.351,0.616,0.798,0.616
		c0.297,0,0.569-0.113,0.823-0.337C391.232,21.672,391.413,21.315,391.516,20.826z"/>
	<path fill="#FFFFFF" d="M399.934,19.232c0.133,0.287,0.184,0.624,0.155,1.003c-0.009,0.224-0.065,0.543-0.162,0.964h-3.328
		c-0.085,0.486-0.006,0.829,0.241,1.026c0.146,0.123,0.347,0.184,0.594,0.184c0.26,0,0.492-0.073,0.686-0.224
		c0.107-0.079,0.207-0.193,0.311-0.333h1.297c-0.094,0.286-0.307,0.58-0.637,0.877c-0.518,0.473-1.149,0.71-1.903,0.71
		c-0.616,0-1.12-0.2-1.508-0.597c-0.39-0.4-0.489-1.048-0.3-1.947c0.181-0.843,0.531-1.487,1.054-1.938
		c0.521-0.45,1.123-0.673,1.805-0.673c0.402,0,0.756,0.073,1.045,0.227C399.576,18.662,399.794,18.902,399.934,19.232z
		 M396.806,20.359h1.98c0.051-0.337,0-0.59-0.146-0.763c-0.147-0.177-0.354-0.264-0.626-0.264c-0.294,0-0.541,0.094-0.741,0.276
		C397.069,19.795,396.916,20.045,396.806,20.359z"/>
	<path fill="#FFFFFF" d="M408.688,23.449c-0.837,0-1.406-0.253-1.706-0.76c-0.305-0.511-0.382-1.121-0.227-1.834
		c0.145-0.704,0.481-1.31,1.002-1.827c0.523-0.513,1.2-0.77,2.038-0.77c0.832,0,1.402,0.257,1.702,0.77
		c0.305,0.518,0.376,1.124,0.231,1.827c-0.155,0.713-0.487,1.323-1.008,1.834C410.2,23.196,409.521,23.449,408.688,23.449z
		 M410.391,20.855c0.104-0.487,0.084-0.863-0.061-1.127c-0.142-0.263-0.402-0.396-0.772-0.396c-0.374,0-0.688,0.133-0.943,0.396
		c-0.254,0.264-0.433,0.64-0.54,1.127c-0.104,0.486-0.084,0.863,0.06,1.131c0.146,0.263,0.404,0.396,0.773,0.396
		c0.373,0,0.687-0.134,0.944-0.396C410.107,21.719,410.287,21.342,410.391,20.855z"/>
	<path fill="#FFFFFF" d="M417.814,18.305l-0.272,1.303c-0.081-0.006-0.146-0.013-0.214-0.016c-0.06-0.003-0.11-0.003-0.15-0.003
		c-0.51,0-0.89,0.167-1.136,0.5c-0.141,0.186-0.248,0.473-0.334,0.863l-0.486,2.327h-1.284l1.03-4.867h1.214l-0.177,0.85
		c0.264-0.323,0.482-0.546,0.649-0.667c0.288-0.197,0.617-0.296,0.996-0.296c0.025,0,0.045,0,0.062,0
		C417.729,18.302,417.761,18.302,417.814,18.305z"/>
	<path fill="#FFFFFF" d="M423.379,19.028l0.49-2.32h1.29l-1.392,6.571h-1.239l0.146-0.674c-0.246,0.287-0.499,0.497-0.759,0.63
		c-0.261,0.131-0.561,0.197-0.908,0.197c-0.566,0-1-0.23-1.286-0.69c-0.294-0.46-0.359-1.05-0.206-1.77
		c0.176-0.831,0.507-1.483,0.99-1.96c0.482-0.477,1.046-0.713,1.683-0.713c0.297,0,0.546,0.063,0.747,0.193
		C423.136,18.622,423.282,18.802,423.379,19.028z M423.012,20.919c0.124-0.597,0.064-1.023-0.176-1.277
		c-0.153-0.157-0.354-0.233-0.594-0.233c-0.374,0-0.677,0.14-0.91,0.423c-0.233,0.28-0.397,0.63-0.483,1.047
		c-0.097,0.446-0.087,0.807,0.034,1.077c0.119,0.27,0.359,0.403,0.719,0.403c0.36,0,0.663-0.134,0.906-0.4
		C422.755,21.688,422.922,21.342,423.012,20.919z"/>
	<path fill="#FFFFFF" d="M431.422,19.232c0.135,0.287,0.187,0.624,0.161,1.003c-0.014,0.224-0.067,0.543-0.164,0.964h-3.329
		c-0.088,0.486-0.008,0.829,0.24,1.026c0.149,0.123,0.346,0.184,0.592,0.184c0.264,0,0.493-0.073,0.69-0.224
		c0.103-0.079,0.207-0.193,0.312-0.333h1.296c-0.098,0.286-0.311,0.58-0.637,0.877c-0.521,0.473-1.154,0.71-1.904,0.71
		c-0.617,0-1.123-0.2-1.51-0.597c-0.387-0.4-0.486-1.048-0.3-1.947c0.18-0.843,0.533-1.487,1.054-1.938
		c0.521-0.45,1.126-0.673,1.806-0.673c0.404,0,0.754,0.073,1.048,0.227C431.07,18.662,431.283,18.902,431.422,19.232z
		 M428.299,20.359h1.977c0.054-0.337,0.005-0.59-0.143-0.763c-0.149-0.177-0.356-0.264-0.631-0.264c-0.294,0-0.54,0.094-0.739,0.276
		C428.563,19.795,428.409,20.045,428.299,20.359z"/>
	<path fill="#FFFFFF" d="M437.53,18.305l-0.28,1.303c-0.073-0.006-0.147-0.013-0.207-0.016c-0.063-0.003-0.113-0.003-0.153-0.003
		c-0.513,0-0.891,0.167-1.14,0.5c-0.134,0.186-0.247,0.473-0.326,0.863l-0.495,2.327h-1.279l1.033-4.867h1.214l-0.181,0.85
		c0.268-0.323,0.48-0.546,0.653-0.667c0.28-0.197,0.614-0.296,0.994-0.296c0.027,0,0.047,0,0.06,0
		C437.439,18.302,437.477,18.302,437.53,18.305z"/>
	<path fill="#FFFFFF" d="M440.363,21.726c-0.02,0.227,0.007,0.387,0.08,0.483c0.117,0.17,0.387,0.254,0.814,0.254
		c0.252,0,0.459-0.037,0.62-0.114c0.166-0.072,0.263-0.183,0.297-0.333c0.028-0.143-0.011-0.25-0.11-0.327
		c-0.107-0.073-0.521-0.199-1.248-0.383c-0.521-0.137-0.872-0.306-1.053-0.514c-0.187-0.203-0.233-0.493-0.153-0.874
		c0.097-0.45,0.354-0.836,0.773-1.16c0.424-0.324,0.953-0.483,1.593-0.483c0.606,0,1.073,0.12,1.407,0.363
		c0.331,0.244,0.461,0.664,0.394,1.257h-1.273c0.014-0.164-0.007-0.293-0.06-0.386c-0.1-0.174-0.32-0.26-0.66-0.26
		c-0.274,0-0.48,0.043-0.617,0.13c-0.136,0.086-0.217,0.187-0.237,0.303c-0.033,0.147,0.008,0.25,0.121,0.317
		c0.105,0.066,0.526,0.187,1.246,0.354c0.48,0.116,0.82,0.296,1.024,0.54c0.199,0.244,0.26,0.546,0.182,0.914
		c-0.105,0.483-0.365,0.877-0.79,1.18c-0.422,0.307-1.01,0.46-1.756,0.46c-0.767,0-1.296-0.163-1.593-0.486
		s-0.394-0.733-0.288-1.233H440.363z"/>
	<path fill="#FFFFFF" d="M446.218,21.949h1.353l-0.28,1.33h-1.353L446.218,21.949z"/>
</g>
</svg>
