<?xml version="1.0" encoding="utf-8"?>
<!-- Generator: Adobe Illustrator 16.0.0, SVG Export Plug-In . SVG Version: 6.00 Build 0)  -->
<!DOCTYPE svg PUBLIC "-//W3C//DTD SVG 1.1//EN" "http://www.w3.org/Graphics/SVG/1.1/DTD/svg11.dtd">
<svg version="1.1" id="Layer_1" xmlns="http://www.w3.org/2000/svg" xmlns:xlink="http://www.w3.org/1999/xlink" x="0px" y="0px"
	 width="50px" height="20px" viewBox="0 0 50 20" enable-background="new 0 0 50 20" xml:space="preserve">
<g>
	<path fill="#231F20" d="M17.112,19.98l-0.234-0.664c-0.94-2.672,0.456-5.49,2.595-7.859c-0.639,0.316-1.229,0.34-1.779,0.07
		c-0.449-0.205-0.776-0.563-0.933-1.031c-0.053-0.154-0.085-0.317-0.101-0.486c-0.829,1.072-1.704,1.826-2.602,1.951
		c-0.429,0.055-1.07-0.014-1.673-0.672c-0.923-0.929-0.295-2.161,0.12-2.976c0.086-0.168,0.168-0.328,0.231-0.475
		c0.102-0.313,0.351-1.348,0.403-1.947c-2.171,1.203-4.007,3.777-5.224,5.654L7.02,11.08c0.363-0.904,1.051-1.716,1.716-2.5
		c0.891-1.054,1.738-2.054,1.794-3.187c-1.025-0.1-2.114,0.602-3.081,1.594C6.996,7.776,6.374,8.633,5.761,9.479
		c-0.438,0.604-0.889,1.226-1.087,1.587c-0.034,0.074-0.066,0.145-0.098,0.215L3.636,10.9c0.031-0.084,0.074-0.18,0.128-0.283
		C4.292,9.512,5.314,7.77,6.607,6.405c0.498-0.846,0.668-1.348,0.508-1.494c-0.06-0.039-0.232-0.133-0.543-0.064
		C5.556,5.073,4.211,6.698,3.861,7.341L2.97,6.857C3.327,6.202,4.853,4.19,6.351,3.856c0.517-0.113,1.008-0.022,1.408,0.271
		C8.041,4.387,8.153,4.717,8.14,5.1c0.947-0.613,1.974-0.911,3.021-0.618l0.332,0.093l0.036,0.343
		c0.03,0.29,0.024,0.569-0.014,0.839c0.507-0.391,1.038-0.729,1.59-0.985c0.286-0.134,0.582-0.096,0.79,0.103
		c0.69,0.656-0.213,3.332-0.223,3.357c-0.074,0.174-0.167,0.354-0.263,0.543c-0.415,0.814-0.679,1.423-0.29,1.814
		c0.347,0.379,0.622,0.389,0.805,0.365c1.334-0.178,3.014-3.076,3.894-4.73c0.086-0.166,0.169-0.322,0.248-0.47
		c0.048-0.093,0.093-0.18,0.132-0.256l0.226-0.432l0.903,0.46c-0.076,0.16-0.187,0.369-0.316,0.611
		c-0.023,0.043-0.047,0.088-0.071,0.133c-0.049,0.096-0.099,0.188-0.148,0.282c-0.557,1.071-1.361,2.758-1.069,3.62
		c0.069,0.203,0.198,0.341,0.408,0.439c0.504,0.246,1.966,0.201,5.01-5.389l0,0c0.009-0.015,0.017-0.031,0.025-0.047l0.893,0.483
		c0,0.001,0,0.001-0.002,0.001l0,0v0.001c-0.461,0.85-0.848,1.811-1.207,2.793c1.238-0.898,2.472-1.615,3.507-2.076
		c1.567-0.718,3.293-1.512,4.328-0.808c0.163,0.11,0.3,0.253,0.408,0.423c0.52-0.848,1.027-1.736,1.519-2.598
		c0.709-1.246,1.38-2.424,2.035-3.375l0.863,0.531c-0.229,0.422-0.467,0.84-0.701,1.26c-0.758,1.348-1.543,2.742-2.089,4.183
		c-0.286,0.752-0.693,2.596-0.763,3.558c0.295-0.336,0.669-0.829,1.016-1.282c1.457-1.911,2.483-3.167,3.452-3.206
		c0.356-0.018,0.622,0.121,0.813,0.371c0.191,0.252,0.271,0.615,0.266,1.065c0.674-0.662,1.576-1.241,2.358-0.83
		c0.315,0.165,0.521,0.408,0.645,0.702c0.616-0.816,1.229-1.112,1.861-0.934c0.421,0.119,0.727,0.353,0.907,0.691
		c0.377,0.707,0.079,1.63-0.186,2.442c-0.103,0.316-0.243,0.749-0.228,0.896c0.048,0.411,0.159,0.597,0.248,0.634
		c0.429,0.188,1.729-0.822,2.283-1.253c0.233-0.183,0.445-0.347,0.617-0.466l0.576,0.835c-0.16,0.11-0.354,0.265-0.571,0.432
		c-1.031,0.802-2.315,1.801-3.298,1.387c-0.486-0.203-0.777-0.695-0.861-1.456c-0.043-0.366,0.103-0.811,0.27-1.322
		c0.18-0.559,0.428-1.325,0.253-1.653c-0.028-0.056-0.092-0.137-0.29-0.193c-0.028-0.012-0.602-0.143-1.641,2.113
		c-0.231,0.863-0.618,1.74-0.9,2.384c-0.074,0.17-0.138,0.313-0.18,0.418l-0.95-0.35c0.361-1.083,0.71-2,1.051-2.759
		c0.304-1.118,0.159-1.528-0.078-1.652c-0.345-0.186-1.361,0.703-1.895,1.523c-0.153,0.239-0.295,0.494-0.421,0.762
		c-0.124,0.453-0.27,0.934-0.422,1.43l-0.185,0.607l-0.988-0.219c0.117-0.755,0.333-1.484,0.634-2.151
		c0.277-1.032,0.527-2.19,0.317-2.47C35.9,6.1,34.519,7.911,33.775,8.885c-0.785,1.029-1.287,1.673-1.692,1.919
		c-0.288,0.174-0.6,0.166-0.829-0.027c-0.489-0.407-0.304-1.861-0.029-3.119c-1.718,2.56-3.645,4.496-5.905,3.906
		c-1.425-0.371-1.318-1.354-1.251-1.644c0.154-0.676,0.893-1.484,1.842-2.195c-1.179,0.623-2.473,1.483-3.682,2.49
		c-0.368,1.056-0.75,2.132-1.203,3.117c-0.2,0.457-0.387,0.973-0.579,1.5c-0.608,1.67-1.299,3.564-2.779,4.715L17.112,19.98z
		 M20.601,11.725c-1.914,1.988-3.27,4.307-2.96,6.457c0.865-0.984,1.366-2.357,1.853-3.697c0.201-0.551,0.395-1.082,0.606-1.564
		C20.276,12.533,20.441,12.133,20.601,11.725z M30,6.965c-1.425,0-4.684,2.046-4.942,3.18c-0.024,0.1-0.065,0.285,0.515,0.437
		c1.69,0.439,3.3-1.228,4.802-3.472c0-0.014,0-0.027-0.002-0.042c-0.03-0.059-0.088-0.07-0.154-0.083
		C30.152,6.971,30.078,6.965,30,6.965z"/>
</g>
</svg>
