<?xml version="1.0" encoding="utf-8"?>
<!-- Generator: Adobe Illustrator 16.0.0, SVG Export Plug-In . SVG Version: 6.00 Build 0)  -->
<!DOCTYPE svg PUBLIC "-//W3C//DTD SVG 1.1//EN" "http://www.w3.org/Graphics/SVG/1.1/DTD/svg11.dtd">
<svg version="1.1" id="Layer_1" xmlns="http://www.w3.org/2000/svg" xmlns:xlink="http://www.w3.org/1999/xlink" x="0px" y="0px"
	 width="40px" height="40px" viewBox="0 0 40 40" enable-background="new 0 0 40 40" xml:space="preserve">
<g>
	<path fill="#656262" d="M19.995,2.539c-9.683,0-17.548,7.872-17.548,17.545c0,9.674,7.866,17.546,17.548,17.546
		c9.682,0,17.54-7.872,17.54-17.546C37.535,10.411,29.677,2.539,19.995,2.539 M19.995,39.041c-10.444,0-18.948-8.509-18.948-18.957
		c0-10.446,8.504-18.945,18.948-18.945c10.431,0,18.95,8.499,18.95,18.945C38.945,30.532,30.426,39.041,19.995,39.041"/>
	<path fill="#656262" d="M21.093,30.866H17.04v-9.538h-2.025v-3.281h2.025v-1.982c0-2.676,1.141-4.277,4.391-4.277h2.691v3.303
		h-1.69c-1.258,0-1.339,0.447-1.339,1.297v1.658h3.052l-0.358,3.281h-2.693V30.866z"/>
</g>
</svg>
