<?xml version="1.0" encoding="utf-8"?>
<!-- Generator: Adobe Illustrator 16.0.0, SVG Export Plug-In . SVG Version: 6.00 Build 0)  -->
<!DOCTYPE svg PUBLIC "-//W3C//DTD SVG 1.1//EN" "http://www.w3.org/Graphics/SVG/1.1/DTD/svg11.dtd">
<svg version="1.1" xmlns="http://www.w3.org/2000/svg" xmlns:xlink="http://www.w3.org/1999/xlink" x="0px" y="0px" width="120px"
	 height="22px" viewBox="0 0 120 22" enable-background="new 0 0 120 22" xml:space="preserve">
<g id="Layer_1">
</g>
<g id="Layer_2">
	<rect x="-0.001" y="0.056" fill="#656262" width="120.001" height="21.887"/>
	<rect x="98.114" y="0.056" fill="#12110C" width="21.883" height="21.887"/>
	
		<rect x="96.21" y="9.097" transform="matrix(0.7072 0.707 -0.707 0.7072 36.5015 -66.1454)" fill="#12110C" width="3.811" height="3.805"/>
	<path fill="#FFFFFF" d="M114.834,16.091h-10.519V7.594h10.519V16.091z M109.575,4.425c1.184,0,2.142,0.959,2.15,2.139h-4.301
		C107.437,5.385,108.391,4.425,109.575,4.425 M112.781,6.564c-0.009-1.761-1.444-3.192-3.206-3.192
		c-1.767,0-3.194,1.431-3.203,3.192h-3.082v10.554h12.567V6.564H112.781z"/>
	<g>
		<path fill="#FFFFFF" d="M21.45,12.746l-0.787,2.384H19.65l2.575-7.58h1.181l2.587,7.58h-1.046l-0.81-2.384H21.45z M23.936,11.981
			l-0.742-2.182c-0.169-0.495-0.281-0.944-0.394-1.383h-0.023c-0.112,0.45-0.235,0.911-0.382,1.372l-0.742,2.193H23.936z"/>
		<path fill="#FFFFFF" d="M27.109,7.651c0.597-0.09,1.305-0.157,2.081-0.157c1.405,0,2.406,0.326,3.07,0.944
			c0.675,0.619,1.068,1.496,1.068,2.722c0,1.237-0.383,2.249-1.091,2.946c-0.709,0.709-1.879,1.091-3.352,1.091
			c-0.697,0-1.282-0.033-1.777-0.09V7.651z M28.088,14.354c0.248,0.045,0.607,0.057,0.99,0.057c2.092,0,3.228-1.17,3.228-3.216
			c0.011-1.789-1.001-2.924-3.07-2.924c-0.506,0-0.889,0.045-1.147,0.101V14.354z"/>
		<path fill="#FFFFFF" d="M34.603,7.651c0.596-0.09,1.305-0.157,2.08-0.157c1.406,0,2.407,0.326,3.07,0.944
			c0.675,0.619,1.068,1.496,1.068,2.722c0,1.237-0.382,2.249-1.091,2.946c-0.708,0.709-1.878,1.091-3.352,1.091
			c-0.697,0-1.281-0.033-1.776-0.09V7.651z M35.581,14.354c0.247,0.045,0.607,0.057,0.989,0.057c2.092,0,3.228-1.17,3.228-3.216
			c0.012-1.789-1.001-2.924-3.07-2.924c-0.506,0-0.888,0.045-1.146,0.101V14.354z"/>
		<path fill="#FFFFFF" d="M45.459,8.382h-2.306V7.55h5.612v0.832h-2.317v6.748h-0.989V8.382z"/>
		<path fill="#FFFFFF" d="M55.785,11.262c0,2.608-1.586,3.992-3.52,3.992c-2.002,0-3.408-1.552-3.408-3.847
			c0-2.406,1.496-3.98,3.521-3.98C54.447,7.427,55.785,9.012,55.785,11.262z M49.903,11.385c0,1.62,0.877,3.07,2.418,3.07
			c1.552,0,2.429-1.428,2.429-3.148c0-1.507-0.787-3.082-2.417-3.082C50.713,8.225,49.903,9.721,49.903,11.385z"/>
		<path fill="#FFFFFF" d="M59.444,7.651c0.428-0.09,1.102-0.157,1.788-0.157c0.979,0,1.608,0.168,2.08,0.551
			c0.394,0.292,0.63,0.742,0.63,1.338c0,0.731-0.483,1.372-1.282,1.665v0.022c0.72,0.18,1.563,0.775,1.563,1.9
			c0,0.652-0.259,1.147-0.641,1.519c-0.529,0.483-1.384,0.708-2.62,0.708c-0.675,0-1.192-0.045-1.519-0.09V7.651z M60.423,10.755
			h0.889c1.034,0,1.642-0.54,1.642-1.271c0-0.888-0.675-1.237-1.665-1.237c-0.449,0-0.708,0.034-0.865,0.067V10.755z M60.423,14.388
			c0.191,0.034,0.472,0.045,0.82,0.045c1.013,0,1.946-0.371,1.946-1.474c0-1.034-0.889-1.462-1.957-1.462h-0.81V14.388z"/>
		<path fill="#FFFFFF" d="M66.769,12.746l-0.787,2.384h-1.013l2.575-7.58h1.181l2.587,7.58h-1.046l-0.81-2.384H66.769z
			 M69.254,11.981l-0.742-2.182c-0.169-0.495-0.281-0.944-0.394-1.383h-0.023c-0.112,0.45-0.235,0.911-0.382,1.372l-0.742,2.193
			H69.254z"/>
		<path fill="#FFFFFF" d="M78.028,14.793c-0.438,0.157-1.305,0.416-2.328,0.416c-1.146,0-2.092-0.293-2.834-1.001
			c-0.652-0.63-1.057-1.643-1.057-2.823c0.011-2.26,1.563-3.913,4.104-3.913c0.877,0,1.563,0.191,1.889,0.349l-0.235,0.798
			c-0.405-0.18-0.911-0.326-1.676-0.326c-1.845,0-3.048,1.147-3.048,3.047c0,1.923,1.158,3.059,2.924,3.059
			c0.641,0,1.08-0.09,1.305-0.202v-2.26h-1.541v-0.788h2.497V14.793z"/>
	</g>
</g>
</svg>
