<?xml version="1.0" encoding="utf-8"?>
<!-- Generator: Adobe Illustrator 16.0.0, SVG Export Plug-In . SVG Version: 6.00 Build 0)  -->
<!DOCTYPE svg PUBLIC "-//W3C//DTD SVG 1.1//EN" "http://www.w3.org/Graphics/SVG/1.1/DTD/svg11.dtd">
<svg version="1.1" id="Layer_1" xmlns="http://www.w3.org/2000/svg" xmlns:xlink="http://www.w3.org/1999/xlink" x="0px" y="0px"
	 width="40px" height="40px" viewBox="0 0 40 40" enable-background="new 0 0 40 40" xml:space="preserve">
<g display="none">
	<path display="inline" fill="#656262" d="M19.995,2.539c-9.683,0-17.548,7.872-17.548,17.545c0,9.674,7.866,17.546,17.548,17.546
		c9.682,0,17.54-7.872,17.54-17.546C37.535,10.411,29.677,2.539,19.995,2.539 M19.995,39.041c-10.444,0-18.948-8.509-18.948-18.957
		c0-10.446,8.504-18.945,18.948-18.945c10.431,0,18.95,8.499,18.95,18.945C38.945,30.532,30.426,39.041,19.995,39.041"/>
	<path display="inline" fill="#656262" d="M21.093,30.866H17.04v-9.538h-2.025v-3.281h2.025v-1.982c0-2.676,1.141-4.277,4.391-4.277
		h2.691v3.303h-1.69c-1.258,0-1.339,0.447-1.339,1.297v1.658h3.052l-0.358,3.281h-2.693V30.866z"/>
</g>
<g display="none">
	<path display="inline" fill="#656262" d="M19.929,2.537c-9.657,0-17.531,7.863-17.531,17.528c0,9.664,7.875,17.528,17.531,17.528
		c9.658,0,17.521-7.864,17.521-17.528C37.45,10.4,29.587,2.537,19.929,2.537 M19.929,39.001C9.496,39.001,1,30.501,1,20.065
		S9.496,1.139,19.929,1.139c10.441,0,18.931,8.49,18.931,18.926S30.37,39.001,19.929,39.001"/>
	<path display="inline" fill="#656262" d="M26.991,15.792c0.734-0.47,1.31-1.197,1.568-2.081c-0.695,0.437-1.445,0.75-2.256,0.917
		c-0.665-0.727-1.593-1.186-2.61-1.186c-1.97,0-3.575,1.678-3.575,3.758c0,0.292,0.031,0.582,0.092,0.862
		c-2.962-0.157-5.602-1.656-7.352-3.938c-0.31,0.56-0.494,1.197-0.494,1.891c0,1.309,0.644,2.461,1.6,3.132
		c-0.585-0.011-1.141-0.179-1.629-0.47v0.056c0,1.823,1.246,3.344,2.876,3.691c-0.298,0.09-0.62,0.135-0.957,0.135
		c-0.236,0-0.439-0.022-0.657-0.067c0.443,1.488,1.755,2.582,3.343,2.604c-1.238,1.02-2.764,1.623-4.438,1.623
		c-0.297,0-0.578-0.021-0.861-0.055c1.588,1.062,3.455,1.688,5.465,1.688c6.58,0,10.16-5.726,10.16-10.715
		c0-0.156,0-0.325-0.012-0.48c0.708-0.538,1.304-1.198,1.793-1.947C28.395,15.501,27.718,15.714,26.991,15.792"/>
</g>
<g>
	<path fill="#656262" d="M19.997,2.542c-9.712,0-17.604,7.893-17.604,17.593c0,9.7,7.893,17.593,17.604,17.593
		c9.695,0,17.587-7.893,17.587-17.593C37.584,10.435,29.691,2.542,19.997,2.542 M19.997,39.144C9.521,39.144,1,30.61,1,20.136
		C1,9.661,9.521,1.139,19.997,1.139c10.463,0,18.991,8.521,18.991,18.997C38.987,30.61,30.46,39.144,19.997,39.144"/>
	<path fill="#656262" d="M10.001,20.136c0,4.087,2.473,7.601,5.984,9.15c-0.022-0.708-0.005-1.538,0.177-2.291
		c0.191-0.819,1.283-5.445,1.283-5.445s-0.323-0.64-0.323-1.583c0-1.471,0.865-2.571,1.92-2.571c0.904,0,1.358,0.674,1.358,1.482
		c0,0.921-0.572,2.279-0.887,3.56c-0.241,1.044,0.528,1.908,1.571,1.908c1.897,0,3.161-2.425,3.161-5.299
		c0-2.189-1.466-3.817-4.137-3.817c-3.026,0-4.918,2.245-4.918,4.771c0,0.864,0.247,1.481,0.663,1.965
		c0.177,0.213,0.202,0.292,0.132,0.55c-0.045,0.18-0.154,0.617-0.202,0.797c-0.067,0.259-0.28,0.337-0.505,0.259
		c-1.378-0.584-2.035-2.1-2.035-3.817c0-2.829,2.38-6.242,7.141-6.242c3.801,0,6.299,2.762,6.299,5.726
		c0,3.907-2.167,6.838-5.361,6.838c-1.089,0-2.105-0.584-2.459-1.247c0,0-0.572,2.302-0.685,2.74
		c-0.225,0.774-0.634,1.549-1.013,2.144c0.89,0.259,1.838,0.404,2.826,0.404c5.507,0,9.987-4.457,9.987-9.98
		c0-5.513-4.479-9.981-9.987-9.981C14.478,10.155,10.001,14.623,10.001,20.136"/>
</g>
</svg>
