<?xml version="1.0" encoding="utf-8"?>
<!-- Generator: Adobe Illustrator 16.0.0, SVG Export Plug-In . SVG Version: 6.00 Build 0)  -->
<!DOCTYPE svg PUBLIC "-//W3C//DTD SVG 1.1//EN" "http://www.w3.org/Graphics/SVG/1.1/DTD/svg11.dtd">
<svg version="1.1" id="Layer_1" xmlns="http://www.w3.org/2000/svg" xmlns:xlink="http://www.w3.org/1999/xlink" x="0px" y="0px"
	 width="112px" height="25px" viewBox="0 0 112 25" enable-background="new 0 0 112 25" xml:space="preserve">
<g>
	<path fill="#FFFFFF" d="M3.142,22.799c0.336,0.309,0.728,0.448,1.176,0.42c0.447-0.027,0.896-0.147,1.344-0.357
		c0.448-0.21,0.882-0.454,1.302-0.734c0.42-0.28,0.77-0.532,1.05-0.756c0.98-0.7,1.875-1.442,2.688-2.227
		c0.588-0.56,0.98-0.972,1.176-1.239c0.195-0.266,0.434-0.37,0.714-0.314c0.224,0.057,0.342,0.146,0.357,0.273
		c0.014,0.125-0.028,0.259-0.126,0.398c-0.099,0.141-0.217,0.273-0.357,0.398c-0.141,0.127-0.238,0.218-0.294,0.273
		c-0.448,0.448-0.91,0.875-1.386,1.281c-0.477,0.406-0.952,0.805-1.428,1.197c-0.42,0.336-0.896,0.692-1.428,1.07
		c-0.532,0.378-1.092,0.714-1.68,1.008c-0.588,0.295-1.19,0.505-1.806,0.631c-0.616,0.126-1.205,0.09-1.764-0.105
		c-0.42-0.168-0.742-0.398-0.966-0.693c-0.224-0.294-0.378-0.615-0.462-0.966c-0.084-0.35-0.105-0.728-0.063-1.134
		c0.042-0.405,0.133-0.791,0.273-1.154c0.42-1.12,1.071-2.143,1.953-3.066c0.882-0.924,1.813-1.708,2.793-2.352
		c0.252-0.168,0.574-0.364,0.966-0.589c0.392-0.224,0.791-0.405,1.197-0.546c0.406-0.14,0.805-0.195,1.197-0.168
		c0.392,0.028,0.728,0.196,1.008,0.504c0.168,0.225,0.259,0.469,0.273,0.735c0.014,0.267-0.028,0.524-0.126,0.776
		c-0.099,0.252-0.225,0.504-0.378,0.756c-0.154,0.252-0.301,0.463-0.441,0.631c-0.084,0.111-0.196,0.245-0.336,0.398
		c-0.141,0.154-0.28,0.246-0.42,0.273c-0.224,0.057-0.385-0.027-0.483-0.252s-0.035-0.406,0.189-0.547
		c0.112-0.084,0.266-0.223,0.462-0.42c0.195-0.195,0.371-0.412,0.525-0.65c0.153-0.238,0.245-0.469,0.273-0.693
		c0.027-0.224-0.07-0.392-0.294-0.504l0.042-0.042c-0.393-0.195-0.819-0.195-1.281,0c-0.462,0.196-0.91,0.47-1.344,0.819
		c-0.435,0.351-0.84,0.729-1.218,1.134c-0.378,0.406-0.666,0.735-0.861,0.987c-0.225,0.252-0.519,0.616-0.882,1.092
		c-0.364,0.477-0.687,0.98-0.966,1.512c-0.28,0.533-0.469,1.058-0.567,1.575c-0.099,0.519,0.021,0.96,0.357,1.323
		C3.1,22.785,3.113,22.799,3.142,22.799z M3.142,22.799c-0.028,0-0.042-0.014-0.042-0.042L3.142,22.799z"/>
	<path fill="#FFFFFF" d="M19.269,14.021c0.084,0.028,0.182,0.099,0.294,0.21c0.14-0.056,0.273-0.098,0.399-0.126
		c0.126-0.027,0.258-0.027,0.399,0c0.504,0.084,0.784,0.322,0.84,0.715c0.056,0.392-0.014,0.84-0.21,1.344
		c-0.196,0.504-0.477,1.035-0.84,1.596c-0.364,0.561-0.7,1.05-1.008,1.47c0.112,0.028,0.217,0.05,0.315,0.063
		s0.217,0.021,0.357,0.021c0.308,0,0.609-0.063,0.903-0.188c0.294-0.127,0.567-0.273,0.819-0.441
		c0.224-0.14,0.441-0.321,0.651-0.546c0.21-0.224,0.399-0.42,0.567-0.588c0.195-0.196,0.357-0.245,0.483-0.147
		c0.126,0.099,0.132,0.302,0.021,0.609c-0.057,0.196-0.231,0.441-0.525,0.734c-0.294,0.295-0.525,0.498-0.693,0.609
		c-0.476,0.336-1.008,0.582-1.596,0.735c-0.588,0.154-1.162,0.104-1.722-0.147c-0.056,0-0.084-0.014-0.084-0.041l-0.252,0.293
		c-0.28,0.309-0.63,0.693-1.05,1.155c-0.42,0.462-0.875,0.89-1.365,1.281c-0.49,0.393-1.001,0.692-1.533,0.903
		c-0.532,0.21-1.05,0.202-1.554-0.021c-0.672-0.279-1.057-0.707-1.155-1.281c-0.098-0.573-0.042-1.183,0.168-1.826
		c0.21-0.645,0.497-1.261,0.861-1.849c0.363-0.588,0.686-1.05,0.966-1.386c0.504-0.588,1.064-1.155,1.68-1.701
		c0.616-0.546,1.288-0.973,2.016-1.281c0.279-0.14,0.581-0.23,0.903-0.273C18.646,13.874,18.961,13.909,19.269,14.021z
		 M17.673,16.751c0.084-0.252,0.21-0.553,0.378-0.903c0.168-0.35,0.378-0.665,0.63-0.944c-0.336,0.056-0.666,0.188-0.987,0.398
		c-0.322,0.21-0.63,0.462-0.924,0.756c-0.294,0.294-0.56,0.588-0.798,0.882c-0.238,0.294-0.441,0.54-0.609,0.735
		c-0.336,0.393-0.645,0.818-0.924,1.281c-0.28,0.461-0.519,0.931-0.714,1.406c-0.028,0.084-0.077,0.225-0.147,0.42
		c-0.07,0.196-0.126,0.406-0.168,0.631c-0.042,0.224-0.07,0.434-0.084,0.63c-0.014,0.196,0.021,0.309,0.105,0.336
		c0.28,0.252,0.63,0.309,1.05,0.168c0.42-0.14,0.846-0.378,1.281-0.714c0.434-0.336,0.847-0.729,1.239-1.177
		c0.392-0.447,0.728-0.839,1.008-1.176c-0.309-0.363-0.483-0.79-0.525-1.28S17.505,17.228,17.673,16.751z M18.513,16.835
		c-0.141,0.363-0.21,0.721-0.21,1.07c0,0.352,0.084,0.638,0.252,0.861c0.168-0.195,0.371-0.455,0.609-0.777
		c0.238-0.321,0.455-0.657,0.651-1.008c0.195-0.35,0.35-0.699,0.462-1.05c0.111-0.35,0.126-0.651,0.042-0.903
		c-0.057-0.168-0.175-0.174-0.357-0.021c-0.183,0.154-0.378,0.356-0.588,0.608s-0.399,0.504-0.567,0.756
		S18.541,16.778,18.513,16.835z"/>
	<path fill="#FFFFFF" d="M34.557,15.448c-0.112,0.113-0.309,0.365-0.588,0.756c-0.28,0.393-0.603,0.855-0.966,1.387
		c-0.364,0.532-0.735,1.092-1.113,1.68s-0.721,1.135-1.029,1.639c-0.309,0.504-0.561,0.924-0.756,1.26s-0.266,0.519-0.21,0.546
		c0.308,0.112,0.644,0.112,1.008,0c0.363-0.111,0.714-0.287,1.05-0.525c0.336-0.237,0.651-0.489,0.945-0.756
		c0.294-0.266,0.552-0.482,0.777-0.651c1.092-0.924,2.1-1.932,3.024-3.023c0.14-0.14,0.322-0.182,0.546-0.126
		s0.308,0.21,0.252,0.462c-0.056,0.225-0.203,0.441-0.441,0.65c-0.238,0.211-0.427,0.386-0.567,0.525
		c-0.561,0.561-1.134,1.113-1.722,1.659s-1.204,1.058-1.848,1.533c-0.225,0.141-0.483,0.309-0.777,0.504
		c-0.294,0.196-0.609,0.356-0.945,0.482c-0.336,0.127-0.672,0.196-1.008,0.211c-0.336,0.014-0.63-0.092-0.882-0.315
		s-0.385-0.518-0.399-0.882c-0.015-0.363,0.027-0.749,0.126-1.155c0.098-0.405,0.231-0.791,0.399-1.154
		c0.168-0.364,0.308-0.658,0.42-0.883c0.224-0.392,0.462-0.777,0.714-1.154c0.252-0.379,0.531-0.75,0.84-1.113
		c-0.393,0.279-0.756,0.566-1.092,0.861c-0.336,0.293-0.672,0.595-1.008,0.902c-0.477,0.42-0.945,0.848-1.407,1.281
		c-0.462,0.434-0.931,0.861-1.407,1.281c-0.168,0.168-0.364,0.378-0.588,0.63c-0.225,0.252-0.462,0.504-0.714,0.756
		s-0.511,0.469-0.777,0.65c-0.266,0.183-0.525,0.273-0.777,0.273c-0.28-0.028-0.434-0.153-0.462-0.378
		c-0.028-0.224,0.021-0.497,0.147-0.819c0.126-0.321,0.3-0.672,0.525-1.05c0.224-0.378,0.455-0.741,0.693-1.092
		c0.238-0.35,0.455-0.658,0.651-0.924c0.195-0.266,0.336-0.441,0.42-0.525c0.308-0.476,0.636-0.959,0.987-1.449
		c0.35-0.489,0.679-0.986,0.987-1.49c0.056-0.111,0.119-0.231,0.189-0.357c0.069-0.126,0.147-0.23,0.231-0.314
		c-0.225,0.111-0.427,0.238-0.609,0.377c-0.182,0.141-0.357,0.281-0.525,0.42c-0.28,0.225-0.546,0.449-0.798,0.672
		c-0.252,0.225-0.49,0.449-0.714,0.673c-0.141,0.14-0.336,0.351-0.588,0.63c-0.252,0.28-0.448,0.477-0.588,0.588
		c-0.168,0.141-0.336,0.168-0.504,0.084s-0.224-0.237-0.168-0.462c0-0.084,0.084-0.217,0.252-0.399
		c0.168-0.182,0.28-0.301,0.336-0.356c0.42-0.448,0.861-0.875,1.323-1.281c0.462-0.405,0.945-0.79,1.449-1.155
		c0.168-0.111,0.392-0.258,0.672-0.44c0.279-0.183,0.56-0.315,0.84-0.399c0.279-0.084,0.525-0.084,0.735,0s0.343,0.336,0.399,0.756
		c0.056,0.309,0.042,0.609-0.042,0.903s-0.196,0.554-0.336,0.776c-0.364,0.645-0.784,1.24-1.26,1.785
		c-0.477,0.547-0.953,1.086-1.428,1.617c-0.28,0.309-0.553,0.596-0.819,0.861c-0.267,0.267-0.525,0.553-0.777,0.861l-0.546,0.63
		l0.546-0.546c0.308-0.252,0.595-0.511,0.861-0.777c0.266-0.266,0.525-0.539,0.777-0.818c0.56-0.532,1.106-1.051,1.638-1.555
		c0.531-0.504,1.078-0.994,1.638-1.47c0.476-0.392,0.973-0.784,1.491-1.177c0.518-0.391,1.057-0.741,1.617-1.049
		c0.168-0.084,0.399-0.176,0.693-0.273s0.552-0.119,0.777-0.063c0.196,0.056,0.315,0.168,0.357,0.336S34.696,15.31,34.557,15.448z"
		/>
	<path fill="#FFFFFF" d="M28.172,8.645c0.477-0.363,1.022-0.636,1.638-0.819c0.616-0.182,1.26-0.315,1.932-0.399
		c0.672-0.084,1.344-0.133,2.016-0.147c0.672-0.014,1.289-0.021,1.848-0.021c1.596-0.028,3.199-0.007,4.809,0.063
		c1.61,0.07,3.213,0.147,4.809,0.231c0.588-0.616,1.197-1.225,1.827-1.827c0.63-0.602,1.266-1.183,1.911-1.743
		c0.56-0.476,1.12-0.938,1.68-1.386c0.56-0.448,1.148-0.868,1.764-1.26c0.168-0.084,0.413-0.203,0.735-0.357
		c0.321-0.153,0.651-0.273,0.987-0.357s0.658-0.105,0.966-0.063c0.308,0.042,0.518,0.217,0.63,0.525
		c0.14,0.252,0.161,0.546,0.063,0.882c-0.099,0.336-0.252,0.672-0.462,1.008s-0.441,0.651-0.693,0.945
		c-0.252,0.294-0.448,0.525-0.588,0.693c-0.504,0.588-1.001,1.148-1.491,1.68c-0.49,0.532-1.016,1.064-1.575,1.596l3.906,0.126
		c0.728,0.057,1.456,0.091,2.184,0.105c0.728,0.015,1.456-0.006,2.185-0.063c0.308-0.027,0.629-0.042,0.966-0.042
		c0.336,0,0.672-0.027,1.008-0.084c0.168-0.027,0.42-0.084,0.756-0.168s0.573-0.056,0.714,0.084
		c0.195,0.196,0.203,0.364,0.021,0.504c-0.183,0.141-0.435,0.252-0.756,0.336c-0.322,0.084-0.645,0.147-0.967,0.189
		s-0.524,0.063-0.608,0.063c-0.813,0.112-1.61,0.168-2.394,0.168c-0.785,0-1.569,0-2.353,0c-0.98,0-1.939-0.021-2.877-0.063
		c-0.938-0.042-1.884-0.09-2.835-0.147c-1.68,1.625-3.402,3.192-5.166,4.704c-1.764,1.512-3.542,3.023-5.334,4.536
		c-0.336,0.532-0.651,1.071-0.945,1.617s-0.511,1.112-0.651,1.701c-0.14,0.56-0.09,0.931,0.147,1.112
		c0.238,0.183,0.546,0.252,0.924,0.21c0.378-0.042,0.777-0.153,1.197-0.336c0.42-0.182,0.756-0.356,1.008-0.524
		c0.672-0.448,1.302-0.938,1.89-1.471c0.588-0.531,1.162-1.092,1.722-1.68c0.14-0.14,0.3-0.314,0.483-0.525
		c0.182-0.209,0.357-0.385,0.525-0.524c0.224-0.168,0.427-0.168,0.609,0s0.175,0.364-0.021,0.588
		c-0.896,0.896-1.813,1.8-2.751,2.709c-0.938,0.91-1.981,1.646-3.129,2.205c-0.252,0.141-0.54,0.252-0.861,0.336
		c-0.322,0.084-0.645,0.133-0.966,0.147c-0.322,0.014-0.623-0.036-0.903-0.147s-0.518-0.321-0.714-0.63
		c-0.196-0.308-0.301-0.651-0.315-1.029s0.021-0.756,0.105-1.134s0.189-0.749,0.315-1.112c0.126-0.364,0.259-0.7,0.399-1.009
		c0.588-1.428,1.316-2.778,2.184-4.053c0.867-1.274,1.778-2.527,2.73-3.759c0.308-0.392,0.615-0.777,0.924-1.155
		c0.308-0.378,0.63-0.763,0.966-1.155c-1.344-0.084-2.674-0.153-3.99-0.21c-1.316-0.056-2.646-0.084-3.99-0.084
		c-0.699,0-1.399,0.015-2.1,0.042c-0.7,0.028-1.4,0.07-2.1,0.126c-0.532,0.057-1.099,0.133-1.701,0.231
		c-0.602,0.099-1.126,0.301-1.575,0.609c-0.112,0.084-0.238,0.119-0.378,0.105c-0.14-0.014-0.258-0.049-0.357-0.105
		c-0.098-0.056-0.147-0.14-0.147-0.252C27.962,8.869,28.033,8.757,28.172,8.645z M46.106,8.645c-1.708,2.1-3.333,4.341-4.872,6.72
		c0.644-0.56,1.281-1.127,1.911-1.701c0.63-0.572,1.267-1.154,1.911-1.742l3.36-3.15L46.106,8.645z M51.063,3.521
		c-0.729,0.645-1.428,1.31-2.1,1.995c-0.672,0.687-1.33,1.393-1.974,2.121l2.478,0.168c0.7-0.672,1.407-1.358,2.121-2.058
		c0.714-0.699,1.337-1.344,1.869-1.932c0.532-0.588,0.945-1.084,1.239-1.491c0.294-0.406,0.399-0.665,0.315-0.777
		c-0.225-0.196-0.525-0.231-0.903-0.105s-0.771,0.322-1.176,0.588c-0.406,0.266-0.784,0.553-1.134,0.861
		C51.447,3.199,51.202,3.409,51.063,3.521z"/>
	<path fill="#FFFFFF" d="M55.136,14.44c0.252,0.252,0.406,0.603,0.462,1.051c0.28-0.084,0.518-0.057,0.714,0.084
		c0.195,0.141,0.237,0.266,0.126,0.377c-0.112,0.113-0.21,0.225-0.294,0.336c-0.252,0.393-0.532,0.75-0.84,1.072
		s-0.603,0.664-0.882,1.028c-0.168,0.196-0.372,0.435-0.609,0.714c-0.238,0.28-0.483,0.588-0.735,0.924
		c-0.252,0.336-0.483,0.68-0.693,1.029c-0.21,0.351-0.343,0.68-0.399,0.987c-0.057,0.309-0.021,0.532,0.105,0.672
		c0.126,0.141,0.357,0.154,0.693,0.042c0.308-0.084,0.616-0.224,0.924-0.42c0.308-0.195,0.573-0.364,0.798-0.504
		c0.644-0.477,1.267-0.994,1.869-1.555c0.602-0.56,1.182-1.134,1.743-1.722c0.057-0.056,0.126-0.147,0.21-0.272
		c0.084-0.127,0.175-0.238,0.273-0.336c0.098-0.098,0.202-0.189,0.315-0.273c0.111-0.084,0.223-0.111,0.336-0.084
		c0.223,0.057,0.342,0.141,0.356,0.252c0.014,0.112-0.015,0.23-0.084,0.357c-0.07,0.125-0.168,0.252-0.294,0.377
		c-0.126,0.127-0.203,0.218-0.23,0.273c-0.561,0.616-1.135,1.204-1.723,1.764c-0.588,0.561-1.204,1.079-1.848,1.555
		c-0.308,0.225-0.729,0.482-1.26,0.776c-0.532,0.294-1.043,0.483-1.533,0.567c-0.49,0.084-0.903,0.021-1.239-0.189
		c-0.336-0.21-0.448-0.706-0.336-1.49c0.084-0.588,0.252-1.232,0.504-1.932l-1.428,1.386c-0.224,0.196-0.602,0.497-1.134,0.902
		c-0.532,0.406-1.085,0.735-1.659,0.987c-0.574,0.252-1.084,0.336-1.533,0.252c-0.448-0.084-0.714-0.504-0.798-1.26
		s0.042-1.484,0.378-2.184c0.336-0.7,0.777-1.358,1.323-1.975c0.546-0.615,1.155-1.169,1.827-1.659
		c0.672-0.489,1.302-0.889,1.89-1.196c0.28-0.141,0.63-0.309,1.05-0.504c0.42-0.196,0.847-0.351,1.281-0.463
		c0.434-0.111,0.861-0.16,1.281-0.146S54.828,14.188,55.136,14.44z M52.784,17.549c0.308-0.392,0.623-0.741,0.945-1.05
		c0.321-0.309,0.678-0.547,1.071-0.715c0.028-0.336-0.056-0.559-0.252-0.672c-0.196-0.111-0.435-0.153-0.714-0.125
		c-0.28,0.027-0.574,0.091-0.882,0.188c-0.308,0.099-0.56,0.203-0.756,0.315c-1.176,0.672-2.226,1.539-3.15,2.604
		c-0.168,0.168-0.448,0.477-0.84,0.924c-0.393,0.448-0.777,0.918-1.155,1.407c-0.378,0.49-0.672,0.945-0.882,1.365
		s-0.203,0.687,0.021,0.798c0.336,0.112,0.693,0.091,1.071-0.063c0.378-0.153,0.742-0.363,1.092-0.63
		c0.35-0.266,0.686-0.546,1.008-0.84c0.322-0.294,0.595-0.553,0.819-0.777c0.448-0.392,0.882-0.825,1.302-1.302
		C51.902,18.501,52.336,18.024,52.784,17.549z"/>
	<path fill="#FFFFFF" d="M60.345,22.799c0.336,0.309,0.728,0.448,1.176,0.42c0.447-0.027,0.896-0.147,1.344-0.357
		c0.447-0.21,0.882-0.454,1.303-0.734c0.42-0.28,0.77-0.532,1.049-0.756c0.98-0.7,1.876-1.442,2.688-2.227
		c0.588-0.56,0.979-0.972,1.177-1.239c0.195-0.266,0.434-0.37,0.713-0.314c0.225,0.057,0.343,0.146,0.357,0.273
		c0.014,0.125-0.028,0.259-0.126,0.398c-0.099,0.141-0.218,0.273-0.356,0.398c-0.141,0.127-0.238,0.218-0.295,0.273
		c-0.447,0.448-0.91,0.875-1.386,1.281c-0.477,0.406-0.952,0.805-1.428,1.197c-0.421,0.336-0.896,0.692-1.429,1.07
		c-0.531,0.378-1.092,0.714-1.68,1.008c-0.588,0.295-1.19,0.505-1.806,0.631c-0.616,0.126-1.204,0.09-1.765-0.105
		c-0.42-0.168-0.741-0.398-0.965-0.693c-0.225-0.294-0.379-0.615-0.463-0.966c-0.084-0.35-0.105-0.728-0.063-1.134
		c0.041-0.405,0.133-0.791,0.273-1.154c0.42-1.12,1.07-2.143,1.952-3.066s1.813-1.708,2.793-2.352
		c0.252-0.168,0.573-0.364,0.966-0.589c0.393-0.224,0.791-0.405,1.197-0.546c0.406-0.14,0.805-0.195,1.197-0.168
		c0.392,0.028,0.728,0.196,1.008,0.504c0.168,0.225,0.259,0.469,0.273,0.735c0.014,0.267-0.029,0.524-0.127,0.776
		s-0.225,0.504-0.377,0.756c-0.154,0.252-0.302,0.463-0.441,0.631c-0.084,0.111-0.196,0.245-0.336,0.398
		c-0.141,0.154-0.28,0.246-0.42,0.273c-0.225,0.057-0.385-0.027-0.483-0.252s-0.035-0.406,0.188-0.547
		c0.112-0.084,0.267-0.223,0.463-0.42c0.195-0.195,0.371-0.412,0.525-0.65c0.152-0.238,0.244-0.469,0.272-0.693
		c0.027-0.224-0.07-0.392-0.294-0.504l0.042-0.042c-0.393-0.195-0.819-0.195-1.281,0c-0.462,0.196-0.91,0.47-1.344,0.819
		c-0.435,0.351-0.841,0.729-1.218,1.134c-0.379,0.406-0.666,0.735-0.861,0.987c-0.225,0.252-0.519,0.616-0.882,1.092
		c-0.364,0.477-0.687,0.98-0.966,1.512c-0.281,0.533-0.47,1.058-0.567,1.575c-0.099,0.519,0.021,0.96,0.356,1.323
		C60.302,22.785,60.315,22.799,60.345,22.799z M60.345,22.799c-0.029,0-0.043-0.014-0.043-0.042L60.345,22.799z"/>
	<path fill="#FFFFFF" d="M60.68,8.645c0.477-0.363,1.022-0.636,1.638-0.819c0.617-0.182,1.26-0.315,1.933-0.399
		c0.672-0.084,1.344-0.133,2.016-0.147c0.673-0.014,1.288-0.021,1.849-0.021c1.596-0.028,3.198-0.007,4.809,0.063
		c1.609,0.07,3.213,0.147,4.809,0.231c0.588-0.616,1.197-1.225,1.828-1.827c0.629-0.602,1.266-1.183,1.91-1.743
		c0.561-0.476,1.119-0.938,1.68-1.386c0.561-0.448,1.148-0.868,1.765-1.26c0.168-0.084,0.413-0.203,0.735-0.357
		c0.32-0.153,0.65-0.273,0.986-0.357s0.658-0.105,0.967-0.063c0.307,0.042,0.518,0.217,0.629,0.525
		c0.141,0.252,0.161,0.546,0.063,0.882c-0.099,0.336-0.252,0.672-0.462,1.008S87.392,3.625,87.14,3.92
		c-0.252,0.294-0.448,0.525-0.588,0.693c-0.504,0.588-1.002,1.148-1.49,1.68c-0.49,0.532-1.016,1.064-1.576,1.596l3.906,0.126
		c0.729,0.057,1.456,0.091,2.184,0.105c0.729,0.015,1.456-0.006,2.185-0.063c0.308-0.027,0.63-0.042,0.966-0.042
		s0.672-0.027,1.008-0.084c0.168-0.027,0.421-0.084,0.757-0.168s0.573-0.056,0.714,0.084c0.195,0.196,0.202,0.364,0.021,0.504
		c-0.183,0.141-0.435,0.252-0.756,0.336c-0.322,0.084-0.645,0.147-0.966,0.189c-0.322,0.042-0.525,0.063-0.609,0.063
		c-0.813,0.112-1.61,0.168-2.394,0.168c-0.784,0-1.568,0-2.353,0c-0.98,0-1.939-0.021-2.877-0.063
		c-0.938-0.042-1.883-0.09-2.834-0.147c-1.681,1.625-3.402,3.192-5.166,4.704c-1.765,1.512-3.543,3.023-5.334,4.536
		c-0.337,0.532-0.652,1.071-0.945,1.617c-0.295,0.546-0.512,1.112-0.651,1.701c-0.14,0.56-0.091,0.931,0.147,1.112
		c0.237,0.183,0.545,0.252,0.924,0.21c0.378-0.042,0.777-0.153,1.197-0.336c0.42-0.182,0.756-0.356,1.008-0.524
		c0.672-0.448,1.302-0.938,1.89-1.471c0.588-0.531,1.161-1.092,1.722-1.68c0.141-0.14,0.301-0.314,0.483-0.525
		c0.182-0.209,0.356-0.385,0.524-0.524c0.225-0.168,0.428-0.168,0.609,0s0.175,0.364-0.021,0.588c-0.896,0.896-1.813,1.8-2.75,2.709
		c-0.939,0.91-1.981,1.646-3.129,2.205c-0.252,0.141-0.54,0.252-0.861,0.336c-0.322,0.084-0.645,0.133-0.967,0.147
		c-0.322,0.014-0.623-0.036-0.902-0.147s-0.518-0.321-0.714-0.63c-0.196-0.308-0.301-0.651-0.315-1.029
		c-0.014-0.378,0.021-0.756,0.105-1.134s0.189-0.749,0.314-1.112c0.127-0.364,0.26-0.7,0.399-1.009
		c0.588-1.428,1.315-2.778,2.185-4.053c0.867-1.274,1.777-2.527,2.729-3.759c0.308-0.392,0.615-0.777,0.924-1.155
		c0.308-0.378,0.63-0.763,0.966-1.155c-1.344-0.084-2.674-0.153-3.99-0.21c-1.316-0.056-2.646-0.084-3.99-0.084
		c-0.699,0-1.398,0.015-2.1,0.042c-0.699,0.028-1.399,0.07-2.1,0.126c-0.531,0.057-1.099,0.133-1.701,0.231
		c-0.602,0.099-1.127,0.301-1.574,0.609c-0.112,0.084-0.238,0.119-0.379,0.105c-0.14-0.014-0.258-0.049-0.357-0.105
		c-0.098-0.056-0.146-0.14-0.146-0.252C60.47,8.869,60.54,8.757,60.68,8.645z M78.614,8.645c-1.709,2.1-3.333,4.341-4.873,6.72
		c0.645-0.56,1.281-1.127,1.912-1.701c0.629-0.572,1.266-1.154,1.91-1.742l3.36-3.15L78.614,8.645z M83.569,3.521
		c-0.729,0.645-1.428,1.31-2.1,1.995c-0.672,0.687-1.33,1.393-1.974,2.121l2.478,0.168c0.699-0.672,1.407-1.358,2.121-2.058
		c0.715-0.699,1.337-1.344,1.869-1.932c0.531-0.588,0.945-1.084,1.238-1.491c0.295-0.406,0.4-0.665,0.316-0.777
		c-0.225-0.196-0.525-0.231-0.904-0.105c-0.377,0.126-0.77,0.322-1.176,0.588s-0.783,0.553-1.134,0.861
		C83.954,3.199,83.71,3.409,83.569,3.521z"/>
	<path fill="#FFFFFF" d="M93.188,15.071c-0.112,0.14-0.356,0.398-0.735,0.776c-0.377,0.378-0.813,0.813-1.302,1.302
		c-0.49,0.49-0.987,1.016-1.491,1.575c-0.504,0.561-0.945,1.093-1.322,1.597c-0.379,0.503-0.645,0.959-0.799,1.364
		c-0.153,0.406-0.118,0.708,0.105,0.903c0.364,0.112,0.728,0.07,1.092-0.126c0.363-0.195,0.686-0.405,0.967-0.63
		c0.559-0.393,1.084-0.819,1.574-1.281s0.973-0.931,1.449-1.407c0.279-0.308,0.553-0.608,0.818-0.903
		c0.266-0.293,0.553-0.594,0.861-0.902c0.392-0.561,0.826-1.051,1.302-1.471c0.477-0.42,0.994-0.699,1.555-0.84
		c0.308-0.084,0.553-0.063,0.734,0.063c0.183,0.126,0.161,0.356-0.063,0.692c-0.225,0.281-0.441,0.554-0.651,0.819
		c-0.21,0.267-0.427,0.54-0.65,0.819c-0.084,0.112-0.336,0.434-0.757,0.966c-0.42,0.532-0.84,1.106-1.26,1.722
		c-0.42,0.616-0.771,1.184-1.05,1.701c-0.28,0.519-0.322,0.819-0.126,0.903c0.392,0.168,0.805,0.133,1.239-0.105
		c0.434-0.237,0.805-0.468,1.112-0.692c1.345-0.952,2.59-2.059,3.738-3.318c0.308-0.336,0.525-0.602,0.651-0.798
		s0.301-0.266,0.524-0.21c0.225,0.057,0.343,0.141,0.357,0.252c0.014,0.112-0.021,0.238-0.105,0.378
		c-0.084,0.141-0.182,0.272-0.294,0.399c-0.112,0.125-0.196,0.217-0.252,0.272c-0.561,0.616-1.141,1.212-1.742,1.785
		c-0.603,0.574-1.239,1.1-1.911,1.575c-0.477,0.336-1.022,0.679-1.639,1.028c-0.616,0.351-1.231,0.441-1.848,0.273
		c-0.252-0.084-0.44-0.217-0.567-0.399c-0.125-0.182-0.195-0.392-0.209-0.63c-0.016-0.237,0-0.476,0.041-0.714
		c0.043-0.237,0.091-0.455,0.147-0.65c0.056-0.225,0.126-0.463,0.21-0.715s0.182-0.518,0.294-0.797
		c-0.393,0.392-0.792,0.791-1.197,1.196c-0.405,0.406-0.819,0.777-1.239,1.113c-0.42,0.364-0.917,0.734-1.49,1.112
		c-0.574,0.378-1.17,0.497-1.785,0.357c-0.531-0.111-0.84-0.399-0.924-0.861s-0.049-0.979,0.104-1.554
		c0.154-0.573,0.357-1.12,0.609-1.638s0.462-0.903,0.63-1.155c0.392-0.532,0.805-1.043,1.238-1.533
		c0.435-0.489,0.918-0.931,1.449-1.323c0.252-0.195,0.504-0.37,0.756-0.524c0.252-0.153,0.532-0.287,0.841-0.399
		c0.084-0.027,0.21-0.049,0.378-0.063s0.321,0,0.462,0.042c0.14,0.042,0.237,0.112,0.294,0.21
		C93.369,14.728,93.327,14.875,93.188,15.071z"/>
	<path fill="#FFFFFF" d="M101.209,18.095c0.363-0.392,0.783-0.826,1.26-1.303c0.476-0.475,0.882-0.908,1.218-1.301l0.673-0.631
		c-0.057-0.336-0.063-0.678-0.021-1.029c0.042-0.35,0.147-0.664,0.315-0.944s0.392-0.497,0.672-0.651
		c0.279-0.154,0.615-0.217,1.008-0.189c0.308,0.056,0.497,0.161,0.567,0.315c0.069,0.155,0.069,0.336,0,0.545
		c-0.07,0.211-0.183,0.414-0.336,0.609c-0.154,0.196-0.288,0.364-0.399,0.504l-0.924,1.092l0.042,0.043
		c0.224,0.588,0.454,1.154,0.692,1.7s0.399,1.142,0.483,1.785c0.084,0.813-0.042,1.597-0.378,2.353
		c0.42-0.169,0.812-0.385,1.176-0.651c0.363-0.267,0.699-0.539,1.008-0.819c0.112-0.084,0.259-0.237,0.441-0.462
		c0.182-0.224,0.385-0.454,0.609-0.692c0.224-0.238,0.44-0.434,0.65-0.588s0.399-0.217,0.567-0.189
		c0.279,0.057,0.363,0.203,0.252,0.441c-0.112,0.238-0.288,0.497-0.525,0.776c-0.238,0.28-0.497,0.54-0.776,0.777
		c-0.28,0.237-0.448,0.385-0.505,0.44c-0.476,0.42-0.994,0.819-1.554,1.197c-0.561,0.378-1.162,0.638-1.806,0.777
		c-0.028,0-0.05,0.007-0.063,0.021c-0.014,0.015-0.035,0.021-0.063,0.021c-0.7,0.952-1.582,1.651-2.646,2.1
		c-0.252,0.084-0.532,0.161-0.84,0.231c-0.309,0.069-0.623,0.098-0.945,0.084c-0.321-0.015-0.622-0.078-0.902-0.189
		c-0.279-0.112-0.504-0.309-0.672-0.588c-0.14-0.252-0.203-0.504-0.189-0.756c0.015-0.252,0.084-0.489,0.21-0.714
		c0.126-0.224,0.294-0.427,0.504-0.609c0.21-0.182,0.428-0.329,0.651-0.44c0.561-0.252,1.099-0.343,1.617-0.273
		c0.518,0.07,1.057,0.147,1.616,0.231l0.379-0.589c0.476-0.783,0.706-1.567,0.692-2.352c-0.015-0.783-0.133-1.582-0.356-2.395
		l-1.555,1.639c-0.056,0.057-0.133,0.146-0.23,0.273c-0.099,0.125-0.21,0.259-0.336,0.398c-0.126,0.141-0.246,0.267-0.357,0.378
		c-0.112,0.112-0.21,0.183-0.294,0.21c-0.225,0.084-0.44,0.063-0.651-0.063C100.978,18.493,100.985,18.319,101.209,18.095z
		 M100.705,23.429c0.532,0.057,1.021-0.084,1.47-0.42c0.447-0.336,0.854-0.728,1.218-1.176c-0.42-0.084-0.826-0.14-1.218-0.168
		c-0.393-0.028-0.784,0.042-1.176,0.21c-0.14,0.056-0.287,0.168-0.441,0.336c-0.153,0.168-0.266,0.336-0.336,0.504
		c-0.069,0.168-0.076,0.322-0.021,0.462C100.258,23.317,100.426,23.401,100.705,23.429z M105.997,12.887
		c-0.309,0.028-0.532,0.168-0.672,0.42c-0.141,0.252-0.225,0.532-0.252,0.84c0.195-0.224,0.37-0.434,0.524-0.63
		C105.752,13.321,105.885,13.111,105.997,12.887z"/>
</g>
</svg>
