<?xml version="1.0" encoding="utf-8"?>
<!-- Generator: Adobe Illustrator 16.0.0, SVG Export Plug-In . SVG Version: 6.00 Build 0)  -->
<!DOCTYPE svg PUBLIC "-//W3C//DTD SVG 1.1//EN" "http://www.w3.org/Graphics/SVG/1.1/DTD/svg11.dtd">
<svg version="1.1" id="Layer_1" xmlns="http://www.w3.org/2000/svg" xmlns:xlink="http://www.w3.org/1999/xlink" x="0px" y="0px"
	 width="190px" height="25px" viewBox="0 0 190 25" enable-background="new 0 0 190 25" xml:space="preserve">
<g>
	<polygon fill="#F18D79" points="72.119,1.608 66.837,10.232 61.615,1.608 56.961,1.608 64.831,14.463 64.831,24.285 68.885,24.285 
		68.885,14.463 76.744,1.608 	"/>
	<path fill="#F18D79" d="M124.247,12.904c0-5.124-3.504-7.659-10.549-7.659v15.394h1.106c2.733,0,4.938-0.584,6.627-1.787
		C123.292,17.498,124.247,15.523,124.247,12.904 M128.354,12.647c0,3.708-1.258,6.61-3.789,8.708c-2.389,1.93-5.484,2.93-9.309,2.93
		h-5.629V1.63h5.346c3.734,0,6.814,0.903,9.273,2.69C126.991,6.315,128.354,9.082,128.354,12.647"/>
	<polygon fill="#F18D79" points="21.96,2.758 12.31,13.365 2.814,2.758 1,2.758 1,24.391 5.35,24.391 5.35,12.125 12.448,19.48 
		19.513,12.125 19.593,24.391 23.7,24.391 23.7,2.758 	"/>
	<polygon fill="#F18D79" points="182.761,2.758 173.106,13.365 163.61,2.758 161.806,2.758 161.806,24.391 166.159,24.391 
		166.159,12.125 173.222,19.48 180.319,12.125 180.397,24.391 184.495,24.391 184.495,2.758 	"/>
</g>
</svg>
