<?xml version="1.0" encoding="utf-8"?>
<!-- Generator: Adobe Illustrator 16.0.0, SVG Export Plug-In . SVG Version: 6.00 Build 0)  -->
<!DOCTYPE svg PUBLIC "-//W3C//DTD SVG 1.1//EN" "http://www.w3.org/Graphics/SVG/1.1/DTD/svg11.dtd">
<svg version="1.1" id="Layer_1" xmlns="http://www.w3.org/2000/svg" xmlns:xlink="http://www.w3.org/1999/xlink" x="0px" y="0px"
	 width="100px" height="20px" viewBox="0 0 100 20" enable-background="new 0 0 100 20" xml:space="preserve">
<g>
	<defs>
		<rect id="SVGID_1_" x="1.279" y="2.9" width="97.443" height="14.2"/>
	</defs>
	<clipPath id="SVGID_2_">
		<use xlink:href="#SVGID_1_"  overflow="visible"/>
	</clipPath>
	<path clip-path="url(#SVGID_2_)" fill="#F08E7A" d="M13.493,5.242c-0.022-0.158-0.141-0.189-0.165-0.33
		c0.257-0.036-0.322-0.65-0.087-0.329c-0.005,0.147,0.039,0.235,0.087,0.329c-0.298-0.172-0.056,0.369-0.254,0.33
		c-0.032-0.138-0.104-0.228-0.248-0.219c0.024,0.219-0.111,0.219-0.165,0.331c0.262,0.123,0.2-0.172,0.333-0.221
		c0.08,0.148,0.078,0.413,0.247,0.441c0.07-0.521,0.545,0.189,0.5-0.441C13.621,5.133,13.556,5.182,13.493,5.242 M13.741,4.469
		c0.099,0.024,0.045,0.128,0,0.22c0.419-0.226,0.495,0.286,0.667-0.106c-0.068-0.03-0.167-0.005-0.172-0.114
		c0.05,0,0.097-0.083,0-0.115C14.07,4.76,13.813,4.311,13.741,4.469 M15.068,5.023c-0.082-0.206,0.248-0.373,0-0.44
		c-0.179,0.344-0.264,0.138-0.082,0.55c-0.187-0.02-0.55-0.363-0.58-0.221c0.061,0.024,0.092,0.092,0.08,0.221
		c-0.119-0.128-0.211-0.128-0.327,0c-0.024-0.089-0.005-0.221-0.085-0.221c0.002,0.153-0.041,0.241-0.085,0.33
		c0.454-0.167,0.417,0.332,0.665,0.446c0.021-0.133,0.095-0.067,0.165,0c0.133-0.436-0.359-0.043-0.333-0.334
		c0.018-0.125,0.095-0.172,0.167-0.221v0.221c0.354-0.092,0.26-0.073,0.414,0.22c0.318-0.265,0.456-0.369,0.248-0.662
		c0.036,0.044-0.1,0.131-0.078,0c0.022-0.191,0.326-0.031,0.163-0.223C15.137,4.597,15.229,4.976,15.068,5.023 M16.4,5.023
		c0.199,0.047,0.177-0.206,0.415-0.111C16.8,4.75,16.844,4.503,16.732,4.469c0,0.063-0.071,0.128-0.083,0
		c-0.02-0.083-0.005-0.217-0.085-0.221C16.65,4.689,16.313,4.583,16.4,5.023 M16.313,4.139c-0.034-0.068-0.199-0.167-0.245-0.225
		c-0.085-0.09-0.218-0.325-0.085-0.109c-0.065,0.305,0.165,0.228,0.165,0.443c-0.255,0.235-0.136,0.344-0.33,0.555
		c0.042,0,0.095,0.083,0,0.109c-0.095-0.251,0.017-0.295-0.167-0.558c0.344-0.245-0.032-0.225-0.083,0.115
		c0.106,0.128,0.154,0.564,0.167,0.554c-0.026,0.035-0.162-0.125-0.167-0.111c-0.044,0.163,0.026,0.378,0,0.551
		c-0.153,0.014-0.279,0.073-0.331,0.225c0.047,0.005,0.097,0.015,0.078,0.104c0.068-0.019,0.163,0,0.167-0.104
		c-0.049-0.005-0.097-0.019-0.083-0.114c0.329-0.039,0.252-0.078,0.582-0.22c0.002-0.153-0.039-0.241-0.085-0.331
		c0.284,0.374,0.611-0.54,0.502-0.669C16.174,4.765,16.284,4.081,16.313,4.139 M26.864,3.914c0.021-0.158,0.14-0.187,0.164-0.325
		c-0.205,0.01-0.289,0.196-0.409,0.325c0.17,0.078,0.327,0.349,0.494,0.114c0.021,0.083,0.005,0.221,0.085,0.221V3.805
		C27.039,3.78,27.014,3.933,26.864,3.914 M39.987,4.469c-0.091,0.053-0.185,0.123-0.244,0.22c0.159,0.099,0.351-0.25,0.499-0.441
		c0.147-0.187,0.605-0.405,0.083-0.556c-0.013,0.212-0.054,0.378-0.173,0.446c0-0.431-0.329,0-0.494-0.225
		C39.594,4.335,40.101,3.991,39.987,4.469 M40.733,3.914c0.055-0.134,0.317,0.073,0.505-0.109c0,0.06,0.067,0.128,0.081,0
		C41.129,3.656,40.594,3.671,40.733,3.914 M55.857,4.354c0.01-0.187-0.067-0.279-0.17-0.327c-0.067,0.839,0.737,0.121,0.252-0.114
		C55.93,4.081,55.975,4.321,55.857,4.354 M57.443,4.469c-0.151,0.043-0.219-0.163-0.257,0c0.223,0.201-0.18-0.044-0.247-0.115
		c0.01,0.434,0.237,0.572,0.412,0.778C57.215,4.74,57.409,4.857,57.443,4.469 M64.417,5.133c0.223,0.177,0.372-0.286,0.163-0.33
		c0.02,0.359-0.323,0.235-0.333,0.551c0.402,0.201,0.01,0.84,0.412,1.107c0.033-0.119,0.11-0.272,0-0.109
		C64.475,5.945,64.561,5.698,64.417,5.133 M65.744,5.242c-0.01-0.276-0.159-0.344,0-0.553h-0.247c0.175,0.443-0.18,0.611,0,0.885
		C65.585,5.473,65.517,5.167,65.744,5.242 M66.409,5.242c-0.117,0.688-0.354,0.55-0.757,0.776c0.15-0.295-0.048-0.422,0.17-0.664
		c-0.44,0-0.198,0.731-0.325,0.889c-0.141-0.146,0-0.669-0.257-0.669c0.097,0.376-0.059,0.473,0.087,0.669
		c0.029-0.269,0.17,0.197,0.248,0.218c-0.078,0-0.098,0.087-0.165,0.106c-0.01-0.128-0.028-0.254-0.17-0.215
		c-0.059,0.417,0.402,0.128,0.335,0.55c0.276-0.068,0.267-0.541,0.659-0.441c-0.01-0.386-0.077-0.443,0-0.552
		c0.127-0.177,0.553-0.628,0.422-0.667C66.637,5.414,66.472,5.324,66.409,5.242 M67.237,5.688c-0.266,0.095-0.17,0.095-0.325-0.114
		c-0.028,0.385-0.237-0.01-0.256,0.218c0.246,0.158,0.411,0.284,0.581,0c-0.019,0.144-0.125,0.231,0.089,0.226
		C67.326,5.865,67.286,5.773,67.237,5.688 M75.292,4.469c-0.029,0.402,0.228,0.438,0.412,0.554v-0.44
		C75.52,4.617,75.39,4.568,75.292,4.469 M75.797,4.354c-0.029,0.345,0.185,0.531,0,0.778h0.165c0.01,0.068,0.01,0.129,0.077,0.109
		c-0.117-0.449,0.188-0.356,0.17-0.659C76.102,4.463,75.902,4.469,75.797,4.354 M80.771,4.912c-0.49-0.204,0.362-0.458,0-0.773
		C80.533,4.219,80.408,5.252,80.771,4.912 M88.747,5.242c-0.058,0.363-0.019,0.332,0,0.55c0-0.029,0.067-0.177,0.089-0.104
		c0.028,0.085-0.099,0.43,0,0.444C88.994,5.914,88.864,5.448,88.747,5.242 M89.417,5.574c0.067,0.031,0.097,0.095,0.087,0.218
		c0.257-0.069,0.16-0.069,0.402,0c0.112-0.128,0.112-0.383,0.093-0.659c-0.258,0.078-0.16,0.078-0.413,0
		c-0.01,0.167,0.03,0.408-0.082,0.441C89.504,5.516,89.437,5.448,89.417,5.574 M91.244,4.912c-0.019,0.255,0.01,0.427,0.084,0.551
		c0.251,0,0.353-0.201,0.421-0.439C91.491,5.153,91.463,5.053,91.244,4.912 M71.311,4.912c-0.437-0.124-0.78,0.298-0.659,0.551
		c0.285,0.083,0.097-0.449,0.412-0.33c0,0.281,0.048,0.526,0.165,0.659C71.2,5.439,71.37,5.329,71.311,4.912 M46.388,4.027
		c-0.034,0.156-0.104,0.187,0,0.327c-0.104,0.018-0.202,0.042-0.168,0.229c0.154-0.015,0.279-0.08,0.333-0.229
		C46.417,4.354,46.512,4.052,46.388,4.027 M45.305,4.248c0.152,0.097,0.215,0.315,0.502,0.221
		C45.845,4.188,45.369,4.032,45.305,4.248 M41.403,3.805v0.223c0.005,0.063,0.011,0.131,0.082,0.111
		c0.155-0.058,0.784,0.206,0.994,0.444c-0.001-0.211,0.069-0.238,0.168-0.114c0-0.153-0.039-0.241-0.08-0.331
		c0.065-0.029,0.162,0,0.167-0.111c-0.213,0.121-0.293-0.478-0.417-0.114c0.085,0.01,0.103,0.196,0,0.225
		c0.038-0.451-0.212,0-0.331,0C41.663,3.865,41.646,4.032,41.403,3.805 M28.525,3.692c-0.204,0.26-0.165-0.213-0.249-0.329
		c-0.04,0.196-0.086-0.051-0.163-0.109c-0.018,0.163,0.024,0.407-0.085,0.438c-0.109-0.596-0.396,0.279-0.666-0.104
		c-0.099,0.306,0.496,0.129,0.083,0.325c0,0.296-0.046,0.66,0.162,0.669c0.018-0.129,0.136-0.12,0.25-0.114
		c0.038-0.192-0.119-0.286,0-0.331c0.067,0.315,0.564,0.492,0.667,0.109c-0.056,0.187,0.167,0.482,0.171,0.221
		c-0.126-0.02-0.085-0.26-0.086-0.442c-0.207,0.015-0.264,0.216-0.333-0.114C28.441,4.011,28.791,3.824,28.525,3.692 M29.523,3.479
		c-0.436-0.058,0.191,0.295-0.082,0.325c-0.255,0-0.08-0.56-0.333-0.551c-0.218,0.182-0.305,0.551-0.499,0.773
		c0.165,0.327,0.271,0.412,0.499,0.442c0.124-0.565-0.251-0.478-0.167-0.99c0.117,0,0.181-0.058,0.251-0.116
		c-0.075,0.354,0.07,0.417,0.164,0.55c-0.207-0.167-0.244,0.378-0.08,0.334c0.009-0.325,0.348-0.187,0.327-0.556
		C29.543,3.671,29.509,3.598,29.523,3.479 M20.301,4.469c-0.122-0.083-0.543-0.556-0.33-0.221c0.188,0.078,0.25,0.335,0.33,0.555
		c-0.114,0.005-0.181-0.054-0.245-0.114c-0.072,0.354,0.126,0.349,0.245,0.443c0-0.296,0.232-0.281,0.335-0.443
		c-0.141,0.005-0.213-0.083-0.248-0.22C20.561,4.306,20.338,4.493,20.301,4.469 M93.155,4.469c-0.16,0.043-0.01,0.506-0.335,0.334
		c0.06,0.34,0.06,0.211,0,0.551c0.068-0.321,0.51-0.25,0.248,0.109c0.185,0.053,0.164-0.153,0.173-0.33
		c0.189,0.078,0.316,0.148,0.496-0.109c-0.01-0.143-0.247-0.147-0.247,0c-0.218,0.015-0.079-0.293,0.086-0.334
		c0.089-0.029,0.151,0.114,0.161,0.114c0.107-0.024,0.136-0.417,0.251,0c0.122-0.104-0.028-0.172,0.084-0.449
		c0.076,0.07,0.146,0.139,0.165,0c0.076,0.01,0.067,0.139,0.076,0.229c0.689-0.219,1.174-0.354,1.664-0.229
		c-0.02,0.124-0.155,0.08-0.155,0.229c0,0.106,0.096,0.078,0.155,0.106c0.135-0.106,0.097-0.47,0.17-0.662
		c0.154,0.279,0.664,0.495,0.664,0.111c0.246,0.049,0.397,0.301,0.828,0.109c-0.077,0.373,0.268,0.177,0.414,0.221
		c0.076-0.197,0.228-0.311,0.256-0.556c0.257,0.63,0.097,1.277,0.087,2.218c-0.067-0.019-0.087-0.114-0.175-0.114
		c0.04,0.128,0.146,0.281,0.175,0.114c0.268,0.359-0.185,1.018,0.16,1.214c0.01,0.274-0.043,0.456-0.16,0.55
		c-0.01,0.139,0.098,0.049,0.078,0c0.17,0.326-0.253,0.364,0.082,0.442c-0.053,0.147-0.18,0.208-0.335,0.228
		c-0.275,0.264-0.034,0.56-0.168,0.885c0.067,0.276,0.208,0.463,0.421,0.55c-0.078,0.286,0.247,0.606,0,0.778
		c0.092,0.168,0.267,0.226,0.247,0.546c-0.098-0.044-0.165-0.139-0.165-0.33c-0.082,0.451-0.237,0.119-0.503,0.33
		c0.019,0.133,0.086,0.063,0.086,0c0.276,0.229-0.098,0.211-0.086,0.44c0,0.057,0.134-0.077,0.086-0.106
		c0.151,0.088,0.199,0.48,0.082,0.664c-0.072-0.08-0.12-0.198-0.168-0.329c-0.069,0.02-0.079,0.106-0.156,0.106
		c-0.112,0.359,0.262,0.085,0.156,0.451c-0.175-0.26-0.287,0.067-0.249,0.427c0.064,0.126,0.189,0.126,0.17,0.34
		c-0.218-0.291-0.17,0.154-0.17,0.445c-0.058-0.185-0.412,0.01-0.335-0.339c-0.203-0.059,0.18,0.601-0.242,0.339
		c-0.01-0.01-0.091-0.223-0.081-0.223c-0.098,0.01-0.156,0.175-0.254,0.223c-0.426,0.185-1.042-0.194-1.327,0.33
		c-0.16-0.029-0.68-0.175-0.747,0.213c-0.258-0.252-0.65,0.253-0.746,0.232c-0.112-0.281-0.237-0.261-0.335-0.329
		c-0.082,0-0.072,0.126-0.092,0.204c-0.234-0.029-0.5-0.059-0.577-0.32c-0.229-0.029-0.248,0.252-0.495,0.213
		c-0.096-0.135-0.028-0.165,0-0.33h-0.155c-0.257,0.098,0.185,0.175,0.068,0.438c-0.116,0.067-0.296-0.194-0.413-0.204
		c-0.048-0.01-0.11,0.088-0.077,0.097c-0.091-0.028-0.198-0.281-0.417-0.33c-0.106-0.019-0.213,0.049-0.335,0.117
		c-0.076,0-0.066-0.136-0.076-0.224c-0.214,0.021-0.307,0.204-0.424,0.34c-0.237-0.136-0.561-0.038-0.745-0.116
		c-0.18,0.067,0.105,0.174-0.093,0.32c-0.105,0-0.223-0.01-0.242,0.125c-0.17-0.038-0.16-0.3-0.247-0.445
		c0.02,0.592-0.5-0.106-0.581,0.445c-0.434-0.087-0.577-0.193-0.826,0.107c-0.285-0.146-0.678-0.126-0.746-0.553
		c-0.199-0.068-0.402,0.407-0.669,0.116c-0.107,0.068-0.16,0.232-0.17,0.437c-0.261-0.165-0.213-0.737-0.577-0.776
		c-0.17,0.34-0.523,0.078-0.668,0.437c-0.079-0.077-0.122-0.193-0.16-0.33c-0.156,0.021-0.06,0.369-0.165,0.438
		c-0.209-0.01-0.02-0.359,0-0.438c-0.228-0.154-0.345,0.253-0.505,0.33c-0.077,0.039-0.262-0.058-0.335,0
		c-0.077,0.088-0.02,0.389-0.077,0.456c-0.194,0.185-0.067-0.563-0.165,0.107c-0.228-0.447-0.475,0.484-0.412-0.224
		c-0.199,0.116-0.397,0.232-0.505,0.446c-0.173,0.106-0.115-0.194-0.163-0.223c-0.22-0.165-0.457,0.019-0.67-0.107
		c-0.072,0.389-0.305-0.146-0.326,0.33c-0.218-0.02-0.393-0.068-0.503-0.223c-0.263,0.251-0.432-0.04-0.49,0.436
		c-0.314-0.514-0.747,0.408-1.004,0c-0.16,0.203-0.237,0.494-0.412,0.669c-0.236-0.146,0.252-0.232,0.166-0.563
		c0-0.154-0.422,0.029-0.422,0.232c-0.155-0.358-0.107-0.29-0.49-0.339c-0.326,0.379-0.869,0.504-1.252,0.786
		c-0.067,0.038-0.077,0.087-0.077,0.213c-0.18-0.058-0.553,0.137-0.582-0.116c-0.086,0.406-0.431,0.466-0.591,0.785
		c-0.316-0.154,0.071-0.592-0.412-0.554c0.048-0.153,0.141-0.271,0.247-0.328c-0.049-0.185-0.737-0.146-0.17-0.223
		c-0.125-0.225-0.489-0.155-0.489-0.563c-0.277-0.213-0.297,0.097-0.5,0.106c-0.101,0.021-0.397-0.174-0.659,0.127
		c-0.198-0.281-0.363-0.049-0.514-0.233c-0.087,0.049-0.204,0.203-0.067,0.233c-0.402,0.126-1.329-0.35-1.664-0.34
		c0.028,0.136,0.096,0.233,0.247,0.213c0.306,0.039-0.237,0.292-0.17,0c-0.45-0.058-0.697-0.01-1.081-0.319
		c-0.038,0.388-0.471,0.242-0.67,0.446c-0.028-0.32-0.508-0.544-0.823-0.563c-0.098,0.019-0.058,0.203-0.087,0.329
		c-0.063-0.067-0.141-0.126-0.16,0c-0.078,0-0.068-0.126-0.088-0.213c-0.237,0.358-0.697-0.098-0.494,0.552
		c-0.068,0.194-0.088-0.067-0.088-0.232c-0.213,0.242-0.185-0.058-0.324-0.106c0,0-0.433,0.146-0.423-0.213
		c-0.323,0.31-0.688-0.039-0.993,0.213c-0.247-0.097,0.198-0.164,0.078-0.436c-0.194,0.125-0.325,0.378-0.413,0.669
		c-0.097,0.048-0.039-0.213-0.087-0.233c-0.077-0.029-0.087,0.339-0.077,0.339c-0.103-0.048-0.01-0.125-0.078-0.232
		c-0.015-0.01-0.592-0.301-0.335-0.319c-0.111,0-0.169,0.165-0.169,0.319c-0.306-0.368-0.383,0.039-0.825,0
		c-0.01-0.388-0.13-0.02-0.333-0.213c-0.21,0.242-0.229,0.728-0.505,0.893c-0.067-0.107-0.223-0.069-0.252-0.223
		c-0.141,0.02-0.189,0.185-0.17,0.436c-0.248-0.146-0.229,0.029-0.582,0c-0.626,0.544-1.295,0.882-2.065,0.767
		c0.038-0.232-0.127-0.204-0.252-0.213c0.145-0.224-0.064-0.214,0.087-0.438c-0.029-0.134-0.17-0.115-0.17,0
		c-0.223-0.241-0.049-0.474-0.165-0.668c-0.116-0.01-0.237-0.02-0.247,0.117c0.01,0.038-0.175-0.748,0.077-0.67
		c-0.01-0.116-0.164-0.078-0.164-0.223c-0.17,0.028-0.155,0.3-0.258,0.436c-0.087-0.01-0.038-0.106,0-0.106
		c-0.01-0.311-0.402-0.087-0.479-0.106c-0.068-0.02-0.068-0.223-0.088-0.223c-0.14-0.029-0.189,0.116-0.333,0.116
		c-0.297-0.01-0.68-0.223-0.996,0.106c-0.179-0.204-0.402-0.175-0.256-0.553c-0.137-0.039-0.146,0.077-0.155,0.224
		c-0.398-0.098-0.544,0.077-0.752-0.107c-0.087,0-0.067,0.126-0.087,0.214c-0.426-0.098-0.936,0.028-1.405,0
		c-0.127-0.01-0.165-0.126-0.254-0.106c-0.344,0.058-0.738,0.465-1.165,0.542c-0.248,0.059-0.439-0.038-0.665,0.127
		c0.335-0.563-0.658-0.106-0.658-0.563c-0.147,0-0.217,0.087-0.255,0.223c-0.147-0.078-0.01-0.204,0-0.329
		c-0.109,0.145-0.406,0.048-0.416,0.329c-0.156,0.097-0.195-0.204-0.243-0.223c-0.287-0.078-0.637,0.077-0.915,0
		c0.01,0.01-0.242-0.291-0.334-0.33c-0.248-0.087-0.434,0.146-0.584-0.107c-0.131-0.087-0.127,0.321-0.165,0.331
		c-0.101,0.038-0.042-0.214-0.081-0.224c-0.169-0.058-0.179,0.097-0.336,0c-0.024-0.02-0.157,0.126-0.245,0.116
		c-0.006,0-0.407-0.311-0.42,0.107c-0.06-0.485-0.322-0.379-0.502-0.563c-0.044-0.039,0.06-0.116,0.088-0.097
		c-0.018-0.01-0.173-0.233-0.165-0.233c-0.131,0.021-0.24,0.272-0.332,0.233c-0.024-0.01-0.199-0.223-0.17-0.233
		c-0.223,0.049-0.272,0.398-0.58,0.438c-0.08,0.028-0.213-0.194-0.249-0.204c-0.054-0.01-0.107,0.088-0.085,0.097
		c-0.213-0.087-0.221-0.281-0.495-0.097c0.26,0.553-0.32-0.33-0.251,0.204c-0.362,0.038-0.263-0.456-0.581-0.204
		c0.013-0.097,0.085-0.116,0.085-0.233c-0.067,0.098-0.228,0.078-0.255,0.233c-0.011-0.33-0.199-0.038-0.409-0.34
		c-0.287,0.068-0.391,0.369-0.75,0.34c-0.006,0.397-0.091,0.311,0,0.66c-0.165-0.456-0.378,0.087-0.583,0.223
		c-0.131,0.028-0.024-0.281-0.085-0.33c-0.037-0.058-0.213,0.049-0.242,0c-0.016-0.029,0.086-0.165,0.077-0.224
		c-0.013-0.164-0.152-0.058-0.412,0c-0.032-0.193,0.065-0.213,0.167-0.232c-0.099-0.31-0.341,0.166-0.417,0.232
		c-0.061,0.05-0.103-0.097-0.085-0.125c-0.191,0.165-0.246,0.252-0.335,0.456c-0.279-0.515-0.39,0.339-0.659-0.456
		c-0.203,0,0.176,0.349-0.251,0.232c-0.066-0.02-0.083-0.116-0.165-0.107c-0.124,0.01-0.18,0.175-0.332,0.224
		c-0.165,0.029-0.245-0.29-0.248,0.107c-0.215,0.116-0.319-0.524-0.335,0c-0.242-0.224-0.688-0.185-0.911-0.456
		c-0.237,0.281-0.421-0.039-0.501,0.349c-0.165,0.098-0.185,0.01-0.25,0c-0.074-0.029-0.217,0.214-0.247,0.214
		c-0.268,0.028-0.626-0.214-0.917,0c-0.037,0.019-0.065,0.213-0.078,0.223c-0.034,0.01-0.574-0.263-0.418,0.34
		c-0.793-0.709-1.263,0.582-1.906,0c-0.168,0.232-0.039,0.105-0.336,0.105c-0.132,0-0.141,0.117-0.246,0.107
		c-0.253-0.02-0.609-0.378-0.582,0c-0.16-0.35-0.388,0.077-0.497-0.34c-0.146,0.457-0.372,0.282-0.755,0.232
		c-0.096,0.272-0.332,0.359-0.332,0.775c-0.146-0.066-0.486,0.127-0.496-0.115c-0.128,0.232-0.546,0.33-0.749,0.437
		c-0.046,0.038-0.07,0.223-0.082,0.232c-0.117,0.04-0.135-0.494-0.164,0c-0.189-0.214-0.572,0.028-0.668,0
		c-0.09-0.029-0.194-0.204-0.25-0.232c-0.157-0.058-0.476-0.058-0.5-0.437c-0.494,0.029-0.796-0.979-1.165-0.436
		c-0.189-0.554-0.43,0.29-0.496-0.33c-0.266,0.493-1.088-0.359-1.244,0.33c-0.067-0.175-0.269-0.165-0.255-0.457
		c-0.184,0.282-0.36,0.039-0.499,0.232c-0.141-0.038-0.188-0.193-0.16-0.445c-0.126,0.146-0.226-0.01-0.332,0
		c-0.237,0-0.442,0.203-0.582,0.213c-0.093,0.021-0.126-0.203-0.165-0.213c-0.261-0.058,0.21,0.301-0.17,0.213
		c-0.051,0-0.17-0.261-0.25-0.319c-0.061-0.039-0.181,0.049-0.247,0c-0.027-0.029,0.024-0.194,0-0.223
		c-0.056-0.078-0.284,0.077-0.25-0.107c-0.16-0.097-0.19,0.194-0.25,0.214c-0.162,0.067-0.441-0.253-0.579,0.116
		c-0.085-0.116-0.17-0.223-0.253-0.33c-0.083,0.136-0.407,0.349-0.579,0.214c-0.013-0.01,0.005-0.214,0-0.214
		c-0.098,0-0.038,0.204-0.082,0.214c-0.17,0.028-0.986-0.369-1.167-0.106c-0.184-0.068,0.107-0.175-0.08-0.331
		c-0.006,0.243-0.577,0.68-0.583,0.224c-0.343,0.358-0.997,0.427-1.162-0.224c-0.354,0.107-0.422,0.078-0.912,0.107
		c-0.208-0.281-0.341-0.33-0.669-0.232c0.209-0.35-0.353-0.232-0.162-0.204c-0.083-0.01,0.012,0.106-0.083,0
		c-0.085-0.116-0.362-0.087-0.337,0.437c-0.109-0.039-0.128-0.194-0.245-0.232c-0.078,0.252-0.15,0.106-0.25,0.125
		c-0.06,0-0.196,0.272-0.334,0.331c-0.078,0-0.066-0.146-0.083-0.224c-0.241,0.407-0.587,0-0.915,0
		c-0.184,0-0.383,0.077-0.582,0.116c-0.259,0.039-0.557,0.107-0.831,0.107c-0.068-0.098-0.049-0.301-0.165-0.331
		c-0.124,0.05,0.034,0.137,0,0.331c-0.347,0.019-0.511-0.263-0.579,0.223c-0.112-0.116-0.109-0.379-0.248-0.446
		c-0.128,0.049,0.03,0.136,0,0.33c-0.218-0.116-0.429,0.378-0.421-0.106c-0.172-0.116-0.24,0.261-0.332,0.329
		c-0.056,0.039-0.1-0.088-0.078-0.106c-0.165,0.126-0.233,0.184-0.333,0.446c-0.119-0.059,0.007-0.106,0-0.233
		c-0.111-0.106-0.247,0.106-0.251,0.106c-0.114,0-0.02-0.154-0.085-0.213c-0.191-0.155-0.345,0.358-0.33-0.106
		c-0.1,0.34-0.24-0.068-0.252,0.319c-0.139,0.049-0.153-0.077-0.16-0.213c-0.206,0.252-0.558,0.039-0.999,0.106
		c-0.129,0.029-0.369,0.281-0.335-0.106c-0.138-0.039-0.157,0.087-0.162,0.213c-0.243-0.358-0.958,0.155-1.164-0.436
		c-0.155-0.01-0.179,0.145-0.337,0.116V14.87c-0.097,0.019-0.068,0.193-0.08,0.329c-0.165-0.311-0.324,0.077-0.497,0.106
		c-0.163,0.039-0.432-0.242-0.502,0.106c-0.03-0.339-0.584,0-0.415-0.436c-0.22-0.029-0.354,0.038-0.332,0.329
		c-0.166-0.185-0.104,0.021-0.328,0c-0.077-0.185-0.201-0.319-0.251-0.543c-0.216,0.02,0.111,0.185,0,0.437
		c-0.1-0.32-0.454-1.048-0.75-0.437c-0.489-0.495-1.333-0.358-1.578,0.33c-0.252-0.088-0.301,0.106-0.502,0.106
		c-0.141-0.068,0.01-0.523-0.16-0.553c0.237-0.165,0.029,0.059,0-0.34c-0.012-0.077,0.092-0.097,0.083-0.213
		c-0.073-0.718-0.139-1.889-0.172-2.873c0-0.226,0.133-0.32,0.09-0.551c-0.012-0.058-0.09-0.137-0.09-0.118
		C1.269,8.705,1.31,6.539,1.281,5.023C1.276,4.936,1.4,4.842,1.359,4.689c0.191,0.046,0.036,0.553,0.09,0.773
		c0.41-0.296,0.495,0.417,0.996,0.111c-0.167,0.228-0.167,0.109,0,0.335c0.08-0.01,0.061-0.136,0.08-0.221
		c0.131,0.31,0.163,0.066,0.497,0.104C2.981,6.146,3.313,6.085,3.109,6.353h0.165c0.121-0.048-0.037-0.143,0-0.334
		c0.116,0.01,0.237,0.02,0.249-0.109c0.095,0.021,0.044,0.109,0,0.109c0.403,0.448,0.745-0.32,0.915,0.443
		c0.078-0.085,0.124-0.204,0.165-0.33c0.208,0.015,0.024,0.374,0,0.436c0.075-0.063,0.308-0.254,0.249,0.11
		c0.221-0.226,0.252-0.306,0.667-0.216C5.223,6.185,5.602,6.343,5.434,5.909c0.1,0.05,0.167,0.143,0.167,0.334
		c0.109-0.146,0.303-0.146,0.412,0c-0.18-0.531,0.172-0.259,0.417-0.111c0.147-0.281,0.104-0.123,0.412-0.114
		c-0.046-0.092-0.097-0.196,0-0.226c-0.044-0.099-0.23-0.162-0.08-0.218c0-0.106-0.099-0.083-0.165-0.111
		c0.141-0.286,0.415,0.172,0.33,0.555c0.18-0.087,0.067-0.57,0.252-0.664c-0.077-0.301-0.189,0.339-0.337,0
		c0.02-0.192,0.143-0.25,0.337-0.221C7.141,4.886,6.72,5.023,6.763,5.242c-0.184-0.046,0.08-0.189,0.08-0.219
		C6.848,4.936,6.68,4.721,6.68,4.689c0-0.158,0.102-0.019,0.083,0c0.151-0.136-0.194-0.284,0-0.441
		c-0.421,0.32-0.07,0.972-0.417,1.326C6.07,5.497,6.431,5.242,6.431,5.242C6.426,5.023,6.217,5.123,6.266,4.803
		c0.063-0.201,0.085,0.063,0.08,0.22c0.206-0.019,0.024-0.373,0-0.44C5.934,4.76,6.324,4.976,6.181,5.242H5.929
		C6.125,4.803,5.73,4.479,5.602,4.469C5.415,4.512,5.565,5.014,5.519,5.242c-0.05-0.276-0.339-0.158-0.17,0
		c-0.039,0.284-0.235-0.105-0.164-0.33c0.106-0.133,0.125-0.045,0.249,0C5.558,4.377,5.051,4.68,5.1,4.248
		c-0.226,0.335,0.199,0.305,0,0.775c-0.071-0.067-0.148-0.138-0.166,0c-0.303-0.067,0.221-0.56-0.172-0.44
		c0.034-0.148,0.15-0.177,0.172-0.335c-0.257-0.09-0.16,0.3-0.414,0.221C4.367,4.387,4.564,4.345,4.689,4.354
		C4.562,4.052,4.341,4.178,4.268,4.469c-0.245-0.092,0.106-0.281,0-0.556c0.305,0.157,0.836,0,0.917,0.441
		c0.239,0,0.45,0.042,0.664-0.106c0.055-0.034,0.136-0.206,0.165-0.221C6.15,3.962,6.44,4.354,6.431,3.805
		c0.315,0.531,0.308-0.207,0.412-0.551c0.187,0.059-0.034,0.23,0,0.334c0.027,0.068,0.116-0.1,0.085-0.109
		C7.025,3.521,6.959,3.588,7.01,3.692C7.075,3.824,7.224,3.766,7.18,4.139c0.201,0.139,0.4-0.244,0.413,0
		C7.718,4.047,7.57,3.971,7.675,3.692c0.191,0.163,0.538,0.103,0.497,0.556c-0.132,0.029-0.144-0.1-0.248-0.109
		c-0.009,0.197,0.1,0.233,0.085,0.444c0.163,0,0.107-0.306,0.335-0.229c-0.1,0.051-0.1,0.543,0,0.229
		c0.089,0.019,0.041,0.106,0,0.106v0.223c-0.184-0.39-0.197-0.271-0.5-0.109V4.354c-0.232,0.042-0.147,0.345,0,0.449
		c-0.048,0.23-0.135,0.235-0.251,0.109c-0.083,0-0.066,0.131-0.083,0.221C7.216,5.104,7.66,4.641,7.427,4.689
		c0.045-0.325,0.128,0.167,0.248,0.114c-0.12-0.325-0.294-0.57-0.665-0.555c0.015-0.09,0.085-0.109,0.085-0.221
		c-0.07,0.034-0.216,0.161-0.167,0.327c0.005,0.018,0.16,0.177,0.167,0.115c-0.02,0.133-0.177,0.162-0.252,0.334
		c0.022,0.225,0.366,0.024,0.419,0.22C7.195,5.271,7.185,5.473,7.18,6.018c0.289-0.104-0.077-0.444,0.413-0.33
		C7.57,5.536,7.386,5.596,7.262,5.574c0.019-0.461,0.413,0.208,0.33-0.441c0.266,0.216-0.02,0.521,0.251,0.776
		c0.148,0.1,0.201-0.211,0.246-0.221c0.068-0.015,0.092,0.144,0.165,0.104c0.063-0.019,0.145-0.206,0.169-0.218
		c0.095-0.029-0.039,0.444,0.25,0.114c0.143-0.162,0.078-0.279,0.248,0c0.186-0.063-0.103-0.172,0.084-0.334
		c0.092,0.019,0.049,0.109,0,0.109c0.034,0.215,0.323,0.092,0.25,0.446c0.25,0.079,0.32-0.844,0.329-0.117
		c0.117-0.104,0.167-0.291,0.255-0.438c0.204,0.014,0.255,0.21,0.33-0.112c0.221-0.08,0.165,0.221,0.327,0.221
		c0.191-0.066-0.097-0.172,0.085-0.33c0.095,0.02,0.045,0.109,0,0.109c0.005,0.107,0.099,0.092,0.165,0.112
		c-0.015,0.119-0.165,0.075-0.165,0.22c0.039,0.18,0.106-0.048,0.249,0c0.018,0.012-0.012,0.199,0,0.218
		c0.03,0.049,0.546,0.01,0.25-0.104c0.036-0.162,0.104,0.044,0.248,0c0.029,0.177-0.073,0.191-0.078,0.33
		c0.07-0.087,0.187-0.119,0.327-0.109c0.114-0.078,0.158-0.24,0.17-0.446c0.056,0.158,0.317,0.014,0.334,0.225
		c0.209-0.296-0.187-0.816,0.411-0.665c0.034-0.264-0.376,0.061-0.25-0.334c0.097,0.138,0.315,0.046,0.419-0.106
		c0.095,0.019,0.066,0.196,0.08,0.329c0.12,0.015,0.236,0.024,0.252-0.109c-0.017-0.133-0.085-0.063-0.085,0
		c-0.191-0.063,0.046-0.645,0.165-0.334c0.034-0.26-0.15-0.236-0.08-0.556c-0.153,0.63-0.257-0.059-0.501-0.221
		c-0.08,0.011-0.037,0.163,0,0.221c0.043,0.067,0.128,0.053,0.169,0.114c-0.005-0.007-0.119,0.35,0.165,0.327
		c-0.017,0.158-0.249,0.046-0.249,0.229c-0.175-0.035-0.025-0.492-0.17-0.556c-0.211,0.024,0.114,0.192,0,0.442
		c-0.165-0.073-0.34-0.331-0.165-0.556c-0.232,0.138-0.25,0.55-0.33,0.89c-0.167-0.22-0.163,0.049-0.335,0.109
		c-0.058,0.34,0.146,0.33,0.083,0.662c-0.075-0.303-0.41-0.255-0.58-0.441c-0.068,0.015-0.252,0.369-0.078,0.33
		c-0.276,0.225-0.083-0.43,0.078-0.551c0.119,0.054-0.009,0.092,0,0.221c0.066-0.02,0.083-0.109,0.17-0.109
		c-0.058-0.22-0.252-0.249-0.333-0.44c0.032-0.139,0.104-0.229,0.246-0.229c-0.034-0.092-0.066-0.196-0.161-0.216
		c-0.078,0.226-0.232,0.354-0.336,0.551c-0.092-0.029-0.054-0.22-0.17-0.22c-0.034,0.201-0.18,0.162-0.08,0.554
		c-0.046-0.111-0.429-0.492-0.083-0.44C10.21,4.345,9.778,4.65,9.839,5.023c-0.073,0.02-0.083-0.038-0.087-0.111
		c0.015-0.094-0.034-0.104-0.083-0.109c0.017-0.133,0.083-0.063,0.083,0c0.134-0.114,0.189-0.3,0.087-0.449
		c-0.341,0.119-0.397-0.029-0.834,0c0.174-0.618,0.88,0.148,0.912-0.662c0.257,0.163,0.41,0.328,0.665,0.112
		c0.106-0.34,0.111,0.315-0.085,0.223c0.085,0.111,0.165,0.225,0.25,0.327c0.251-0.067-0.075-0.235,0-0.441
		c0.082,0.067,0.315,0.254,0.256-0.109c0.192,0.039,0.473,0.535,0.657,0.223c-0.024-0.172-0.145,0.092-0.163-0.114
		c0.07-0.693,0.691,0.067,0.665-0.434c0.254,0.129,0.599,0.148,0.832,0.325c0.061-0.279,0.175-0.059,0.247-0.112
		c0.09-0.055,0.083-0.261,0.252-0.213c-0.5,0.315,0.402,0.567,0.412,0.109c0.085,0.216,0.311,0.245,0.416,0.439
		c0.147-0.104,0.291-0.204,0.249-0.548c0.148,0.248,0.316,0.404,0.582,0.213c-0.043-0.157-0.128-0.271-0.247-0.329
		c-0.155-0.296,0.251,0.135,0.334,0.225c0.296-0.225,0.357-0.058,0.58-0.334c0.054,0.059,0.25,0.449,0.33,0.109
		c0.216,0.009,0.09,0.47,0.417,0.329v0.335c0.097-0.017,0.07-0.204,0.085-0.335c0.242,0.299,0.056,0.427,0.244,0.997
		c0.316-0.216,0.185,0.104,0.417,0.223c-0.165-0.262,0.039-0.262,0.083,0c0.107-0.204,0.371-0.487,0.582-0.223
		C17.813,4.435,18,4.573,18.059,4.354c-0.034-0.206-0.381-0.01-0.245-0.441c0.116-0.054,0.201,0.431,0.245,0.114
		c0.07,0.083,0.1,0.327,0,0.556c0.167-0.051,0.545-0.257,0.336,0.106c0.364-0.121,0.425,0.031,0.744-0.106
		c0.065,0.284,0.537,0.019,0.498,0.44c0.253-0.717,0.277,0.335,0.333-0.554c-0.345-0.016-0.333,0.261-0.25-0.221
		c-0.104,0.049-0.168,0.148-0.164,0.335c-0.197-0.405-0.065,0.067-0.418,0c0.207-0.196,0.136-0.206-0.085-0.335
		c-0.096,0.019-0.063,0.206-0.087,0.335c-0.237-0.1-0.09-0.167-0.075-0.444c-0.104,0.124-0.169,0.1-0.164-0.111
		c0.334,0.092,0.284,0.02,0.661,0c0.029-0.252,0.362-0.104,0.332-0.439c0.08,0.221,0.268,0.306,0.414,0.439
		c0.106-0.051,0.171-0.144,0.167-0.335c0.107,0.054,0.172,0.141,0.167,0.335c0.144-0.194,0.369-0.31,0.501,0
		c0.112-0.114,0.245-0.184,0.329-0.335c0.247,0.097-0.192,0.172-0.083,0.446c0.175-0.244,0.531-0.674,0.587-0.225
		c0.095-0.019,0.069-0.196,0.083-0.325c0.08,0,0.063,0.129,0.08,0.216c0.096-0.015,0.067-0.207,0.082-0.325
		c0.171,0.286,0.325,0.089,0.502,0.213c-0.048,0.092-0.087,0.182-0.087,0.335c-0.23-0.153-0.458,0.255-0.832,0
		c-0.093-0.051-0.043,0.206-0.081,0.221c0.052-0.029-0.393,0.004-0.42,0c-0.063-0.015-0.213-0.216-0.244-0.221
		c-0.155-0.021-0.367,0.192-0.498,0c-0.04,0.235,0.117,0.216,0.248,0.221c-0.194,0.432,0.157,0.34,0.166,0.775
		c0.205-0.116,0.266-0.501,0.413-0.111c0.095-0.026,0.048-0.109,0-0.109c0.022-0.163,0.253-0.039,0.253-0.22
		c0.015-0.1-0.032-0.109-0.085-0.114c0-0.26,0.228,0.038,0.167,0.22c0.109-0.126,0.128-0.039,0.252,0
		c0.207-0.078-0.157-0.293-0.086-0.551c0.065,0.061,0.133,0.114,0.25,0.109c-0.032,0.039-0.164,0.359,0,0.441
		c-0.08-0.039,0.375-0.059,0.247,0c0.293-0.146,0.141-0.325,0.25-0.551c0.039-0.078,0.101,0.109,0.087,0.109
		c0.184,0,0.014-0.415,0.083-0.556c0.149-0.041,0.095,0.265,0.162,0.335c0.063,0.063,0.245-0.271,0.082,0.111
		c0.185,0.02,0.397,0.133,0.585,0.216c0.247-0.067-0.08-0.235,0-0.441c0.076,0.092,0.186,0.128,0.33,0.114v0.327
		c0.1-0.015,0.076-0.196,0.085-0.327c0.095,0.02,0.067,0.206,0.082,0.327c0.194-0.039,0.393-0.067,0.335-0.441
		c0.091,0.245,0.633-0.109,0.494,0.441c0.303-0.102-0.006-0.201,0.17-0.441c0,0,0.506,0.177,0.332-0.434h0.662
		c0.066,0.089,0.088,0.248,0.085,0.434c0.112-0.139,0.25-0.059,0.333,0.114c0.181,0.073-0.111-0.375,0.164-0.439
		c0.208-0.053,0.107,0.245,0.088-0.334c0.048,0.512,0.281-0.158,0.494-0.114c0.042,0.015,0.109,0.223,0.085,0.223
		c0.244-0.051,0.125-0.334,0.335-0.223c-0.104,0.152-0.037,0.172,0,0.339c0.093-0.024,0.043-0.116,0-0.116
		c0.109-0.187,0.431-0.08,0.411-0.444c0.591,0.049,0.979-0.063,1.25,0c0.01,0.005-0.162,0.316,0,0.11
		c0.109-0.144,0.133-0.105,0.249,0.111c0.053,0.104,0.171,0.371,0.247,0c0.119,0.027-0.075,0.552,0,0.887
		c-0.175-0.046-0.218,0.073-0.332,0.111c0.261,0.128,0.649,0.144,0.999,0.551c0.063-0.073,0.261-0.461,0.25,0
		c0.091-0.039,0.205-0.196,0.082-0.22c0.022-0.26,0.308,0.009,0.331,0.114c0.17-0.08-0.081-0.369,0.082-0.444
		c0.251,0,0.093,0.435,0.251,0.773c0.164-0.213,0.151,0.063,0.415,0c-0.221-0.124-0.123-0.434,0.085-0.223
		c-0.014-0.087-0.085-0.106-0.085-0.22c-0.271-0.134-0.065,0.358-0.33,0.22c-0.011-0.196,0.103-0.236,0.083-0.441
		c0.063,0.058,0.133,0.116,0.247,0.106c0.107-0.187-0.167-0.201-0.167-0.216c0-0.187,0.31-0.215,0.417-0.111
		c0,0.221-0.226,0.141-0.166,0.442c0.138,0.038,0.157-0.083,0.166-0.221c0.147,0.235,0.004,0.325,0,0.664
		c0.147-0.104,0.109-0.449,0.412-0.329c-0.061-0.1-0.086-0.248-0.077-0.444c0.138-0.038,0.154,0.09,0.165,0.216
		c0.282-0.344,0.314,0.042,0.664,0c-0.022,0.124-0.162,0.08-0.162,0.229c0.011,0.087,0.08,0.106,0.08,0.22
		c0.215-0.187,0.277-0.458,0.494-0.114c0.183-0.073-0.157-0.369-0.247-0.441c0.07-0.187,0.383,0.221,0.414,0.441
		c0.409-0.029-0.271-0.708,0.168-0.441c-0.046-0.09-0.085-0.177-0.083-0.334c-0.228-0.196-0.162,0.492-0.252,0.114
		c0.022-0.194,0.147-0.252,0.335-0.223c0.143,0.567,0.01,0.816,0.332,1.107c0.126-0.045-0.029-0.138,0-0.329
		c0.095,0.019,0.147-0.03,0.165-0.114C34.5,4.548,34.552,4.67,34.59,4.803c0.098-0.35,0.241,0.054,0.25-0.334
		c0.332-0.035,0.827,0.143,0.832-0.331c0.114,0.029,0.067,0.277,0.082,0.444c0.078-0.229,0.264-0.306,0.418-0.444
		c-0.021-0.143-0.168-0.111-0.168,0c-0.116,0.015,0.033-0.451-0.167-0.111c-0.124-0.051,0.034-0.144,0-0.335
		c0.439,0.063,0.706-0.291,0.747,0.335c-0.128,0.034-0.14-0.104-0.25-0.114v0.334c0.484-0.177-0.046,0.058,0.167,0.441
		c0.245-0.255,0.311,0.213,0.415,0c0.1,0.019,0.072,0.196,0.087,0.334c0.098-0.019,0.069-0.206,0.078-0.334
		c0.071-0.019,0.229,0.223,0.255,0.223c0.053-0.005,0.162-0.223,0.162-0.223c0.112,0.01,0.131,0.218,0.251,0.223
		c0.183,0.005,0.207-0.094,0.332-0.109c0.131-0.024,0.221,0.109,0.249,0.109c0.138-0.005,0.335-0.329,0.413-0.109
		c0.098-0.039,0.212-0.196,0.083-0.22c0.058-0.326,0.194,0.106,0.17,0.106c0.228,0,0.176-0.383,0.497-0.441
		c-0.022-0.228-0.369-0.029-0.335-0.334c-0.162,0.206-0.356,0.107-0.416,0.225c-0.004-0.152-0.214-0.191-0.163-0.111
		c-0.104-0.144,0.063-0.223-0.168-0.439c0.029-0.157,0.151-0.02,0.168,0.104c0.194-0.462,0.36-0.305,0.667-0.552
		c0.031,0.232-0.061,0.291-0.088,0.448c0.104-0.053,0.17-0.147,0.165-0.334c0.08,0.068,0.15,0.133,0.17,0
		c0.096,0.344,0.24-0.058,0.25,0.334c0.237-0.024,0.378-0.453,0.409,0.104c0.104-0.041,0.178-0.133,0.173-0.329
		c0.18,0.049,0.284,0.121,0.409,0.116c0.274-0.02,0.213-0.317,0.585-0.116c0.084,0.043,0.313,0.196,0.332,0.225
		c0.022,0.02-0.019,0.201,0,0.216c0.063,0.05,0.17-0.216,0.17-0.216c0.136,0.039-0.048,0.191,0,0.216
		c0.131,0.07,0.181-0.167,0.33-0.112c0.031,0.015-0.005,0.117,0.082,0.112c0.203-0.015,0.649-0.284,0.415,0.109
		c0.053-0.148,0.319-0.009,0.332-0.221c0.171,0.035,0.165,0.294,0.25,0.446c0.063-0.324,0.414-0.264,0.502-0.55
		c0.056,0.531,0.55-0.354,0.579,0.216c0.107-0.025,0.107-0.325,0-0.325c0.054-0.157,0.178-0.206,0.338-0.226
		c0.01,0.095-0.04,0.104-0.085,0.109c-0.054,0.116-0.078,0.441-0.253,0.664c-0.284-0.041-0.465-0.262-0.579,0.221
		c-0.237,0,0.199-0.301-0.165-0.221c-0.048,0.078-0.066,0.516-0.337,0.221c0.039,0.422,0.458,0.354,0.664,0.555
		c0.104-0.068-0.053-0.417,0.083-0.665c0.21,0.286-0.184,0.65,0.251,0.665c0.013,0-0.034-0.172-0.085-0.114
		c0.005-0.255,0.226,0.041,0.167,0.223c0.289-0.036-0.01-0.3,0.165-0.329c-0.051-0.229-0.414-0.035-0.332-0.444
		c0.221,0.109,0.386,0.301,0.585,0.444c0.058-0.374-0.34-0.144-0.253-0.556c0.075,0.048,0.149,0.092,0.173,0.221
		c0.072,0,0.058-0.138,0.081-0.221c0.228,0.172,0.009,0.662-0.081,0.776c0.039,0.25,0.125-0.143,0.242,0.109
		c0.1-0.026,0.075-0.204,0.082-0.329c0.239,0.206,0.124,0.363,0.505,0.22v0.22c0.063-0.019,0.077-0.111,0.162-0.111
		c-0.035-0.315-0.356-0.262-0.412-0.558c-0.056-0.368,0.531-0.46,0.25-0.766c-0.051-0.462,0.317,0.119,0.246,0.104
		c0.152,0.035,0.309-0.232,0.586-0.104c0.04,0.245-0.164,0.158-0.168,0.325c0.136,0.254,0.306-0.383,0.329-0.66
		c0.058,0.369,0.366-0.029,0.417,0c0.162,0.073,0.067,0.187,0.165,0.334c0.091,0.129,0.353,0.01,0.249,0.325
		c-0.418-0.049-0.04-0.196-0.414-0.221c-0.109,0.112-0.164,0.299-0.332,0.335c0.063,0.436,0.063,0.442,0,0.885
		c-0.17-0.251-0.274-0.138-0.499-0.443c-0.067,0.053-0.138,0.119-0.248,0.114c0.03,0.374,0.324-0.296,0.248,0.22h-0.333
		c-0.027,0.25,0.242,0.124,0.251,0.33c0.086,0.058,0.053-0.216,0.082-0.221c0.164-0.036,0.095,0.284,0.166,0.33
		c0.088,0.058,0.174-0.105,0.168-0.109c0.034,0.02,0.119,0.502,0.25,0.109c0.277-0.07,0.036,0.245,0.083,0.332
		c0.125,0.248,0.253,0.133,0.499,0.218c0.074-0.069,0.124-0.196,0.162-0.329c0.087,0.029,0.058,0.225,0.17,0.225
		c0.092-0.182,0.553-0.458,0.832-0.446c-0.046,0.092-0.09,0.187-0.085,0.332c0.314,0.09,0.106-0.521,0.164-0.771
		c0.21,0.1,0.5-0.397,0.5,0.109c-0.255-0.075-0.157-0.075-0.415,0c-0.159,0.298,0.194,0.177,0.245,0.33
		c0.027,0.058-0.12,0.146-0.08,0.221c0.066,0.111,0.211,0,0.25,0.329c0.114-0.138,0.165-0.334,0.247,0
		c0.144-0.094,0.32-0.363,0.168,0c0.189-0.157,0.507-0.717,0.417-0.88c0.018-0.119,0.165-0.075,0.165-0.223
		c0.25,0.031,0.579,0.521,0.497-0.22c0.12,0.099,0.12,0.358,0.172,0.554c-0.128,0.129-0.213,0.129-0.334,0
		c0.034,0.473,0.47,0.406,0.579,0.769c0.095-0.099-0.005-0.247,0.167-0.438c0.108-0.015,0.306,0.373,0.33,0.109
		c0.123,0.053-0.005,0.102,0,0.225c0.083,0.134,0.34-0.296,0.497,0.104c0.068-0.143-0.129-0.228-0.081-0.329
		c0.024-0.066,0.416,0.23,0.416-0.439c0.147,0.1,0.283,0.411,0.255-0.111c0.104,0.111,0.156,0.298,0.323,0.33
		c0.149-0.158-0.109-0.228,0.248-0.109c-0.041-0.089-0.08-0.176-0.08-0.33c0.09,0.024,0.054,0.211,0.167,0.22
		c0.078-0.097,0.053-0.274,0.085-0.669c0.093,0.022,0.074,0.209,0.083,0.335c0.067-0.226,0.452-0.274,0.249-0.551
		c0.037-0.279,0.178,0.177,0.163,0.331c0.07,0.063,0.08-0.221,0.085-0.221c0.106,0.029,0.024,0.187,0.082,0.221
		c-0.087-0.054,0.377-0.044,0.257,0c0.206-0.083,0.158-0.369,0.408-0.331c-0.045-0.087-0.083-0.182-0.083-0.334
		c0.461-0.236,0.618-0.236,1.083,0c-0.328,0.206,0.107,0.276-0.086,0.55c0.246,0.109,0.105-0.264,0.086-0.216
		c0.132-0.383,0.379-0.451,0.83-0.446c0.039,0.231-0.059,0.294-0.083,0.446c-0.033,0.172,0.315,0.369,0.33,0.109
		c-0.015-0.138-0.165-0.109-0.165,0c-0.257-0.201,0.262-0.296,0.165-0.66c0.105,0.104,0.16,0.295,0.257,0.439
		c0.228-0.213,0.421,0.206,0.49,0.221c0.058,0.014,0.14-0.167,0.247-0.109c0.136,0.071,0.155,0,0.256,0
		c0.107,0,0.194,0.277,0.326,0.109c0.223,0.097-0.142,0.315-0.326,0.221v0.334c0.452-0.054,0.393-0.407,0.244,0.22
		c0.256-0.259,0.363-0.421,0.658-0.22v-0.22c-0.009-0.238-0.363-0.035-0.411-0.229c0.335-0.417,0.728,0.042,1.173-0.216
		c0.185,0.029,0.175,0.34,0.335,0.444c-0.064,0.274-0.277-0.405-0.335,0.106c0.098,0.434,0.48-0.158,0.577,0.334
		c0.218-0.167-0.039-0.608-0.242-0.554c0.194-0.532,0.364-0.134,0.654,0c-0.02,0.123-0.165,0.074-0.165,0.22
		c-0.077,0-0.058-0.136-0.087-0.22c-0.218,0.23,0.223,0.319,0,0.664c0.105-0.119,0.175-0.095,0.165,0.109
		c0.096-0.296,0.333-0.158,0.17,0.112c0.29,0.06,0.125-0.427,0.175-0.551c0.028-0.133,0.178-0.191,0.158-0.449
		c0.069,0.177,0.402-0.019,0.335,0.335c-0.237-0.019-0.455-0.01-0.416,0.334c0.063-0.009,0.315,0.248,0.416,0.219
		c0.01,0,0.335-0.582,0.412,0c0.039-0.07,0.223-0.148,0.242-0.219c0.083-0.264-0.28,0.206-0.154-0.22
		c0.135-0.163,0.479,0.083,0.324-0.114c0.155-0.293,0.354,0.385,0.51-0.106c0.208,0.009,0.122,0.412,0.237,0.55
		c0.117-0.109,0.117-0.373,0.248-0.443c0.314,0.075,0.412,0.492,0.755,0.223c-0.266,0.417-0.173,0.589-0.343,1.106
		c0.522-0.177-0.098-0.841,0.513-0.995c0.089,0.144,0.02,0.172,0,0.331c0.312,0.162,0.01-0.497,0.33-0.331
		c-0.105-0.111-0.737,0.02-0.5-0.44c0.21,0.374,0.117,0.038,0.335,0.106c0.107,0.041,0.374-0.293,0.491-0.335
		c0.11-0.019,0.198,0.199,0.416,0v-0.55c0.155,0.374,0.364,0.531,0.747,0.334c0.02,0.248-0.058,0.345-0.247,0.331
		c0.189,0.377,0.219-0.202,0.334-0.221c0.228-0.029,0.098,0.344,0.078,0.335c0.01,0.005,0.189-0.104,0.247-0.114
		c0.127-0.016,0.127,0.104,0.175,0.114c0.141,0.019,0.358-0.114,0.572,0.106c0.17-0.049,0.363-0.039,0.345-0.335
		c0.067,0.219,0.304,0.689,0.411,0.229c0.247,0.167-0.059,0.492-0.241,0.44c0.019-0.138-0.021-0.196-0.094-0.22
		c-0.126,0.043-0.076,0.35-0.335,0.22c0.01,0.109,0.112,0.081,0.17,0.109c0.029,0.191-0.058,0.207-0.17,0.221
		c0.199,0.353,0.524-0.301,0.582,0.22c0.258-0.135-0.115-0.421,0.088-0.551c0.111,0.071,0.161,0.238,0.17,0.439
		c-0.088,0.073-0.088,0.26-0.258,0.225c0.229,0.626,0.689-0.114,0.917,0.33c0.232-0.092,0.098-0.167,0.088-0.444
		c0.106,0.114,0.154,0.296,0.247,0.444c0.097-0.03,0.087-0.226,0-0.226c0.077,0,0.479-0.187,0.668,0
		c-0.081-0.228-0.009-0.511-0.179-0.55c-0.097-0.022-0.412,0.521-0.164-0.219c-0.17-0.048-0.15,0.158-0.16,0.331h-0.258
		c-0.01-0.192,0.093-0.221,0.093-0.112c0.087-0.022,0.067-0.199,0.077-0.33c-0.275,0.044-0.46,0.26-0.582-0.223
		c-0.105,0.187,0.069,0.62-0.077,0.885c-0.117-0.126-0.155-0.589-0.165,0c-0.15,0.356,0-0.57-0.247-0.441v-0.55
		c0.165,0,0.097,0.298,0.324,0.22c-0.048-0.114-0.199-0.114-0.159-0.334c0.324-0.03,0.582,0.043,0.659,0.334
		c0.132-0.043-0.028-0.143,0-0.334c0.097-0.27,0.345,0.266,0.335-0.221c0.097,0.019,0.067,0.206,0.077,0.335
		c0.02,0.005,0.198-0.129,0.247-0.114c0.116,0.034,0.03,0.181,0.088,0.22c0.091,0.06,0.228-0.265,0.091,0.114
		c0.137,0.024,0.402-0.32,0.491,0c0.188-0.063-0.098-0.172,0.076-0.334c0.239,0.458,0.965-0.449,0.927,0.334
		c0.137-0.104,0.208-0.31,0.49-0.22c0.029,0.22-0.019,0.344-0.165,0.329c0.106,0.131,0.039,0.422-0.078,0.551
		c0.185,0.083,0.146,0.468,0.243,0.669c0.082-0.085,0.189-0.123,0.334-0.114c0.093-0.432-0.295-0.393-0.077-0.664
		c0.087,0.014,0.067,0.201,0.077,0.334c0.103-0.124,0.18-0.102,0.17,0.104c0.038-0.152,0.193-0.019,0.165,0
		c0.103-0.069,0.131-0.363,0.325-0.104c0.048-0.269-0.137-0.24-0.079-0.555c0.364-0.08-0.058,0.221,0.17,0.221
		c0.254-0.279-0.333-0.359-0.17-0.885c0.776-0.063,1.102-0.097,1.664,0c0.02,0.181-0.077,0.191-0.077,0.334
		c0.145-0.024,0.185-0.191,0.165-0.449c0.169,0.051,0.451,0.262,0.494-0.106c0.203,0.019,0.02,0.373,0,0.441
		c0.301,0.109,0.088-0.475,0.252-0.551c0.121,0.133,0.248-0.111,0.413-0.111c0.11,0.005,0.159,0.131,0.247,0.111
		c0.105-0.034,0.141-0.206,0.247-0.225c0.165-0.019,0.296,0.114,0.335,0.114c0.105,0.015,0.136-0.104,0.165-0.114
		c0.058,0,0.11,0.102,0.081,0.114c0.079-0.021,0.214-0.213,0.242-0.223c0.17-0.039,0.374,0.039,0.515,0
		c0.058-0.02,0.213-0.216,0.242-0.216c0.055-0.01,0.103,0.099,0.17,0.104c0.165,0.025,0.237-0.275,0.237,0.112
		c0.068-0.482,0.538,0.143,0.345-0.112c0.136-0.349,0.175,0.35,0.49,0.112c-0.208,0.395-0.481,0.242-0.66,0.223
		c-0.01,0,0.01-0.218,0-0.223c-0.058-0.049-0.097,0.147-0.247,0.109c-0.058-0.009-0.097-0.134-0.165-0.109
		c-0.077,0.019-0.135,0.216-0.17,0.223c-0.145,0.034,0.045-0.204,0-0.223c-0.232-0.097-0.374,0.286-0.577,0.55
		c0.02-0.303-0.285-0.206-0.503,0c0.058,0.335,0.188-0.102,0.323,0c0,0.109-0.096,0.09-0.153,0.115
		c0.058,0.22,0.256,0.251,0.333,0.443c0.146-0.085,0.01-0.204,0-0.329c0.225-0.211,0.029,0.501,0.155,0.659
		c0.17-0.046,0.01-0.507,0.345-0.33c0.02-0.291-0.038-0.478-0.257-0.443c0-0.068,0.111-0.134,0.169-0.115
		c0.107,0.051,0.011,0.148,0.088,0.229c0.048,0.058,0.087-0.104,0.077-0.114c0.093,0.063,0.01,0.133,0.083,0.22
		c0.067,0.09,0.558,0.075,0.324,0c0.078,0.019,0-0.111,0.098,0c0.155,0.196,0.185-0.102,0.325,0.223
		c0.01-0.339,0.105,0.044,0.343-0.223c-0.048-0.216-0.246,0.177-0.178-0.335c0.188,0.099,0.305,0.276,0.247,0.669
		c0.146-0.097,0.155-0.393,0.256-0.554c0.156-0.025,0.039,0.397,0,0.334c0.089,0.163,0.214-0.015,0.335,0.109
		c0.146,0.172-0.066,0.153,0.166,0.111c0.139-0.029,0.218,0.224,0.246,0.219c0.165-0.022,0.228-0.276,0.247-0.33
		c-0.02-0.104-0.484,0.054-0.247-0.329c0.077,0.005,0.058,0.125,0.087,0.22c0.098-0.043,0.16-0.143,0.16-0.334
		c0.107,0.114,0.315,0.104,0.335,0.334c0.185-0.024-0.091-0.215-0.091-0.22c0.038-0.229,0.179,0,0.179,0
		c0.145-0.076,0.049-0.316,0.247-0.335c-0.028-0.138-0.17-0.109-0.17,0c-0.193-0.354,0.209-0.267,0.505-0.221
		c-0.103,0.378,0.213,0.839-0.093,0.556c0.038,0.138,0.112,0.225,0.257,0.22c0.078-0.029,0.049-0.22,0.17-0.22
		c-0.082-0.196-0.345-0.144-0.257-0.556c0.136-0.046,0.155,0.083,0.165,0.221c0.189-0.242,0.285,0.196,0.503,0.221
		c-0.067,0.147-0.218-0.054-0.411,0.114c0.038,0.56-0.082,0.293-0.257,0.44c0.038,0.09,0.087,0.177,0.087,0.331
		c0.208-0.359,0.393-0.125,0.325,0.438c0.277,0.097,0.266-0.167,0.335-0.329c0.218,0.191,0.325-0.172,0.335,0.225
		c0.067-0.067,0.218-0.665,0.256-0.114c0.156-0.191,0.224-0.5,0.412-0.662c-0.077-0.339-0.141,0.27-0.345,0
		c0.01,0.015,0.089-0.223,0.089-0.223c-0.228,0.09-0.287,0.213-0.412,0.665c-0.15,0.029-0.18-0.102-0.088-0.112
		c0.126-0.089,0.116-0.356,0.165-0.553c0.15,0.041,0.16-0.087,0.179-0.22c0.305,0.128,0.364-0.105,0.489,0.22
		c0.088-0.106,0.17-0.216,0.248-0.335c0.247,0.099-0.188,0.167-0.088,0.449c0.107-0.506,0.32,0.281,0.345-0.22
		c0.194,0.019,0.02,0.374,0,0.44c-0.132,0.01-0.237,0.02-0.257-0.111c-0.188,0.063,0.097,0.172-0.088,0.33
		c0.039,0.25,0.529-0.013,0.253,0.332c0.189,0.021,0.267-0.087,0.257-0.332c-0.038-0.167-0.107,0.039-0.257,0
		c0.029-0.148,0.149-0.172,0.159-0.33c0.107,0.177,0.335,0.35,0.175,0.551c0.248,0.102,0.103-0.262,0.078-0.221
		c0.082-0.257,0.189-0.339,0.334-0.553c-0.116-0.325-0.281,0.196-0.489,0.114c0.029-0.211,0.315-0.095,0.247-0.449
		c0.242-0.029,0.306,0.449,0.412,0c0.193,0.042,0.184,0.306,0.078,0.449c0.199-0.114,0.275-0.378,0.592-0.334
		c-0.18,0.225,0.028,0.22,0.076,0.443c0.099-0.026,0.039-0.109,0-0.109c0.029-0.153,0.209-0.095,0.335-0.114
		c0.17,0.572,0.524,0.65,0.824,0.334c0.122,0.257,0.315,0.109,0.335,0.109c0.103,0.049,0.02,0.158,0.082,0.221
		c-0.01-0.015,0.345-0.073,0.5,0c0.208-0.211,0.46-0.478,0.67-0.112c-0.277-0.344,0.314-0.046,0.168-0.553
		c0.146,0.286,0.204,0.07,0.414,0.334c0.058,0.301-0.17,0.224-0.17,0.439c-0.214-0.024,0.12-0.191,0-0.439
		c-0.107,0.182-0.325,0.238-0.244,0.665c-0.11-0.015-0.101-0.296-0.168-0.334c-0.107-0.063-0.04,0.182,0,0.109
		c-0.06,0.133-0.345,0.359-0.248,0.669c-0.097-0.034-0.067-0.223-0.165-0.223c-0.229,0.157,0.306,0.247,0.165,0.659
		c-0.156-0.383-0.252,0.01,0,0.11c-0.01,0.215-0.324-0.187-0.335,0.225c-0.184-0.039,0.083-0.196,0.083-0.225
		c0-0.07-0.17-0.221-0.17-0.216c0.028-0.213,0.117,0.078,0.17,0c0.096-0.172-0.16-0.463-0.083-0.773
		c-0.194,0.104-0.262,0.378-0.242,0.773c-0.267-0.06-0.276-0.458-0.679-0.33c0.087-0.196,0.295-0.201,0.422-0.34
		c0.029-0.206-0.373-0.157-0.257,0.117c-0.116,0.017-0.021-0.245-0.068-0.335c0,0.012-0.257,0.184-0.18-0.111
		c-0.077,0.005-0.058,0.143-0.077,0.225c-0.126-0.325-0.193-0.124-0.5-0.114V5.242c-0.067-0.315-0.275-0.075-0.412-0.109
		c-0.16-0.039-0.188-0.197-0.246-0.221c-0.189-0.065-0.462,0.231-0.67,0c-0.189,0.192-0.314,0.456-0.412,0.776
		c0.363-0.22,0.048-0.201,0.412,0.221c0.068-0.02,0.078-0.117,0.165-0.117c-0.116-0.123-0.097-0.453-0.335-0.438
		c0.131-0.27,0.447,0.133,0.418,0.438c0.213-0.167,0.558,0.087,0.422,0.34c0.363-0.014,0.335-0.158,0.581,0
		c-0.063,0.221-0.236,0.354-0.093,0.546c0.307-0.08-0.077-0.521,0.414-0.435c-0.155,0.071-0.254,0.497,0,0.553
		c0.139,0.078,0.367-0.229,0.168-0.229c0.01-0.206,0.393,0.075,0.165,0.229c0.055-0.042,0.345-0.005,0.335,0
		c0,0,0.142-0.213,0.082-0.229c0.146,0.044,0.03,0.551,0.243,0.229c0.219-0.213-0.136,0.45-0.155,0.657
		c0.204-0.146,0.383-0.284,0.257,0.109c0.175-0.09,0.325-0.216,0.325-0.546c0.067-0.349,0.105,0.192,0.087,0.33
		c0.068-0.06,0.126-0.31,0.165-0.109c0.141-0.264,0.141-0.625,0.083-0.885c0.145,0.225,0.28,0.319,0.165,0.664
		c0.198,0.092,0.422-0.497,0.412,0c0.247-0.094-0.107-0.281,0-0.555c0.275,0.245,0.256-0.296,0.17-0.552
		c0.067-0.265,0.213,0.285,0.163,0.552c0.393-0.138,0.04-0.807,0.249-1.329c-0.335,0.039,0.086,0.306-0.335,0.109
		c-0.059-0.339,0.285-0.138,0.165-0.553c0.17,0.182,0.11-0.01,0.335,0c-0.05,0.354,0.295,0.152,0.091,0.443
		c0.307-0.438,0.67-0.216,1.159-0.109c-0.117,0.444,0.18,0.345,0.165,0.665c0.228-0.24,0.218-0.147,0.582-0.225
		c0.028-0.252-0.247-0.124-0.247-0.33c-0.088,0.187-0.263,0.325-0.423,0.109c0.141-0.158,0.423,0.097,0.325-0.553
		c0.078-0.35,0.121,0.196,0.098,0.334c0.198-0.196,0.532,0.139,0.582-0.44c0.323,0.374,1.108-0.454,0.993,0.22
		c0.106-0.024,0.257-0.206,0.412-0.22c0.048-0.005,0.098,0.097,0.087,0.106c0.103-0.029,0.103-0.187,0.16-0.22
		c-0.02,0.014,0.747,0.034,0.248-0.115c0.173,0.051,0.185,0.233,0.173,0.449C93.146,4.789,93.175,4.602,93.155,4.469"/>
</g>
</svg>
