<?xml version="1.0" encoding="utf-8"?>
<!-- Generator: Adobe Illustrator 15.0.0, SVG Export Plug-In . SVG Version: 6.00 Build 0)  -->
<!DOCTYPE svg PUBLIC "-//W3C//DTD SVG 1.1//EN" "http://www.w3.org/Graphics/SVG/1.1/DTD/svg11.dtd">
<svg version="1.1" id="Layer_1" xmlns="http://www.w3.org/2000/svg" xmlns:xlink="http://www.w3.org/1999/xlink" x="0px" y="0px"
	 width="16px" height="16px" viewBox="0 0 16 16" enable-background="new 0 0 16 16" xml:space="preserve">
<g>
	<path d="M0.291,7.998c0,3.158,1.899,5.869,4.618,7.06c-0.021-0.535-0.007-1.18,0.13-1.766c0.15-0.626,0.992-4.204,0.992-4.204
		S5.787,8.595,5.787,7.869c0-1.143,0.665-1.996,1.483-1.996c0.702,0,1.044,0.528,1.044,1.158c0,0.708-0.449,1.758-0.68,2.737
		c-0.193,0.815,0.406,1.48,1.216,1.48c1.46,0,2.445-1.873,2.445-4.096c0-1.69-1.14-2.953-3.208-2.953
		c-2.341,0-3.797,1.744-3.797,3.69c0,0.672,0.201,1.147,0.507,1.514c0.144,0.169,0.165,0.233,0.115,0.428
		c-0.04,0.141-0.123,0.482-0.162,0.619c-0.051,0.197-0.209,0.266-0.385,0.194c-1.075-0.439-1.575-1.622-1.575-2.949
		c0-2.187,1.845-4.813,5.51-4.813c2.938,0,4.88,2.13,4.88,4.417c0,3.021-1.683,5.283-4.165,5.283c-0.826,0-1.61-0.45-1.881-0.961
		c0,0-0.449,1.773-0.543,2.118c-0.158,0.598-0.481,1.188-0.776,1.647c0.694,0.209,1.428,0.32,2.187,0.32
		c4.258,0,7.707-3.452,7.707-7.711c0-4.254-3.449-7.707-7.707-7.707S0.291,3.744,0.291,7.998"/>
</g>
</svg>
