<?xml version="1.0" encoding="utf-8"?>
<!-- Generator: Adobe Illustrator 15.0.0, SVG Export Plug-In . SVG Version: 6.00 Build 0)  -->
<!DOCTYPE svg PUBLIC "-//W3C//DTD SVG 1.1//EN" "http://www.w3.org/Graphics/SVG/1.1/DTD/svg11.dtd">
<svg version="1.1" id="Layer_1" xmlns="http://www.w3.org/2000/svg" xmlns:xlink="http://www.w3.org/1999/xlink" x="0px" y="0px"
	 width="140px" height="18px" viewBox="0 0 140 18" enable-background="new 0 0 140 18" xml:space="preserve">
<g>
	<path fill="#231F20" d="M10.973,4.998c1.046-0.55,1.357-1.685,0.939-2.79c-0.475-1.235-2.65-1.075-3.639-0.84
		C4.752,2.196,2.53,5.263,1.645,8.631c-0.707,2.703-0.877,8.473,3.145,8.309c3.518-0.144,5.359-3.438,6.997-6.131
		c0.112-0.181-1.046-0.045-1.243,0.217c-1.204,1.627-3.742,6.078,0.113,5.873c2.852-0.148,4.002-3.822,4.693-6.051
		c-0.411,0.071-0.829,0.147-1.244,0.219c-0.441,1.617-1.173,6.291,1.766,5.596c1.542-0.367,2.355-1.711,3.099-3.01
		c1.456-2.537,2.421-5.448,3.549-8.15c-0.412,0.076-0.829,0.149-1.243,0.221c-0.854,2.06-1.663,4.111-2.58,6.146
		c-0.578,1.27-1.391,3.361-0.051,4.42c2.031,1.598,5.188-1.213,6.134-2.762c0.093-0.154-1.058-0.092-1.247,0.227
		c-0.699,1.143-2.145,2.955-3.697,2.102c-1.093-0.6-0.551-2.35-0.291-3.203c0.355-1.176,1.007-2.27,1.506-3.393
		c0.549-1.228,0.957-2.513,1.47-3.757c0.089-0.216-1.113-0.096-1.243,0.221c-1.336,3.191-2.434,6.678-4.412,9.532
		c-1.344,1.924-1.852-0.176-1.897-1.389c-0.031-1.008,0.12-2.055,0.384-3.02c0.071-0.269-1.15-0.091-1.244,0.219
		c-0.395,1.271-1.711,5.992-3.721,5.146c-1.789-0.752,0.709-4.471,1.401-5.403c-0.414,0.069-0.829,0.146-1.243,0.217
		c-1.183,1.949-3.023,5.883-5.835,5.285c-2.319-0.492-2.235-4.375-2.107-6.175C2.77,7.79,3.745,5.478,5.285,3.715
		c1.173-1.34,3.166-2.569,4.944-1.609c0.829,0.444,0.853,2.279,0.012,2.723C9.502,5.214,10.675,5.15,10.973,4.998"/>
	<path fill="#231F20" d="M37.197,6.047c-1.723-0.335-4.616-0.34-5.83,1.175c-1.775,2.223,3.186,3.19,4.374,3.292
		c0.149-0.291,0.302-0.582,0.449-0.875c-2.039-0.008-6.508,0.225-5.423,3.525c0.766,2.322,5.127,2.17,6.987,2.176
		c0.577,0.002,1.302-0.873,0.449-0.879c-1.685-0.004-3.419-0.045-5.011-0.654c-1.131-0.438-1.712-1.643-0.875-2.695
		c0.658-0.823,2.505-0.602,3.423-0.598c0.546,0,1.336-0.802,0.449-0.875c-0.686-0.058-5.168-0.922-3.566-2.318
		c0.913-0.795,3.026-0.611,4.124-0.4C37.34,7.035,38.041,6.21,37.197,6.047"/>
	<path fill="#231F20" d="M36.822,2.014c-1.503,5.125-3.234,10.332-5.337,15.238c-0.271,0.635,0.995,0.557,1.192,0.096
		c2.135-4.979,3.893-10.256,5.41-15.456C38.246,1.349,36.963,1.516,36.822,2.014"/>
	<path fill="#231F20" d="M46.854,1.102c-1.377,5.179-2.636,10.603-4.584,15.599c-0.065,0.189,1.125,0.078,1.248-0.23
		c1.945-5,3.206-10.426,4.578-15.603C48.156,0.637,46.935,0.802,46.854,1.102"/>
	<path fill="#231F20" d="M45.459,2.2c1.768-0.728,8.634-0.637,8.169,2.399c-0.278,1.81-2.772,2.958-4.225,3.57
		c-1.987,0.839-4.384,1.241-6.472,0.599c-0.511-0.155-1.498,0.59-0.738,0.819c2.396,0.733,5.061,0.327,7.361-0.564
		c1.908-0.74,4.684-2.081,5.277-4.279c1.146-4.225-7.656-4.174-9.917-3.239C44.109,1.836,44.826,2.464,45.459,2.2"/>
	<path fill="#231F20" d="M53.918,12.264c-1.346-1.801-3.457-2.172-5.473-1.305c-1.83,0.787-3.565,2.625-2.326,4.658
		c0.836,1.373,2.77,0.781,3.807,0c1.641-1.223,2.889-3.086,3.818-4.895c-0.41,0.077-0.826,0.159-1.239,0.237
		c-0.487,0.965-2.349,5.535-0.065,5.526c2.611-0.014,3.996-3.647,4.832-5.622c-0.415,0.084-0.826,0.161-1.24,0.237
		c-0.482,1.215-1.733,3.742-0.479,4.935c0.643,0.608,1.884,0.493,2.532-0.123c1.183-1.134,1.433-2.834,2.216-4.218
		c-0.043,0.068,0.022,0.773,0.011,0.9c-0.056,0.598-0.267,1.209-0.438,1.783c-0.191,0.648-0.457,1.283-0.606,1.945
		c0.419-0.08,0.829-0.16,1.244-0.24c0.184-0.826,0.714-1.592,1.167-2.287c0.313-0.479,0.666-0.934,1.03-1.369
		c0.25-0.301,0.521-0.561,0.816-0.816c0.436-0.383,0.082-0.278,0.342,0.052c0.294,0.356-0.066,1.496-0.127,1.894
		c-0.129,0.823-0.346,1.729-0.191,2.565c0.221,1.224,2.314-0.431,2.591-0.761c2.421-2.854,3.071-6.563,4.333-9.978
		c0.066-0.177-1.131-0.062-1.241,0.238c-1.024,2.742-2.085,5.971-1.841,8.93c0.09,1.117,0.65,1.871,1.789,1.882
		c1.822,0.006,3.204-1.357,4.279-2.664c0.042-0.049-1.012-0.041-1.24,0.244c-0.852,1.022-2.684,3.014-3.43,0.909
		c-0.34-0.957-0.163-2.131-0.033-3.108c0.292-2.182,0.946-4.37,1.717-6.43c-0.41,0.079-0.828,0.16-1.241,0.238
		c-1.277,3.464-1.911,7.4-4.519,10.178c-0.329,0.244-0.281,0.279,0.137,0.107c-0.076-0.123-0.071-0.316-0.084-0.459
		c-0.027-0.381,0.036-0.783,0.08-1.162c0.107-0.877,0.318-1.746,0.346-2.629c0.036-1.328-2.084-0.475-2.595-0.08
		c-1.379,1.064-2.939,3.01-3.329,4.748c-0.048,0.229,1.18,0.051,1.244-0.24c0.292-1.295,0.842-2.512,1.064-3.826
		c0.211-1.256-0.904-1.42-1.787-0.912c-1.22,0.697-1.475,2.396-2.061,3.594c-0.065,0.144-0.477,1.027-0.747,0.896
		c-0.467-0.221-0.599-1.012-0.67-1.449c-0.167-1.068,0.573-2.549,0.96-3.522c0.066-0.166-1.115-0.058-1.24,0.237
		c-0.397,0.941-0.851,1.847-1.357,2.73c-0.26,0.459-1.354,2.59-1.879,1.818c-0.816-1.188,0.38-3.812,0.949-4.93
		c0.072-0.136-1.082-0.064-1.239,0.237c-0.61,1.183-3.023,5.613-4.579,4.849c-1.253-0.611-1.113-2.332-0.536-3.312
		c1.293-2.195,3.95-1.658,5.271,0.104C52.869,12.891,53.984,12.355,53.918,12.264"/>
	<path fill="#231F20" d="M17.638,8.467c3.491,0.054,6.966-0.136,10.438-0.451c0.664-0.062,1.008-0.897,0.145-0.819
		c-3.367,0.308-6.738,0.501-10.118,0.447C17.561,7.636,16.781,8.453,17.638,8.467"/>
	<path fill="#231F20" d="M65.005,8.909c3.35,0.016,6.622-0.211,9.937-0.668c0.646-0.091,1.02-0.923,0.147-0.804
		c-3.21,0.442-6.376,0.678-9.613,0.663C64.943,8.098,64.153,8.905,65.005,8.909"/>
	<path fill="#231F20" d="M56.787,8.907c-0.058,0.215-0.143,0.422-0.211,0.631c-0.102,0.293,0.397,0.354,0.561,0.339
		c0.294-0.031,0.607-0.176,0.708-0.469c0.071-0.21,0.159-0.416,0.206-0.634c0.08-0.297-0.371-0.357-0.559-0.335
		C57.218,8.468,56.857,8.611,56.787,8.907"/>
	<path fill="#231F20" d="M89.734,4.998c1.045-0.55,1.358-1.685,0.938-2.79c-0.465-1.22-2.487-1.028-3.467-0.879
		c-3.425,0.505-5.748,3.781-6.687,6.862c-0.748,2.481-1.221,8.411,2.455,8.718c1.213,0.098,2.658-0.154,3.685-0.853
		c1.903-1.287,2.549-4.199,5.053-4.68c0.5-0.096,1.123-0.639,0.229-0.469c-2.014,0.387-3.393,1.609-4.612,3.229
		c-1.192,1.592-2.806,3.285-4.904,1.578c-0.936-0.764-1.002-2.711-1.088-3.801c-0.192-2.537,0.56-5.103,1.938-7.216
		c1.053-1.621,2.953-3.23,5.025-2.885c1.192,0.194,1.99,2.339,0.708,3.017C88.268,5.214,89.438,5.15,89.734,4.998"/>
	<path fill="#231F20" d="M115.984,8.433c3.293,0.019,6.511-0.217,9.774-0.664c0.716-0.101,0.944-1.108,0.095-0.992
		c-3.258,0.449-6.487,0.682-9.775,0.662C115.335,7.437,115.131,8.429,115.984,8.433"/>
	<path fill="#231F20" d="M123.376,8.94c-0.05,0.213-0.136,0.42-0.203,0.628c-0.085,0.25,0.414,0.205,0.522,0.187
		c0.217-0.03,0.643-0.131,0.729-0.378c0.069-0.211,0.154-0.417,0.205-0.634C124.723,8.377,123.475,8.572,123.376,8.94"/>
	<path fill="#231F20" d="M130.615,11.188c-0.016-1.424-2.01-0.643-2.717-0.287c-1.504,0.761-2.418,2.261-2.703,3.89
		c-0.229,1.278,0.766,2.326,2.021,2.168c1.839-0.228,2.857-2.123,3.461-3.66c0.343-0.864,0.589-3.164-1.026-2.471
		c-0.916,0.389-1.229,1.737,0.018,1.774c0.475,0.015,1.021-0.117,1.439-0.356c0.731-0.412,1.828-1.57,1.767-0.024
		c-0.073,1.803-1.196,3.008-2.196,4.329c-0.352,0.472,0.926,0.361,1.178,0.039c0.974-1.254,1.789-2.604,2.844-3.789
		c0.281-0.315,0.568-0.62,0.863-0.93c0.15-0.16,0.302-0.322,0.457-0.479c-0.281-0.093-0.398,0-0.354,0.27
		c-0.089,0.629-0.312,1.248-0.459,1.861c-0.24,1.021-0.923,2.946,0.604,3.326c1.301,0.315,2.664,0.002,3.648-0.908
		c0.544-0.502-0.706-0.506-1.021-0.217c-0.967,0.899-2.349,0.694-2.336-0.718c0.006-0.418,0.168-0.866,0.272-1.271
		c0.174-0.646,0.345-1.303,0.495-1.961c0.15-0.637,0.146-1.596-0.809-1.268c-1.138,0.391-1.998,1.613-2.754,2.5
		c-0.961,1.121-1.724,2.381-2.631,3.543c0.393,0.014,0.781,0.025,1.178,0.039c1.101-1.467,2.399-2.91,2.293-4.936
		c-0.043-0.793-0.434-1.328-1.289-1.104c-0.416,0.111-0.803,0.277-1.174,0.486c-0.229,0.123-0.445,0.252-0.666,0.385
		c-0.088,0.06-0.183,0.117-0.271,0.174c-0.267,0.271-0.376,0.142-0.333-0.395c-0.3,0.081-0.598,0.161-0.898,0.241
		c1.272,0.201-2.037,7.104-3.029,3.791c-0.207-0.68,0.188-1.6,0.467-2.186c0.199-0.418,2.393-2.619,2.404-1.52
		C129.361,11.938,130.625,11.688,130.615,11.188"/>
	<path fill="#231F20" d="M115.416,11.301c-2.109-3.147-7.021,3.77-3.936,5.385c1.892,0.994,3.946-0.729,4.979-2.145
		c1.982-2.721,3.438-5.987,4.771-9.069c-0.42,0.049-0.842,0.101-1.262,0.151c-0.39,1.439-5.242,10.616-2.076,11.04
		c3.58,0.494,4.573-3.396,6.092-5.72c-0.392-0.012-0.781-0.021-1.176-0.03c-0.515,0.907-3.49,6.303-0.416,5.983
		c1.682-0.176,3.316-2.08,4.293-3.323c0.357-0.453-0.918-0.361-1.18-0.037c-0.713,0.916-1.628,1.764-2.563,2.438
		c-0.947,0.684-0.5-1.746-0.399-2.103c0.295-1.039,0.916-1.994,1.44-2.929c0.311-0.539-0.957-0.362-1.176-0.03
		c-0.593,0.907-1,1.903-1.486,2.866c-0.658,1.312-3.204,3.593-3.157,0.673c0.046-3.152,2.269-6.024,3.065-8.979
		c0.141-0.509-1.106-0.211-1.262,0.151c-1.277,2.955-2.795,5.733-4.443,8.493c-0.307,0.52-0.662,0.961-1.094,1.395
		c-1.475,0.916-2.361,0.826-2.652-0.262c-0.041-0.314-0.016-0.615,0.072-0.918c0.094-0.453,1.448-3.939,2.395-2.525
		C114.482,12.166,115.711,11.742,115.416,11.301"/>
	<path fill="#231F20" d="M93.088,10.336c-2.041,0.277-3.109,1.139-3.931,3.15c-0.47,1.147-0.435,3.563,1.228,3.604
		c1.85,0.06,2.912-1.803,3.555-3.266c0.688-1.548,1.166-3.343-1.006-3.201c-0.205,0.01-0.822,0.213-0.721,0.524
		c0.686,2.185,3.992,0.437,5.038-0.407c1.776-1.434,3.845-3.928,3.243-6.389c-0.092-0.378-0.833-0.149-1.021-0.023
		c-0.934,0.589-1.139,1.891-1.584,2.827c-0.972,2.058-2.008,4.134-2.436,6.384c-0.258,1.354-0.538,2.935,1.054,3.342
		c1.171,0.3,2.743-0.362,3.616-1.096c1.421-1.188,2.207-2.791,3.09-4.388c0.88-1.601,2.033-3.026,2.357-4.875
		c0.087-0.515,0.547-2.188-0.293-2.366c-0.949-0.205-1.359,0.688-1.584,1.426c-0.565,1.845-1.243,3.653-1.777,5.52
		c-0.368,1.289-1.277,3.522-0.438,4.842c1.638,2.584,5.832-0.756,6.76-2.443c0.257-0.459,1.613-2.789,0.449-3.039
		c-1.012-0.221-1.77,0.635-2.275,1.398c-0.585,0.885-1.73,2.832-1.098,3.897c0.783,1.32,2.221,1.113,3.461,0.636
		c1.147-0.441,2.133-1.404,2.93-2.316c0.37-0.42-0.9-0.346-1.178-0.035c-0.75,0.855-4.213,3.523-4.067,0.604
		c0.045-0.963,0.655-1.951,1.129-2.748c0.317-0.532,0.449-1.159,0.179,0.019c-0.119,0.513-0.473,1.08-0.705,1.554
		c-0.513,1.043-2.889,3.567-4.248,2.239c-1.215-1.192,0.33-4.666,0.705-5.914c0.342-1.147,0.744-2.274,1.174-3.393
		c0.084-0.209,0.123-0.443,0.181-0.666c0.106-0.429,0.603-1.028,0.104-0.904c-0.224-0.023-0.447-0.05-0.672-0.078
		c0.98,0.802-0.838,4.233-1.189,4.837c-1.107,1.896-2.079,4.119-3.651,5.678c-0.569,0.562-2.958,1.931-2.922-0.338
		c0.011-0.51,0.095-1.033,0.169-1.543c0.189-1.315,0.721-2.473,1.234-3.681c0.396-0.936,0.863-1.854,1.248-2.794
		c0.255-0.616,0.482-1.832,1.063-2.194c-0.343-0.01-0.686-0.018-1.024-0.025c0.348,1.431-0.369,2.736-1.141,3.892
		c-0.384,0.563-3.939,4.39-4.619,2.229c-0.24,0.172-0.479,0.348-0.713,0.526c1.58-0.104-1.342,6.39-2.349,4.587
		c-0.329-0.58-0.229-1.433-0.134-2.06c0.229-1.461,1.212-2.623,2.638-2.82C93.533,10.965,93.961,10.213,93.088,10.336"/>
	<path fill="#231F20" d="M87.232,15.223c0.496,0,1.336-0.752,0.479-0.752C87.223,14.471,86.377,15.223,87.232,15.223"/>
	<rect x="1.25" y="0.759" fill="none" width="138.344" height="16.952"/>
</g>
</svg>
