<?xml version="1.0" encoding="utf-8"?>
<!-- Generator: Adobe Illustrator 15.0.0, SVG Export Plug-In . SVG Version: 6.00 Build 0)  -->
<!DOCTYPE svg PUBLIC "-//W3C//DTD SVG 1.1//EN" "http://www.w3.org/Graphics/SVG/1.1/DTD/svg11.dtd">
<svg version="1.1" id="Layer_1" xmlns="http://www.w3.org/2000/svg" xmlns:xlink="http://www.w3.org/1999/xlink" x="0px" y="0px"
	 width="291px" height="200px" viewBox="0 0 291 200" enable-background="new 0 0 291 200" xml:space="preserve">
<g>
	<polygon fill="#C5B15A" points="82.931,102.221 84.962,102.221 86.748,107.954 88.682,102.195 90.312,102.195 92.245,107.954 
		94.032,102.221 96.014,102.221 93.069,110.751 91.42,110.751 89.472,105.21 87.525,110.751 85.874,110.751 	"/>
	<polygon fill="#C5B15A" points="99.833,102.221 101.862,102.221 103.65,107.954 105.584,102.195 107.212,102.195 109.147,107.954 
		110.934,102.221 112.915,102.221 109.972,110.751 108.321,110.751 106.375,105.21 104.427,110.751 102.772,110.751 	"/>
	<polygon fill="#C5B15A" points="116.735,102.221 118.766,102.221 120.553,107.954 122.487,102.195 124.116,102.195 
		126.048,107.954 127.836,102.221 129.815,102.221 126.876,110.751 125.223,110.751 123.274,105.21 121.327,110.751 
		119.675,110.751 	"/>
	<rect x="134.029" y="108.749" fill="#C5B15A" width="1.988" height="1.941"/>
	<polygon fill="#C5B15A" points="140.907,102.221 142.95,102.221 145.216,105.803 147.481,102.221 149.53,102.221 149.53,110.69 
		147.657,110.69 147.657,105.162 145.228,108.779 145.179,108.779 142.779,105.194 142.779,110.69 140.907,110.69 	"/>
	<polygon fill="#C5B15A" points="157.103,107.35 153.788,102.221 156.009,102.221 158.067,105.622 160.16,102.221 162.317,102.221 
		158.996,107.312 158.996,110.69 157.103,110.69 	"/>
	<path fill="#C5B15A" d="M169.942,109.01c0.387,0,0.739-0.063,1.058-0.184c0.321-0.12,0.593-0.294,0.821-0.517
		c0.226-0.232,0.4-0.496,0.528-0.8c0.124-0.308,0.193-0.65,0.193-1.031v-0.023c0-0.369-0.069-0.716-0.193-1.033
		c-0.128-0.311-0.303-0.581-0.528-0.808c-0.229-0.228-0.5-0.402-0.821-0.525c-0.318-0.124-0.671-0.184-1.058-0.184h-1.467v5.104
		H169.942z M166.576,102.221h3.366c0.671,0,1.294,0.107,1.853,0.32c0.565,0.213,1.049,0.512,1.456,0.886
		c0.407,0.382,0.722,0.826,0.943,1.34c0.22,0.515,0.329,1.069,0.329,1.664v0.024c0,0.596-0.109,1.156-0.329,1.67
		c-0.222,0.515-0.536,0.962-0.943,1.339c-0.407,0.384-0.891,0.682-1.456,0.899c-0.559,0.217-1.182,0.327-1.853,0.327h-3.366V102.221
		z"/>
	<rect x="39.358" fill="none" width="211.198" height="199.999"/>
	<polygon fill="#C5B15A" points="179.292,102.221 181.336,102.221 183.604,105.803 185.871,102.221 187.913,102.221 187.913,110.69 
		186.041,110.69 186.041,105.162 183.611,108.779 183.566,108.779 181.168,105.194 181.168,110.69 179.292,110.69 	"/>
	<rect x="192.798" y="108.749" fill="#C5B15A" width="1.984" height="1.941"/>
	<polygon fill="#C5B15A" points="199.669,102.221 201.714,102.221 203.982,105.803 206.249,102.221 208.287,102.221 208.287,110.69 
		206.419,110.69 206.419,105.162 203.99,108.779 203.942,108.779 201.545,105.194 201.545,110.69 199.669,110.69 	"/>
	<polygon fill="#C5B15A" points="213.44,102.221 219.93,102.221 219.93,103.881 215.316,103.881 215.316,105.599 219.373,105.599 
		219.373,107.25 215.316,107.25 215.316,109.033 219.996,109.033 219.996,110.69 213.44,110.69 	"/>
	<path fill="#231F20" d="M44.973,46.246c-1.554,0.752-3.711,1.463-5.206,0.206c-0.624-1.365,0.583-2.146,0.669-3.41
		c0.17-2.665-1.812-6.227-0.779-8.678c0.383-0.903,2.302-2.215,3.407-2.059C47.012,32.887,45.719,42.966,44.973,46.246"/>
	<path fill="#231F20" d="M46.243,62.018c3.853,6.524,4.819,14.189,2.105,19.981c-1.559,0.388-3.487,1.123-4.893,0.204
		c-0.262-3.433,0.655-5.462,0.458-9.185C43.668,68.533,40.128,62.811,46.243,62.018"/>
	<path fill="#231F20" d="M49.646,96.191c2.991,4.49,3.527,12.809,1.526,18.662c-0.791,0.824-6.664,1.348-6.104-0.86
		c0.832-3.299,1.685-6.844,1.099-11.017C45.846,100.654,45.469,95.78,49.646,96.191"/>
	<path fill="#231F20" d="M51.507,131.667c2.145,3.709,2.51,10.641,2.162,17.095c-0.225,4.203-0.287,9.081-6.212,5.693
		c0.682-5.368-0.142-12.231,0.281-17.323C47.966,134.477,48.193,131.856,51.507,131.667"/>
	<path fill="#231F20" d="M52.04,173.156c2.935,3.629,6.338,16.628-2.677,13.885c-0.366-2.756-0.939-7.44-0.748-10.511
		C48.726,174.751,49.54,173.242,52.04,173.156"/>
	<path fill="#231F20" d="M56.002,26.954c-0.235-1.717,0.436-2.636,0.977-3.668C56.922,17.873,55,12.19,52.659,7.216
		c0.716-2.091,4.352-3.277,6.447-1.234c2.323,2.266,5.182,14.27,3.657,18.951C62,27.317,59.041,28.179,56.002,26.954"/>
	<path fill="#231F20" d="M63.633,46.473c-1.895,0.377-3.824,0.809-5.195-0.323c-0.358-1.126,0.306-1.761,0.354-2.886
		c0.088-2.195-2.74-9.222,2.891-8.36C65.544,35.487,65.307,43.06,63.633,46.473"/>
	<path fill="#231F20" d="M65.881,58.581c1.002,1.4,2.376,3.979,2.654,6.337c0.102,0.891-0.727,2.095-0.667,3.137
		c0.167,3.317,0.5,7.486-5.914,5.441c1.097-3.19-0.57-11.414,0.226-13.382C62.45,59.433,64.292,58.591,65.881,58.581"/>
	<path fill="#231F20" d="M65.124,85.354c1.856,0.18,2.103-0.799,3.683-0.222c1.236,6.157,1.947,12.194-0.601,17.589
		c-1.496,0.17-2.474,0.042-3.972-0.31c-1.215-1.129-0.503-1.764-0.253-3.421C64.631,94.775,63.098,88.431,65.124,85.354"/>
	<path fill="#231F20" d="M68.619,114.807c2.25,4.646,3.987,10.239,0.665,14.973c-2.272,0.141-2.701,0.405-4.574-0.578
		C65.959,125.208,60.561,114.863,68.619,114.807"/>
	<path fill="#231F20" d="M69.749,138.712c1.143,4.04,4.579,9.215,1.933,12.63c-1.853,0.634-4.317,0.654-5.506-0.071
		C65.741,146.834,63.028,137.743,69.749,138.712"/>
	<path fill="#231F20" d="M70.277,162.085c-0.963,3.599,5.681,11.302,1.293,13.938c-0.445,0.268-1.998,0.622-3.06,0.488
		c-5.253-0.661-3.094-8.967-2.845-13.163C66.567,162.121,68.49,161.043,70.277,162.085"/>
	<path fill="#231F20" d="M67.777,183.851c1.142-0.104,1.501-0.091,2.761-0.488c3.161,4.246,1.959,11.099,1.877,15.781
		c-2.004,1.093-3.29,1.125-5.513,0.195C66.99,194.421,65.807,187.868,67.777,183.851"/>
	<path fill="#231F20" d="M83.545,45.143c4.161,2.366,3.92,10.548,2.2,14.991c-0.742,0.601-3.235,0.738-4.293,0.217
		c-1.082-1.623,0.13-4.95-0.167-7.884C80.995,49.685,78.708,45.545,83.545,45.143"/>
	<path fill="#231F20" d="M91.526,153.944c-2.261,0.166-3.986-0.126-4.563-1.368c2.524-2.899-0.603-11.204,1.156-14.428
		c0.461-0.846,2.13-2.018,3.394-1.793C95.437,137.053,94.932,151.796,91.526,153.944"/>
	<path fill="#231F20" d="M91.931,184.669c-2.605,0.113-4.209-0.624-4.855-2.158c1.372-4.159,0.831-10.438,0.567-15.748
		c4.653-5.739,6.919,2.972,6.59,8.484C93.978,179.464,93.631,183.477,91.931,184.669"/>
	<path fill="#231F20" d="M92.515,2.716c5.498-5.082,9.438,8.296,7.411,14.272c-1.544,0.825-4.068,0.985-5.502-0.07
		C95.998,11.717,92.123,7.255,92.515,2.716"/>
	<path fill="#231F20" d="M102.137,31.459c3.966,4.417,2.68,15.516,2.69,22.35c-1.125,0.518-2.544,0.773-4.299,0.736
		c-1.837-2.92-1.593-12.819-1.529-18.408C99.02,33.777,99.676,32.172,102.137,31.459"/>
	<path fill="#231F20" d="M104.958,64.313c2.254,1.912,3.194,5.456,3.532,8.182c0.268,2.105-0.241,5.015-0.432,7.614
		c-1.559,0.705-3.89,1.03-5.199-0.066C104.105,74.183,98.649,66.726,104.958,64.313"/>
	<path fill="#231F20" d="M107.188,169.365c1.804,1.916,1.481,5.736,1.68,9.214c0.199,3.533,1.919,11.281-1.728,12.057
		c-4.27,0.908-3.975-3.061-3.88-6.081C103.418,180.052,101.5,168.846,107.188,169.365"/>
	<path fill="#231F20" d="M113.482,11.906c0.998-2.816,0.275-6.654-0.767-9.208c-0.654-1.59,2.422-3.17,4.629-2.565
		C121.591,1.293,120.681,16.894,113.482,11.906"/>
	<path fill="#231F20" d="M121.129,30.12c4.527,3.294,2.598,10.831,1.568,16.287c-1.351,0.676-2.783,1.283-5.224,0.989
		c-1.16-1.506-0.588-2.883,0.379-4.193C119.262,38.064,115.095,31.169,121.129,30.12"/>
	<path fill="#231F20" d="M123.954,62.708c2.392,1.822,3.114,6.994,3.186,10.799c0.088,4.438,0.762,11.186-4.456,10.451
		c-3.659-0.515-1.397-6.174-1.372-9.462c0.029-4.561-1.227-7.6-0.432-10.516C121.642,63.502,123.095,62.229,123.954,62.708"/>
	<path fill="#231F20" d="M123.232,179.284c0.819-0.124,1.632,0.341,3.074-0.232c2.126,5.238,2.668,10.87,1.258,16.298
		c-1.254,0.831-3.14,0.353-4.909,0.208C121.544,191.109,121.493,184.229,123.232,179.284"/>
	<path fill="#231F20" d="M141.357,28.52c-0.887,0.822-3.394,1.002-4.905,0.474c0.126-5.949-0.873-13.032-1.828-18.932
		c-0.283-1.752,1.277-4.416,3.735-3.895c2.772,0.591,3.339,8.71,3.488,11.332C142.081,21.748,141.823,25.785,141.357,28.52"/>
	<path fill="#231F20" d="M145.953,64.814c-1.513,0.695-4.154,0.865-4.897,0.204c-1.247-1.326,0.192-2.078,0.365-3.67
		c0.352-3.262-1.603-7.455-1.358-10c0.139-1.543,1.358-3.304,3.105-3.11C146.84,48.64,148.272,60.931,145.953,64.814"/>
	<path fill="#231F20" d="M146.648,151.735c1.226,0.1,1.707-0.45,3.062-0.228c1.969,8.897,2.245,17.295-0.718,25.202
		c-1.886,0.894-5.827,0.331-5.8-1.387c1.314-4.312,2.559-10.699,2.425-16.516C145.549,156.198,144.406,153.816,146.648,151.735"/>
	<path fill="#231F20" d="M154.935,3.218c1.644-0.576,2.725-0.472,4.591,0.056c2.209,4.59,0.309,13.046,0.944,16.557
		c-0.824,1.42-3.34,2.405-5.834,1.506C154.561,15.63,154.302,10.032,154.935,3.218"/>
	<path fill="#231F20" d="M163.829,39.043c2.414,2.873,2.273,10.131,2.169,16.296c-0.065,3.985,0.385,8.868-2.027,11.797
		c-1.613-0.35-3.541-1.116-3.932-2.938c-0.682-3.133,0.462-9.227,0.544-14.173C160.661,45.181,159.606,38.707,163.829,39.043"/>
	<path fill="#231F20" d="M164.437,149.326c1.059-0.134,1.368-0.918,2.765-0.757c3.872,5.982,5.831,16.473,1.155,22.595
		c-2.235,0.229-3.176-0.624-4.574-1.102c-0.891-1.203,0.371-2.145,0.666-3.402C165.801,160.919,163.348,155.127,164.437,149.326"/>
	<path fill="#231F20" d="M187.492,14.385c0.416,7.122,1.176,13.737-0.339,20.211c-1.356,0.581-4.669,0.903-5.5-0.327
		c0.438-3.548,0.321-7.48,0.186-11.292c-0.092-2.677-2.781-11.626,2.932-10.727C186.386,12.502,186.037,13.647,187.492,14.385"/>
	<path fill="#231F20" d="M187.627,61.384c1.849,5.98,2.267,14.021-0.932,19.42c-1.864,0-3.863,0.113-4.584-0.843
		c0.983-5.021,1.13-10.302,1.508-16.78C184.73,62.163,185.989,61.241,187.627,61.384"/>
	<path fill="#231F20" d="M190.01,157.521c3.382,1.76,2.319,6.677,2.289,9.738c-0.134,9.076-0.436,17.649-1.698,28.335
		c-0.734,0.155-1.435,0.342-1.553,1.031c-1.364-0.496-3.012-0.762-3.643-1.878c0.548-6.719,1.53-13.694,1.876-20.72
		C187.563,168.5,186.695,162.632,190.01,157.521"/>
	<path fill="#231F20" d="M190.469,129.689c2.461,2.672,1.476,7.523,1.944,11.843c0.271,2.452,0.814,4.394,1.121,6.313
		c-1.594,1.741-5.082,1.958-7.352,0.171C188.093,142.048,184.047,132.148,190.469,129.689"/>
	<path fill="#231F20" d="M204.647,141.944c1.42-0.057,1.738-0.502,3.063-0.221c3.052,4.162,4.77,27.897-4.599,18.846
		C205.27,154.541,202.633,147.85,204.647,141.944"/>
	<path fill="#231F20" d="M210.311,40.922c1.503,1.94,1.25,4.657,1.41,7.108c0.583,8.753,0.973,17.644-0.125,25.732
		c-1.638,0.946-5.422,0.303-5.188-0.846c0.07-11.438-0.366-19.89,0.789-29.145C208.419,42.985,208.27,40.978,210.311,40.922"/>
	<path fill="#231F20" d="M227.39,117.542c0.867,4.219,2.097,9.157,1.614,13.671c-1.49,0.922-4.379,0.979-5.817-0.071
		C222.463,127.066,220.29,116.307,227.39,117.542"/>
	<path fill="#231F20" d="M228.075,76.327c3.007,3.516,1.275,10.518,0.977,15.502c-0.131,2.011,0.508,3.751-1.012,4.968
		c-5.81,1.439-4.806-2.573-4.469-6.876c0.342-4.453,0.138-8.716,0.8-11.539C225.498,77.259,226.919,76.795,228.075,76.327"/>
	<path fill="#231F20" d="M227.145,150.622c1.587,5.389,2.385,10.146,0.955,16.026c-2.307,0.603-4.943,0.02-5.785-1.386
		C223.517,161.573,219.848,149.169,227.145,150.622"/>
	<path fill="#231F20" d="M226.07,31.662c0.793-0.633,3.466-0.723,4.59-0.203c1.723,5.83,0.831,13.789,0.599,19.177
		c-0.098,2.429,0.888,5.315-0.411,6.815c-1.393,1.604-5.33,1.353-6.113-0.865C227.276,48.568,224.714,39.063,226.07,31.662"/>
	<path fill="#231F20" d="M243.222,48.938c1.783-0.677,3.34-0.446,4.895,0.057c0.216,4.769,1.356,11.336,0.023,17.072
		c-2.136,0.905-4.551,1.036-6.102-0.602C243.741,59.362,241.627,54.398,243.222,48.938"/>
	<path fill="#231F20" d="M247.441,89.43c2.592,7.069,2.374,15.368,0.862,22.064c-1.942,0.583-3.489-0.056-5.188-0.851
		c-0.384-6.725,0.854-13.36-0.596-19.705C243.352,88.572,245.709,88.881,247.441,89.43"/>
	<path fill="#231F20" d="M247.639,133.016c1.59,1.939,1.539,4.983,1.706,7.902c0.188,3.389,0.657,8.091-1.694,9.955
		c-2.468,0.248-3.854-0.417-4.879-1.372c0.379-5.92-0.528-10.32,1.488-15.733C244.971,133.313,246.755,132.43,247.639,133.016"/>
	<path fill="#231F20" d="M244.74,160.29c1.538-0.833,2.351-0.202,4.276,0.051c0.867,6.007,0.31,13.639,0.906,19.705
		c0.254,2.745,1.656,5.915-0.749,7.607c-7.375,0.574-5.212-9.671-5.279-13.19C243.765,168.869,243.135,164.256,244.74,160.29"/>
	<path fill="#231F20" d="M128.192,139.171c1.351,2.271,0.736,6.086,0.761,9.199c0.029,3.138,0.966,8.233,0.149,9.449
		c-1.201,1.8-4.119,1.533-6.121,0.187C124.367,151.545,120.196,140.33,128.192,139.171"/>
	<path fill="#231F20" d="M205.852,14.348c1.056-0.607,3.624-0.751,4.588,0.061c1.58,6.739,0.404,10.851-0.88,16.526
		c-1.238,0.505-2.293,1.169-4.303,0.999c-0.116-0.564-1.443-0.663-1.197-1.591C205.129,26.262,205.466,18.412,205.852,14.348"/>
	<path fill="#231F20" d="M151.073,124.12c1.574,1.494,0.858,4.003,0.89,6.047c0.03,2.062,1.123,5.418,0.172,6.217
		c-1.398,1.183-4.795,1.01-7.125,0.124C146.622,132.252,141.767,124.882,151.073,124.12"/>
	<path fill="#231F20" d="M111.177,127.181c1.577,2.285,0.858,6.133,0.889,9.27c0.032,3.165,1.123,8.306,0.174,9.528
		c-1.399,1.814-4.799,1.539-7.128,0.188C106.725,139.647,101.868,128.344,111.177,127.181"/>
	<path fill="#231F20" d="M170.818,130.668c2.511,1.334,1.508,3.763,1.984,5.925c0.279,1.226,0.825,2.196,1.146,3.155
		c-1.627,0.872-5.192,0.976-7.516,0.088C168.387,136.848,164.249,131.897,170.818,130.668"/>
	<rect x="39.358" fill="none" width="211.198" height="199.999"/>
</g>
</svg>
