<?xml version="1.0" encoding="utf-8"?>
<!-- Generator: Adobe Illustrator 15.0.0, SVG Export Plug-In . SVG Version: 6.00 Build 0)  -->
<!DOCTYPE svg PUBLIC "-//W3C//DTD SVG 1.1//EN" "http://www.w3.org/Graphics/SVG/1.1/DTD/svg11.dtd">
<svg version="1.1" id="Layer_1" xmlns="http://www.w3.org/2000/svg" xmlns:xlink="http://www.w3.org/1999/xlink" x="0px" y="0px"
	 width="206px" height="81px" viewBox="0 0 206 81" enable-background="new 0 0 206 81" xml:space="preserve">
<g>
	<polygon fill="#F38C78" points="96.615,72.288 94.995,74.931 93.396,72.288 91.968,72.288 94.382,76.227 94.382,79.236 
		95.623,79.236 95.623,76.227 98.033,72.288 	"/>
	<path fill="#F38C78" d="M112.595,75.748c0-1.569-1.075-2.349-3.234-2.349v4.72h0.34c0.838,0,1.514-0.179,2.031-0.548
		C112.3,77.155,112.595,76.551,112.595,75.748 M113.853,75.671c0,1.137-0.385,2.025-1.16,2.668
		c-0.733,0.592-1.683,0.897-2.854,0.897h-1.725v-6.944h1.639c1.144,0,2.088,0.277,2.843,0.826
		C113.436,73.729,113.853,74.577,113.853,75.671"/>
	<polygon fill="#F38C78" points="81.24,72.64 78.282,75.889 75.371,72.64 74.815,72.64 74.815,79.27 76.148,79.27 76.148,75.511 
		78.323,77.764 80.49,75.511 80.514,79.27 81.772,79.27 81.772,72.64 	"/>
	<polygon fill="#F38C78" points="130.53,72.64 127.57,75.889 124.659,72.64 124.106,72.64 124.106,79.27 125.441,79.27 
		125.441,75.511 127.606,77.764 129.781,75.511 129.807,79.27 131.063,79.27 131.063,72.64 	"/>
	<path fill="#09182E" d="M203.293,56.956c-8.938-8.822-17.874-17.632-26.804-26.449c8.93-8.822,17.865-17.636,26.804-26.456V56.956z
		 M147.44,56.956V4.051c8.931,8.82,17.869,17.634,26.8,26.456C165.31,39.324,156.371,48.134,147.44,56.956 M118.085,56.956V4.051
		c8.933,8.82,17.871,17.634,26.807,26.456C135.956,39.324,127.018,48.134,118.085,56.956 M88.015,30.774l-27.173-27.7h54.352
		L88.015,30.774z M89.448,34.485v8.351v5.727v10.045h-2.862V48.563v-5.727v-8.351l1.429-1.456L89.448,34.485z M58.437,56.956
		c-8.931-8.822-17.867-17.632-26.802-26.449c8.935-8.822,17.872-17.636,26.802-26.456V56.956z M2.584,56.956V4.051
		c8.941,8.82,17.873,17.634,26.808,26.456C20.457,39.324,11.525,48.134,2.584,56.956 M203.523,1.607
		c-9.383,9.267-18.77,18.525-28.157,27.789c-9.388-9.264-18.772-18.522-28.158-27.789c-0.492-0.477-1.356-0.13-1.356,0.559v27.078
		c-9.277-9.157-17.548-17.317-26.876-26.531c-0.498-0.488-0.997-1.204-2.317-1.204H59.64c-0.978,0-1.409,0.534-1.923,1.042
		c-9.386,9.261-17.816,17.581-27.204,26.845C21.128,20.132,11.74,10.874,2.356,1.607C1.861,1.13,1.003,1.477,1.003,2.166V58.84
		v0.011c0,0.014,0,0.03,0.003,0.041c0.017,0.343,0.222,0.565,0.481,0.66c0.009,0,0.01,0,0.016,0.003
		c0.25,0.114,0.562,0.103,0.819-0.131c0.009-0.006,0.018-0.013,0.028-0.019l0.006-0.006c9.383-9.261,18.771-18.524,28.157-27.789
		c9.388,9.265,18.771,18.528,28.159,27.789c0.486,0.48,1.352,0.133,1.352-0.56V4.494l26.891,27.406L85,33.851v8.985v5.727v10.828
		c0,0.424,0.358,0.782,0.793,0.782h0.251h3.944h0.249c0.435,0,0.796-0.358,0.796-0.782V48.563v-5.727v-8.985l-1.915-1.952
		l27.381-27.901V58.84v0.011v0.041c0.021,0.343,0.225,0.565,0.483,0.66c0.01,0,0.016,0,0.021,0.003
		c0.245,0.114,0.551,0.103,0.82-0.131c0.004-0.006,0.01-0.013,0.015-0.019c0.009,0,0.009-0.006,0.015-0.006
		c9.333-9.21,18.662-18.422,27.997-27.631V58.84v0.011c0,0.014,0.006,0.03,0.006,0.041c0.014,0.343,0.217,0.565,0.482,0.66
		c0.002,0,0.008,0,0.011,0.003h0.006c0.249,0.114,0.556,0.103,0.817-0.131c0.01-0.006,0.019-0.013,0.024-0.019
		c0.004,0,0.004-0.006,0.01-0.006c9.386-9.261,18.771-18.524,28.158-27.789c9.388,9.265,18.774,18.528,28.157,27.789l0.006,0.006
		c0.007,0.006,0.019,0.013,0.024,0.019c0.263,0.233,0.571,0.245,0.821,0.131c0.012-0.003,0.017-0.003,0.017-0.003
		c0.261-0.095,0.467-0.317,0.482-0.66v-0.041c0-0.005,0.006-0.005,0.006-0.011V2.166C204.88,1.477,204.015,1.13,203.523,1.607"/>
	<rect x="1" y="1.389" fill="none" width="203.88" height="77.883"/>
</g>
</svg>
