<?xml version="1.0" encoding="utf-8"?>
<!-- Generator: Adobe Illustrator 16.0.0, SVG Export Plug-In . SVG Version: 6.00 Build 0)  -->
<!DOCTYPE svg PUBLIC "-//W3C//DTD SVG 1.1//EN" "http://www.w3.org/Graphics/SVG/1.1/DTD/svg11.dtd">
<svg version="1.1" id="Layer_1" xmlns="http://www.w3.org/2000/svg" xmlns:xlink="http://www.w3.org/1999/xlink" x="0px" y="0px"
	 width="200px" height="40px" viewBox="0 0 200 40" enable-background="new 0 0 200 40" xml:space="preserve">
<g>
	<path fill="#233A86" d="M11.665,20.448c0.726-0.81,1.514-1.703,2.366-2.682c0.852-0.977,1.64-1.898,2.367-2.764l2.219-2.639
		l0.838-1.005l0.083-0.084l1.006-1.215v0.042c0.139-0.14,0.278-0.216,0.418-0.23c0.14-0.013,0.251,0.091,0.335,0.314
		c0.056,0.224-0.021,0.481-0.23,0.774s-0.355,0.51-0.44,0.649c-0.559,0.949-1.117,1.885-1.675,2.806
		c-0.559,0.922-1.131,1.844-1.717,2.765c0.362-0.335,0.732-0.635,1.11-0.899c0.377-0.266,0.739-0.461,1.089-0.587
		c0.349-0.125,0.67-0.146,0.963-0.063c0.293,0.083,0.537,0.307,0.732,0.67c0.335,0.643,0.425,1.319,0.273,2.031
		c-0.154,0.713-0.426,1.418-0.817,2.115c-0.391,0.698-0.845,1.347-1.361,1.947c-0.517,0.602-0.984,1.097-1.403,1.487
		c0.14,0,0.321-0.027,0.544-0.084c0.67-0.14,1.312-0.376,1.927-0.712c0.614-0.335,1.186-0.713,1.717-1.13
		c0.111-0.085,0.356-0.301,0.733-0.65c0.376-0.349,0.718-0.69,1.026-1.025c0.335-0.335,0.607-0.447,0.816-0.335
		c0.209,0.112,0.161,0.376-0.146,0.795c-0.224,0.308-0.517,0.629-0.88,0.964c-0.363,0.336-0.614,0.559-0.753,0.67
		c-0.476,0.392-0.978,0.755-1.508,1.089c-0.531,0.335-1.089,0.614-1.675,0.838c-0.391,0.141-0.803,0.238-1.235,0.293
		c-0.433,0.057-0.858,0.057-1.277,0c-0.363,0.363-0.754,0.685-1.173,0.964c-0.419,0.278-0.866,0.475-1.34,0.586
		c-0.363,0.084-0.649,0.076-0.859-0.021c-0.209-0.099-0.363-0.259-0.46-0.482c-0.099-0.222-0.133-0.48-0.105-0.773
		c0.027-0.293,0.112-0.565,0.251-0.817c0.195-0.307,0.398-0.613,0.607-0.921c0.209-0.308,0.426-0.602,0.649-0.88
		c0.055-0.056,0.139-0.126,0.25-0.209c0.112-0.084,0.216-0.147,0.314-0.189c0.098-0.042,0.195-0.042,0.293,0
		s0.147,0.161,0.147,0.355c0.111,0.251,0.173,0.476,0.188,0.67c0.014,0.195,0.146,0.392,0.398,0.586l0.168,0.126
		c0.223-0.278,0.418-0.545,0.586-0.795c0.167-0.252,0.321-0.475,0.461-0.671c0.502-0.726,0.99-1.492,1.466-2.303
		c0.475-0.81,0.852-1.634,1.13-2.471c0.112-0.42,0.112-0.663,0-0.733c-0.112-0.069-0.28-0.064-0.502,0.021
		c-0.224,0.084-0.461,0.209-0.712,0.377c-0.251,0.167-0.433,0.307-0.544,0.418c-0.559,0.447-1.104,0.915-1.634,1.403
		c-0.531,0.489-1.033,0.984-1.507,1.487c-1.229,1.843-2.465,3.645-3.707,5.402c-1.242,1.759-2.506,3.518-3.791,5.277
		c-0.446,0.587-0.879,1.194-1.298,1.822c-0.418,0.629-0.894,1.193-1.424,1.696c-0.167,0.168-0.37,0.237-0.607,0.21
		C4.12,34.701,4,34.547,4,34.269c0-0.279,0.07-0.572,0.209-0.88c0.14-0.307,0.308-0.607,0.502-0.9
		c0.196-0.293,0.398-0.572,0.607-0.838c0.209-0.266,0.384-0.51,0.523-0.733c0.949-1.339,1.955-2.68,3.015-4.02l0.964-1.257
		l1.215-1.968c0.447-0.698,0.886-1.403,1.319-2.115c0.432-0.713,0.886-1.417,1.361-2.115l-0.586,0.67
		c-0.084,0.084-0.245,0.265-0.481,0.545c-0.237,0.278-0.426,0.446-0.566,0.503c-0.223,0.056-0.384-0.008-0.481-0.189
		C11.504,20.79,11.525,20.615,11.665,20.448z M14.136,25.348c0.307,0,0.607-0.111,0.9-0.335c0.293-0.223,0.593-0.487,0.9-0.796
		c-0.447-0.223-0.754-0.558-0.921-1.005c-0.167,0.225-0.335,0.454-0.502,0.691c-0.168,0.237-0.3,0.467-0.398,0.69
		c-0.098,0.224-0.153,0.404-0.167,0.544C13.933,25.278,13.996,25.348,14.136,25.348z"/>
	<path fill="#233A86" d="M32.982,20.573c-0.866,0.866-1.752,1.724-2.66,2.575c-0.908,0.853-1.892,1.586-2.953,2.199
		c-0.559,0.308-1.188,0.517-1.884,0.629c-0.698,0.11-1.286-0.112-1.759-0.671c-0.251-0.278-0.418-0.613-0.503-1.005
		c-0.083-0.391-0.111-0.788-0.083-1.193c0.028-0.404,0.091-0.803,0.188-1.193c0.098-0.391,0.188-0.754,0.272-1.089
		c0.419-1.508,1.026-2.946,1.822-4.314c0.796-1.367,1.703-2.666,2.722-3.895c1.019-1.229,2.115-2.394,3.288-3.497
		c1.173-1.103,2.345-2.142,3.519-3.121c0.278-0.223,0.712-0.572,1.298-1.047c0.586-0.475,1.208-0.907,1.864-1.299
		c0.656-0.391,1.298-0.656,1.926-0.795c0.628-0.14,1.138,0.014,1.529,0.46c0.167,0.224,0.223,0.489,0.167,0.796
		c-0.056,0.307-0.175,0.614-0.356,0.921c-0.182,0.308-0.384,0.594-0.607,0.859c-0.224,0.266-0.391,0.481-0.502,0.649
		c-0.475,0.643-0.991,1.264-1.55,1.864c-0.559,0.6-1.117,1.18-1.675,1.738c-1.926,1.926-3.895,3.797-5.905,5.611
		c-2.01,1.815-4.049,3.602-6.114,5.361c-0.141,0.362-0.272,0.712-0.398,1.047C24.5,22.5,24.41,22.85,24.354,23.212
		c-0.112,0.587-0.078,1.013,0.104,1.277c0.181,0.267,0.425,0.426,0.733,0.482c0.307,0.056,0.663,0.027,1.067-0.084
		c0.404-0.112,0.789-0.278,1.152-0.503c0.726-0.447,1.417-0.957,2.073-1.529c0.656-0.571,1.291-1.179,1.906-1.821
		c0.139-0.14,0.3-0.321,0.481-0.545c0.181-0.223,0.341-0.391,0.481-0.503c0.223-0.167,0.432-0.167,0.628,0
		C33.177,20.154,33.177,20.35,32.982,20.573z M26.072,18.981l4.23-3.895c1.954-1.787,3.88-3.63,5.779-5.529l2.723-2.848
		c0.111-0.14,0.286-0.328,0.523-0.564c0.237-0.238,0.475-0.489,0.712-0.755c0.237-0.265,0.44-0.537,0.607-0.816
		c0.168-0.278,0.237-0.517,0.209-0.712c-0.196-0.168-0.468-0.203-0.817-0.105c-0.349,0.099-0.698,0.251-1.047,0.461
		c-0.35,0.209-0.677,0.426-0.984,0.649c-0.307,0.225-0.53,0.392-0.669,0.503c-0.754,0.586-1.48,1.215-2.178,1.884
		c-0.699,0.67-1.382,1.355-2.052,2.053c-1.284,1.396-2.492,2.834-3.623,4.314c-1.131,1.48-2.143,3.043-3.036,4.69L26.072,18.981z"/>
	<path fill="#233A86" d="M32.479,25.055c0.391,0.334,0.845,0.476,1.361,0.419c0.517-0.056,1.04-0.21,1.57-0.461
		c0.53-0.251,1.033-0.551,1.507-0.9c0.475-0.349,0.866-0.649,1.173-0.9c0.921-0.726,1.787-1.507,2.596-2.346
		c0.14-0.111,0.279-0.258,0.419-0.438c0.139-0.182,0.279-0.328,0.418-0.44c0.223-0.168,0.418-0.168,0.586,0
		c0.167,0.167,0.181,0.363,0.042,0.586c-0.196,0.335-0.509,0.698-0.942,1.089c-0.433,0.392-0.803,0.712-1.11,0.963
		c-0.503,0.476-1.026,0.922-1.571,1.341s-1.125,0.81-1.738,1.172c-0.335,0.196-0.719,0.398-1.152,0.608
		c-0.434,0.21-0.88,0.376-1.341,0.503c-0.46,0.125-0.921,0.188-1.382,0.188c-0.46,0-0.886-0.112-1.277-0.335
		c-0.67-0.362-1.053-0.852-1.152-1.467c-0.097-0.613-0.035-1.256,0.189-1.926c0.224-0.671,0.544-1.306,0.963-1.906
		s0.795-1.096,1.131-1.487c0.335-0.362,0.767-0.796,1.298-1.299c0.53-0.502,1.103-0.955,1.717-1.36
		c0.614-0.404,1.235-0.713,1.864-0.921c0.628-0.21,1.221-0.189,1.779,0.063c0.53,0.279,0.726,0.648,0.586,1.11
		c-0.14,0.46-0.426,0.936-0.858,1.423c-0.433,0.489-0.908,0.929-1.424,1.319c-0.517,0.392-0.873,0.67-1.067,0.838
		c-0.503,0.363-1.026,0.713-1.57,1.048c-0.544,0.334-1.11,0.628-1.696,0.879c-0.14,0.057-0.3,0.133-0.481,0.23
		c-0.182,0.098-0.37,0.175-0.565,0.229c-0.167,0.393-0.252,0.775-0.252,1.152s0.112,0.706,0.335,0.984
		C32.438,25.041,32.451,25.055,32.479,25.055z M32.479,25.055c-0.028,0-0.042-0.014-0.042-0.042L32.479,25.055z M33.736,20.53
		c-0.14,0.168-0.287,0.364-0.44,0.587c-0.154,0.224-0.3,0.46-0.439,0.712c0.726-0.223,1.424-0.558,2.094-1.005
		s1.284-0.893,1.842-1.34c0.111-0.084,0.356-0.307,0.733-0.67c0.377-0.362,0.726-0.733,1.047-1.109
		c0.321-0.377,0.509-0.691,0.566-0.942c0.055-0.252-0.195-0.321-0.754-0.211c-0.475,0.112-0.936,0.309-1.382,0.587
		c-0.447,0.279-0.866,0.607-1.256,0.984c-0.391,0.376-0.754,0.774-1.089,1.193C34.322,19.735,34.015,20.141,33.736,20.53z"/>
	<path fill="#233A86" d="M49.65,16.72c0.251,0.251,0.404,0.601,0.461,1.047c0.278-0.083,0.517-0.055,0.712,0.085
		c0.195,0.14,0.237,0.265,0.126,0.376c-0.112,0.112-0.209,0.224-0.293,0.335c-0.251,0.392-0.531,0.748-0.837,1.068
		c-0.308,0.321-0.601,0.664-0.88,1.026c-0.167,0.194-0.371,0.433-0.607,0.712c-0.237,0.278-0.481,0.586-0.732,0.921
		s-0.482,0.678-0.691,1.025c-0.209,0.351-0.342,0.678-0.398,0.984c-0.056,0.308-0.021,0.531,0.104,0.671s0.356,0.153,0.691,0.041
		c0.307-0.084,0.613-0.223,0.921-0.419c0.307-0.195,0.572-0.363,0.795-0.503c0.642-0.475,1.263-0.991,1.864-1.549
		c0.6-0.559,1.179-1.131,1.738-1.718c0.056-0.056,0.126-0.146,0.209-0.273c0.083-0.125,0.174-0.236,0.272-0.334
		c0.097-0.098,0.202-0.188,0.313-0.272c0.111-0.085,0.223-0.112,0.335-0.085c0.223,0.058,0.341,0.142,0.355,0.252
		c0.014,0.111-0.014,0.229-0.083,0.355c-0.07,0.126-0.167,0.251-0.293,0.376c-0.126,0.127-0.203,0.218-0.23,0.273
		c-0.559,0.614-1.13,1.201-1.717,1.759c-0.586,0.559-1.201,1.075-1.843,1.55c-0.308,0.224-0.726,0.481-1.256,0.775
		c-0.531,0.292-1.04,0.48-1.529,0.564s-0.9,0.021-1.235-0.188c-0.335-0.21-0.447-0.705-0.335-1.487
		c0.084-0.586,0.252-1.229,0.503-1.927l-1.424,1.382c-0.224,0.196-0.6,0.496-1.13,0.9c-0.531,0.405-1.082,0.733-1.654,0.984
		c-0.573,0.251-1.082,0.335-1.529,0.251c-0.446-0.083-0.712-0.503-0.795-1.256c-0.083-0.755,0.042-1.479,0.377-2.178
		c0.335-0.698,0.774-1.354,1.319-1.969c0.544-0.613,1.152-1.165,1.822-1.654c0.67-0.488,1.298-0.886,1.884-1.193
		c0.279-0.14,0.628-0.307,1.047-0.503c0.418-0.195,0.844-0.35,1.277-0.461c0.433-0.111,0.858-0.16,1.278-0.146
		C48.981,16.333,49.343,16.469,49.65,16.72z M47.305,19.819c0.307-0.391,0.621-0.74,0.942-1.047
		c0.321-0.307,0.677-0.545,1.068-0.713c0.027-0.335-0.057-0.558-0.251-0.67c-0.195-0.111-0.433-0.152-0.712-0.125
		c-0.279,0.028-0.572,0.091-0.879,0.188c-0.308,0.098-0.559,0.202-0.754,0.313c-1.172,0.671-2.219,1.536-3.141,2.598
		c-0.167,0.168-0.447,0.476-0.838,0.921c-0.391,0.447-0.775,0.915-1.152,1.404c-0.377,0.487-0.67,0.941-0.879,1.36
		s-0.203,0.685,0.021,0.796c0.335,0.111,0.691,0.091,1.067-0.063c0.377-0.153,0.74-0.363,1.089-0.629
		c0.349-0.265,0.684-0.545,1.005-0.838c0.321-0.294,0.593-0.551,0.816-0.774c0.446-0.392,0.88-0.824,1.298-1.299
		C46.425,20.77,46.857,20.295,47.305,19.819z"/>
	<path fill="#233A86" d="M52.959,20.364c0.362-0.392,0.781-0.823,1.256-1.299c0.475-0.475,0.879-0.907,1.215-1.299l0.67-0.628
		c-0.057-0.335-0.063-0.677-0.021-1.025s0.146-0.663,0.314-0.943c0.167-0.278,0.391-0.495,0.67-0.648
		c0.278-0.153,0.613-0.217,1.005-0.188c0.308,0.056,0.496,0.161,0.565,0.313c0.069,0.154,0.069,0.336,0,0.545
		c-0.07,0.209-0.182,0.412-0.335,0.607c-0.154,0.195-0.286,0.363-0.398,0.503l-0.921,1.089l0.042,0.041
		c0.223,0.586,0.453,1.152,0.691,1.697c0.236,0.544,0.398,1.138,0.481,1.779c0.083,0.81-0.042,1.592-0.377,2.346
		c0.418-0.168,0.81-0.384,1.173-0.648c0.363-0.267,0.698-0.537,1.005-0.818c0.111-0.084,0.258-0.236,0.44-0.46
		c0.181-0.224,0.384-0.453,0.607-0.69c0.223-0.237,0.439-0.433,0.649-0.587c0.209-0.152,0.398-0.216,0.566-0.188
		c0.279,0.057,0.362,0.203,0.25,0.439c-0.112,0.238-0.286,0.497-0.523,0.775c-0.237,0.279-0.496,0.537-0.775,0.774
		c-0.28,0.237-0.447,0.384-0.502,0.44c-0.476,0.419-0.991,0.816-1.549,1.193c-0.559,0.376-1.159,0.636-1.801,0.774
		c-0.028,0-0.049,0.007-0.063,0.021c-0.015,0.014-0.036,0.021-0.063,0.021c-0.698,0.949-1.578,1.647-2.639,2.094
		c-0.25,0.083-0.53,0.16-0.837,0.23c-0.308,0.068-0.622,0.098-0.943,0.084c-0.321-0.015-0.621-0.078-0.9-0.189
		c-0.279-0.111-0.503-0.307-0.67-0.586c-0.14-0.251-0.202-0.502-0.188-0.754c0.014-0.251,0.084-0.487,0.209-0.712
		c0.126-0.223,0.293-0.426,0.502-0.607c0.21-0.182,0.426-0.328,0.649-0.439c0.559-0.252,1.095-0.343,1.612-0.273
		c0.516,0.07,1.053,0.146,1.612,0.23l0.377-0.586c0.475-0.782,0.705-1.563,0.691-2.346c-0.014-0.781-0.133-1.576-0.355-2.387
		l-1.55,1.633c-0.056,0.057-0.132,0.146-0.23,0.272c-0.099,0.126-0.21,0.259-0.335,0.398c-0.126,0.141-0.245,0.266-0.356,0.377
		c-0.112,0.111-0.209,0.181-0.293,0.209c-0.224,0.084-0.44,0.063-0.649-0.063C52.729,20.762,52.735,20.588,52.959,20.364z
		 M52.457,25.683c0.531,0.057,1.019-0.083,1.466-0.419c0.446-0.335,0.852-0.726,1.215-1.173c-0.418-0.084-0.824-0.139-1.215-0.168
		c-0.391-0.027-0.782,0.042-1.173,0.21c-0.14,0.057-0.286,0.168-0.439,0.335c-0.153,0.168-0.265,0.335-0.335,0.503
		c-0.069,0.167-0.077,0.321-0.021,0.461S52.177,25.655,52.457,25.683z M57.733,15.17c-0.308,0.028-0.531,0.168-0.67,0.419
		c-0.14,0.252-0.223,0.531-0.251,0.838c0.195-0.223,0.37-0.432,0.523-0.628C57.489,15.604,57.622,15.394,57.733,15.17z"/>
	<path fill="#233A86" d="M61.879,25.055c0.391,0.334,0.844,0.476,1.361,0.419c0.517-0.056,1.04-0.21,1.57-0.461
		c0.53-0.251,1.033-0.551,1.507-0.9c0.475-0.349,0.866-0.649,1.173-0.9c0.921-0.726,1.787-1.507,2.597-2.346
		c0.14-0.111,0.279-0.258,0.419-0.438c0.139-0.182,0.278-0.328,0.418-0.44c0.223-0.168,0.419-0.168,0.586,0
		c0.168,0.167,0.182,0.363,0.042,0.586c-0.195,0.335-0.51,0.698-0.942,1.089c-0.433,0.392-0.803,0.712-1.11,0.963
		c-0.502,0.476-1.026,0.922-1.57,1.341s-1.124,0.81-1.738,1.172c-0.335,0.196-0.719,0.398-1.152,0.608
		c-0.434,0.21-0.879,0.376-1.341,0.503c-0.46,0.125-0.921,0.188-1.382,0.188s-0.887-0.112-1.277-0.335
		c-0.67-0.362-1.053-0.852-1.151-1.467c-0.098-0.613-0.035-1.256,0.188-1.926c0.224-0.671,0.544-1.306,0.963-1.906
		c0.419-0.601,0.796-1.096,1.13-1.487c0.335-0.362,0.768-0.796,1.298-1.299c0.53-0.502,1.103-0.955,1.718-1.36
		c0.613-0.404,1.235-0.713,1.863-0.921c0.629-0.21,1.221-0.189,1.78,0.063c0.53,0.279,0.726,0.648,0.586,1.11
		c-0.14,0.46-0.426,0.936-0.858,1.423c-0.433,0.489-0.908,0.929-1.424,1.319c-0.517,0.392-0.873,0.67-1.068,0.838
		c-0.502,0.363-1.026,0.713-1.57,1.048c-0.544,0.334-1.11,0.628-1.696,0.879c-0.14,0.057-0.3,0.133-0.481,0.23
		c-0.182,0.098-0.37,0.175-0.565,0.229c-0.168,0.393-0.252,0.775-0.252,1.152s0.111,0.706,0.335,0.984
		C61.838,25.041,61.852,25.055,61.879,25.055z M61.879,25.055c-0.028,0-0.042-0.014-0.042-0.042L61.879,25.055z M63.136,20.53
		c-0.14,0.168-0.287,0.364-0.44,0.587c-0.154,0.224-0.3,0.46-0.44,0.712c0.726-0.223,1.424-0.558,2.094-1.005
		c0.67-0.447,1.284-0.893,1.843-1.34c0.111-0.084,0.356-0.307,0.733-0.67c0.376-0.362,0.726-0.733,1.047-1.109
		c0.321-0.377,0.509-0.691,0.565-0.942c0.056-0.252-0.195-0.321-0.753-0.211c-0.476,0.112-0.936,0.309-1.382,0.587
		c-0.447,0.279-0.866,0.607-1.256,0.984c-0.391,0.376-0.754,0.774-1.089,1.193C63.722,19.735,63.415,20.141,63.136,20.53z"/>
	<path fill="#233A86" d="M78.087,20.364c0.363-0.392,0.782-0.823,1.257-1.299c0.474-0.475,0.879-0.907,1.214-1.299l0.67-0.628
		c-0.057-0.335-0.063-0.677-0.021-1.025c0.042-0.35,0.146-0.663,0.314-0.943c0.167-0.278,0.391-0.495,0.67-0.648
		c0.279-0.153,0.613-0.217,1.005-0.188c0.306,0.056,0.495,0.161,0.565,0.313c0.069,0.154,0.069,0.336,0,0.545
		c-0.07,0.209-0.182,0.412-0.335,0.607c-0.153,0.195-0.286,0.363-0.397,0.503l-0.921,1.089l0.042,0.041
		c0.223,0.586,0.454,1.152,0.691,1.697c0.237,0.544,0.398,1.138,0.481,1.779c0.084,0.81-0.042,1.592-0.376,2.346
		c0.418-0.168,0.809-0.384,1.172-0.648c0.362-0.267,0.698-0.537,1.005-0.818c0.111-0.084,0.258-0.236,0.44-0.46
		c0.181-0.224,0.383-0.453,0.607-0.69c0.223-0.237,0.439-0.433,0.649-0.587c0.209-0.152,0.398-0.216,0.565-0.188
		c0.279,0.057,0.363,0.203,0.251,0.439c-0.112,0.238-0.288,0.497-0.524,0.775c-0.237,0.279-0.496,0.537-0.775,0.774
		c-0.279,0.237-0.446,0.384-0.502,0.44c-0.475,0.419-0.992,0.816-1.549,1.193c-0.559,0.376-1.159,0.636-1.801,0.774
		c-0.028,0-0.048,0.007-0.063,0.021c-0.014,0.014-0.036,0.021-0.063,0.021c-0.698,0.949-1.578,1.647-2.639,2.094
		c-0.251,0.083-0.531,0.16-0.838,0.23c-0.307,0.068-0.622,0.098-0.942,0.084c-0.321-0.015-0.621-0.078-0.9-0.189
		s-0.503-0.307-0.67-0.586c-0.14-0.251-0.202-0.502-0.188-0.754c0.014-0.251,0.083-0.487,0.209-0.712
		c0.126-0.223,0.293-0.426,0.503-0.607s0.426-0.328,0.649-0.439c0.559-0.252,1.096-0.343,1.613-0.273
		c0.517,0.07,1.053,0.146,1.613,0.23l0.376-0.586c0.475-0.782,0.706-1.563,0.691-2.346c-0.014-0.781-0.133-1.576-0.355-2.387
		l-1.549,1.633c-0.057,0.057-0.133,0.146-0.23,0.272c-0.098,0.126-0.209,0.259-0.335,0.398c-0.125,0.141-0.245,0.266-0.356,0.377
		c-0.112,0.111-0.209,0.181-0.293,0.209c-0.224,0.084-0.439,0.063-0.649-0.063C77.857,20.762,77.864,20.588,78.087,20.364z
		 M77.584,25.683c0.532,0.057,1.02-0.083,1.466-0.419c0.446-0.335,0.851-0.726,1.214-1.173c-0.419-0.084-0.824-0.139-1.214-0.168
		c-0.391-0.027-0.782,0.042-1.173,0.21c-0.139,0.057-0.286,0.168-0.439,0.335c-0.153,0.168-0.266,0.335-0.335,0.503
		c-0.069,0.167-0.076,0.321-0.021,0.461C77.138,25.571,77.306,25.655,77.584,25.683z M82.862,15.17
		c-0.308,0.028-0.531,0.168-0.67,0.419c-0.14,0.252-0.224,0.531-0.251,0.838c0.195-0.223,0.37-0.432,0.524-0.628
		C82.618,15.604,82.75,15.394,82.862,15.17z"/>
	<path fill="#233A86" d="M76.957,10.94c0.475-0.362,1.02-0.636,1.633-0.817s1.256-0.313,1.926-0.398
		c0.67-0.083,1.34-0.132,2.011-0.146c0.67-0.013,1.285-0.021,1.843-0.021c1.592-0.027,3.189-0.007,4.795,0.063
		c1.605,0.07,3.204,0.146,4.796,0.23c0.586-0.614,1.193-1.222,1.821-1.822c0.629-0.601,1.263-1.18,1.906-1.738
		c0.558-0.475,1.116-0.936,1.675-1.382c0.558-0.446,1.145-0.865,1.759-1.257c0.168-0.083,0.413-0.202,0.733-0.355
		c0.32-0.153,0.648-0.272,0.984-0.355c0.335-0.084,0.656-0.104,0.963-0.063c0.308,0.041,0.517,0.217,0.629,0.523
		c0.139,0.25,0.16,0.544,0.063,0.879c-0.098,0.335-0.25,0.67-0.46,1.005s-0.44,0.649-0.69,0.942
		c-0.252,0.293-0.448,0.524-0.586,0.691c-0.503,0.586-1,1.146-1.487,1.675c-0.489,0.531-1.013,1.062-1.571,1.593l3.895,0.125
		c0.727,0.057,1.452,0.091,2.178,0.104c0.727,0.015,1.452-0.007,2.178-0.063c0.309-0.027,0.63-0.042,0.965-0.042
		c0.336,0,0.67-0.027,1.004-0.084c0.168-0.027,0.42-0.084,0.755-0.168s0.571-0.056,0.712,0.084c0.195,0.195,0.201,0.363,0.021,0.503
		s-0.433,0.251-0.753,0.335c-0.321,0.084-0.643,0.146-0.964,0.188s-0.522,0.063-0.606,0.063c-0.811,0.112-1.606,0.168-2.388,0.168
		c-0.782,0-1.564,0-2.347,0c-0.977,0-1.934-0.021-2.867-0.063c-0.937-0.043-1.879-0.091-2.828-0.146
		c-1.676,1.62-3.393,3.183-5.15,4.69c-1.76,1.508-3.534,3.016-5.32,4.523c-0.335,0.531-0.649,1.068-0.943,1.612
		c-0.293,0.545-0.509,1.11-0.649,1.696c-0.14,0.56-0.091,0.929,0.146,1.11c0.237,0.182,0.544,0.251,0.921,0.209
		c0.376-0.041,0.775-0.153,1.194-0.335s0.754-0.355,1.005-0.523c0.67-0.446,1.298-0.935,1.884-1.467
		c0.587-0.529,1.158-1.089,1.718-1.674c0.139-0.14,0.299-0.314,0.481-0.523c0.181-0.21,0.355-0.384,0.523-0.524
		c0.223-0.167,0.426-0.167,0.608,0c0.181,0.168,0.174,0.363-0.021,0.586c-0.895,0.894-1.809,1.796-2.743,2.702
		c-0.937,0.907-1.976,1.64-3.121,2.198c-0.25,0.14-0.537,0.251-0.858,0.335c-0.322,0.084-0.643,0.132-0.963,0.146
		c-0.322,0.014-0.622-0.035-0.901-0.146c-0.278-0.111-0.516-0.32-0.711-0.628c-0.195-0.307-0.3-0.649-0.314-1.026
		c-0.014-0.377,0.021-0.754,0.104-1.131c0.084-0.376,0.188-0.746,0.314-1.109c0.125-0.362,0.258-0.697,0.398-1.005
		c0.586-1.424,1.312-2.771,2.178-4.041c0.865-1.271,1.773-2.52,2.722-3.749c0.307-0.391,0.613-0.775,0.921-1.151
		c0.306-0.377,0.628-0.761,0.962-1.153c-1.339-0.083-2.666-0.152-3.978-0.209c-1.313-0.056-2.639-0.084-3.979-0.084
		c-0.697,0-1.396,0.015-2.094,0.042c-0.697,0.028-1.396,0.069-2.093,0.126c-0.531,0.056-1.096,0.133-1.697,0.229
		c-0.6,0.099-1.124,0.301-1.57,0.608c-0.111,0.083-0.236,0.118-0.376,0.104s-0.258-0.049-0.356-0.104
		c-0.098-0.057-0.146-0.14-0.146-0.251C76.747,11.164,76.817,11.053,76.957,10.94z M94.84,10.94
		c-1.703,2.094-3.323,4.328-4.858,6.701c0.642-0.559,1.277-1.124,1.906-1.696s1.263-1.152,1.906-1.738l3.352-3.142L94.84,10.94z
		 M99.782,5.831c-0.726,0.643-1.425,1.306-2.095,1.99c-0.67,0.685-1.326,1.389-1.969,2.115l2.472,0.168
		c0.698-0.67,1.403-1.354,2.115-2.053c0.712-0.697,1.333-1.34,1.863-1.927s0.942-1.082,1.235-1.487
		c0.293-0.404,0.397-0.663,0.314-0.774c-0.223-0.195-0.525-0.23-0.901-0.105s-0.767,0.322-1.171,0.586
		c-0.405,0.266-0.783,0.552-1.131,0.859C100.166,5.51,99.92,5.719,99.782,5.831z"/>
	<path fill="#233A86" d="M102.547,16.72c0.25,0.251,0.402,0.601,0.46,1.047c0.278-0.083,0.516-0.055,0.712,0.085
		c0.195,0.14,0.237,0.265,0.125,0.376c-0.111,0.112-0.209,0.224-0.293,0.335c-0.25,0.392-0.531,0.748-0.838,1.068
		c-0.307,0.321-0.601,0.664-0.879,1.026c-0.168,0.194-0.371,0.433-0.607,0.712c-0.238,0.278-0.481,0.586-0.733,0.921
		c-0.251,0.335-0.481,0.678-0.69,1.025c-0.21,0.351-0.343,0.678-0.398,0.984c-0.057,0.308-0.021,0.531,0.104,0.671
		s0.356,0.153,0.69,0.041c0.307-0.084,0.614-0.223,0.922-0.419c0.307-0.195,0.572-0.363,0.795-0.503
		c0.642-0.475,1.264-0.991,1.863-1.549c0.602-0.559,1.181-1.131,1.738-1.718c0.057-0.056,0.125-0.146,0.209-0.273
		c0.084-0.125,0.174-0.236,0.273-0.334c0.098-0.098,0.201-0.188,0.314-0.272c0.111-0.085,0.223-0.112,0.336-0.085
		c0.222,0.058,0.34,0.142,0.354,0.252c0.014,0.111-0.014,0.229-0.084,0.355c-0.068,0.126-0.166,0.251-0.293,0.376
		c-0.125,0.127-0.201,0.218-0.229,0.273c-0.559,0.614-1.13,1.201-1.717,1.759c-0.587,0.559-1.2,1.075-1.843,1.55
		c-0.309,0.224-0.727,0.481-1.258,0.775c-0.53,0.292-1.039,0.48-1.527,0.564c-0.489,0.084-0.9,0.021-1.236-0.188
		c-0.334-0.21-0.446-0.705-0.334-1.487c0.084-0.586,0.25-1.229,0.502-1.927l-1.424,1.382c-0.224,0.196-0.602,0.496-1.131,0.9
		c-0.531,0.405-1.082,0.733-1.654,0.984s-1.081,0.335-1.528,0.251c-0.446-0.083-0.712-0.503-0.796-1.256
		c-0.083-0.755,0.042-1.479,0.377-2.178s0.774-1.354,1.318-1.969c0.545-0.613,1.152-1.165,1.822-1.654
		c0.67-0.488,1.299-0.886,1.885-1.193c0.279-0.14,0.629-0.307,1.047-0.503c0.419-0.195,0.844-0.35,1.277-0.461
		s0.859-0.16,1.278-0.146C101.875,16.333,102.238,16.469,102.547,16.72z M100.201,19.819c0.306-0.391,0.621-0.74,0.943-1.047
		c0.319-0.307,0.676-0.545,1.068-0.713c0.025-0.335-0.059-0.558-0.252-0.67c-0.196-0.111-0.434-0.152-0.713-0.125
		c-0.279,0.028-0.572,0.091-0.879,0.188c-0.309,0.098-0.559,0.202-0.754,0.313c-1.174,0.671-2.221,1.536-3.141,2.598
		c-0.168,0.168-0.447,0.476-0.838,0.921c-0.393,0.447-0.775,0.915-1.152,1.404c-0.377,0.487-0.67,0.941-0.88,1.36
		s-0.202,0.685,0.021,0.796c0.336,0.111,0.691,0.091,1.068-0.063s0.74-0.363,1.089-0.629c0.35-0.265,0.685-0.545,1.005-0.838
		c0.321-0.294,0.593-0.551,0.817-0.774c0.446-0.392,0.88-0.824,1.298-1.299C99.321,20.77,99.754,20.295,100.201,19.819z"/>
	<path fill="#233A86" d="M110.755,16.93c-0.671,0.894-1.341,1.773-2.011,2.639s-1.327,1.758-1.969,2.681
		c-0.084,0.14-0.195,0.32-0.334,0.543c-0.141,0.225-0.267,0.462-0.377,0.713c-0.112,0.251-0.203,0.496-0.273,0.733
		c-0.068,0.238-0.076,0.44-0.02,0.607c0.082,0.223,0.277,0.251,0.584,0.084c0.309-0.168,0.686-0.44,1.131-0.817
		c0.447-0.376,0.922-0.823,1.424-1.34c0.504-0.516,0.977-1.012,1.425-1.487c0.446-0.475,0.822-0.886,1.13-1.235
		c0.307-0.349,0.502-0.564,0.586-0.648c0.057-0.056,0.112-0.112,0.168-0.168c0.057-0.056,0.111-0.111,0.169-0.168
		c0.278-0.362,0.571-0.712,0.878-1.048c0.308-0.334,0.656-0.613,1.048-0.837c0.222-0.14,0.403-0.21,0.546-0.21
		c0.025,0,0.047-0.007,0.063-0.021c0.012-0.014,0.035-0.021,0.063-0.021v0.041c0.195,0,0.307,0.098,0.335,0.294
		c0.028,0.195-0.069,0.404-0.294,0.628c-0.726,0.754-1.367,1.605-1.926,2.556c-0.559,0.948-1.117,1.871-1.675,2.764
		c-0.56,0.949-1.117,1.893-1.675,2.828c-0.56,0.935-1.117,1.877-1.676,2.826c-0.727,1.312-1.473,2.639-2.241,3.979
		c-0.768,1.341-1.388,2.723-1.864,4.146c-0.055,0.168-0.139,0.32-0.25,0.461c-0.112,0.14-0.278,0.209-0.503,0.209
		c-0.224,0-0.37-0.056-0.44-0.168c-0.068-0.112-0.11-0.237-0.125-0.376c-0.012-0.141,0-0.294,0.041-0.461
		c0.043-0.168,0.092-0.321,0.147-0.461c0.251-0.781,0.538-1.543,0.858-2.282c0.322-0.74,0.664-1.486,1.025-2.24
		c1.312-2.737,2.807-5.445,4.48-8.125l0.043-0.085c-0.531,0.559-1.082,1.089-1.654,1.593c-0.573,0.502-1.055,0.781-1.445,0.838
		c-0.558,0.055-0.984-0.126-1.277-0.545s-0.439-0.865-0.439-1.341c0-0.641,0.125-1.241,0.377-1.801
		c0.25-0.559,0.544-1.089,0.879-1.591c0.391-0.587,0.83-1.146,1.318-1.676s1.014-1.019,1.571-1.466
		c0.252-0.224,0.503-0.426,0.755-0.607c0.25-0.182,0.529-0.356,0.836-0.524c0.169-0.027,0.357,0,0.566,0.084
		S110.949,16.678,110.755,16.93z"/>
	<path fill="#233A86" d="M113.225,10.94c0.477-0.362,1.021-0.636,1.635-0.817c0.613-0.182,1.256-0.313,1.926-0.398
		c0.67-0.083,1.34-0.132,2.012-0.146c0.668-0.013,1.283-0.021,1.842-0.021c1.592-0.027,3.189-0.007,4.796,0.063
		c1.604,0.07,3.203,0.146,4.795,0.23c0.585-0.614,1.193-1.222,1.822-1.822c0.628-0.601,1.263-1.18,1.905-1.738
		c0.559-0.475,1.117-0.936,1.676-1.382c0.558-0.446,1.145-0.865,1.759-1.257c0.167-0.083,0.411-0.202,0.732-0.355
		c0.321-0.153,0.649-0.272,0.984-0.355c0.336-0.084,0.655-0.104,0.964-0.063c0.307,0.041,0.516,0.217,0.627,0.523
		c0.141,0.25,0.161,0.544,0.064,0.879c-0.1,0.335-0.252,0.67-0.462,1.005c-0.209,0.335-0.438,0.649-0.69,0.942
		c-0.25,0.293-0.447,0.524-0.586,0.691c-0.503,0.586-0.998,1.146-1.487,1.675c-0.489,0.531-1.013,1.062-1.569,1.593l3.895,0.125
		c0.726,0.057,1.452,0.091,2.178,0.104c0.727,0.015,1.452-0.007,2.179-0.063c0.306-0.027,0.628-0.042,0.964-0.042
		c0.334,0,0.668-0.027,1.004-0.084c0.168-0.027,0.419-0.084,0.753-0.168c0.336-0.084,0.573-0.056,0.714,0.084
		c0.194,0.195,0.201,0.363,0.021,0.503c-0.183,0.14-0.433,0.251-0.755,0.335c-0.321,0.084-0.642,0.146-0.963,0.188
		c-0.322,0.042-0.523,0.063-0.607,0.063c-0.812,0.112-1.606,0.168-2.388,0.168c-0.782,0-1.563,0-2.347,0
		c-0.976,0-1.933-0.021-2.867-0.063c-0.936-0.043-1.879-0.091-2.826-0.146c-1.676,1.62-3.393,3.183-5.152,4.69
		c-1.759,1.508-3.533,3.016-5.319,4.523c-0.335,0.531-0.649,1.068-0.942,1.612c-0.294,0.545-0.51,1.11-0.648,1.696
		c-0.141,0.56-0.092,0.929,0.146,1.11s0.545,0.251,0.921,0.209c0.377-0.041,0.775-0.153,1.195-0.335
		c0.418-0.182,0.752-0.355,1.004-0.523c0.671-0.446,1.299-0.935,1.885-1.467c0.587-0.529,1.158-1.089,1.717-1.674
		c0.141-0.14,0.301-0.314,0.482-0.523c0.181-0.21,0.355-0.384,0.523-0.524c0.223-0.167,0.426-0.167,0.607,0
		c0.182,0.168,0.174,0.363-0.021,0.586c-0.893,0.894-1.809,1.796-2.742,2.702c-0.938,0.907-1.977,1.64-3.121,2.198
		c-0.252,0.14-0.537,0.251-0.859,0.335c-0.32,0.084-0.643,0.132-0.962,0.146c-0.322,0.014-0.622-0.035-0.901-0.146
		c-0.278-0.111-0.516-0.32-0.712-0.628c-0.194-0.307-0.3-0.649-0.313-1.026s0.02-0.754,0.104-1.131
		c0.084-0.376,0.189-0.746,0.314-1.109c0.127-0.362,0.26-0.697,0.398-1.005c0.586-1.424,1.313-2.771,2.178-4.041
		s1.772-2.52,2.723-3.749c0.307-0.391,0.613-0.775,0.922-1.151c0.306-0.377,0.629-0.761,0.963-1.153
		c-1.34-0.083-2.666-0.152-3.979-0.209c-1.313-0.056-2.639-0.084-3.98-0.084c-0.697,0-1.395,0.015-2.094,0.042
		c-0.696,0.028-1.395,0.069-2.093,0.126c-0.531,0.056-1.095,0.133-1.696,0.229c-0.6,0.099-1.125,0.301-1.57,0.608
		c-0.111,0.083-0.237,0.118-0.377,0.104c-0.139-0.014-0.258-0.049-0.355-0.104c-0.098-0.057-0.146-0.14-0.146-0.251
		C113.016,11.164,113.086,11.053,113.225,10.94z M131.108,10.94c-1.702,2.094-3.323,4.328-4.858,6.701
		c0.643-0.559,1.277-1.124,1.906-1.696s1.262-1.152,1.906-1.738l3.351-3.142L131.108,10.94z M136.05,5.831
		c-0.727,0.643-1.423,1.306-2.093,1.99c-0.671,0.684-1.326,1.389-1.969,2.115l2.471,0.168c0.697-0.67,1.403-1.354,2.115-2.053
		c0.713-0.697,1.332-1.34,1.863-1.927c0.529-0.587,0.943-1.082,1.235-1.487c0.294-0.404,0.397-0.663,0.313-0.774
		c-0.224-0.195-0.522-0.23-0.9-0.105c-0.376,0.125-0.767,0.322-1.172,0.586c-0.404,0.266-0.783,0.552-1.13,0.859
		C136.434,5.51,136.19,5.719,136.05,5.831z"/>
	<path fill="#233A86" d="M135.506,17.349c-0.111,0.14-0.355,0.397-0.732,0.774c-0.377,0.376-0.811,0.811-1.299,1.299
		s-0.984,1.012-1.487,1.57s-0.942,1.089-1.319,1.592c-0.376,0.503-0.643,0.957-0.795,1.361c-0.154,0.404-0.117,0.705,0.104,0.9
		c0.364,0.111,0.726,0.069,1.089-0.125c0.362-0.195,0.684-0.405,0.963-0.629c0.559-0.391,1.082-0.817,1.571-1.277
		c0.487-0.461,0.97-0.928,1.444-1.403c0.278-0.308,0.551-0.607,0.817-0.9c0.265-0.293,0.55-0.593,0.858-0.9
		c0.391-0.559,0.823-1.047,1.297-1.466c0.475-0.419,0.992-0.697,1.551-0.838c0.307-0.084,0.551-0.063,0.733,0.063
		c0.182,0.126,0.159,0.356-0.063,0.691c-0.224,0.279-0.439,0.552-0.649,0.817c-0.209,0.266-0.426,0.537-0.648,0.816
		c-0.084,0.112-0.336,0.433-0.755,0.964c-0.418,0.53-0.836,1.104-1.256,1.717c-0.419,0.614-0.768,1.181-1.047,1.696
		c-0.279,0.517-0.322,0.817-0.125,0.9c0.391,0.168,0.801,0.133,1.234-0.104c0.432-0.237,0.802-0.468,1.109-0.69
		c1.34-0.949,2.582-2.053,3.727-3.309c0.307-0.336,0.523-0.602,0.65-0.796c0.125-0.195,0.299-0.266,0.523-0.21
		c0.223,0.057,0.342,0.141,0.355,0.251c0.014,0.112-0.021,0.237-0.105,0.377c-0.082,0.141-0.182,0.272-0.293,0.398
		c-0.111,0.125-0.195,0.216-0.25,0.272c-0.559,0.614-1.139,1.208-1.739,1.779c-0.6,0.572-1.235,1.097-1.905,1.57
		c-0.475,0.335-1.02,0.678-1.634,1.025c-0.614,0.35-1.229,0.44-1.843,0.273c-0.251-0.085-0.439-0.217-0.564-0.398
		c-0.126-0.182-0.196-0.391-0.21-0.628c-0.015-0.237,0-0.476,0.042-0.713c0.041-0.237,0.09-0.454,0.146-0.648
		c0.057-0.223,0.125-0.462,0.209-0.714c0.084-0.251,0.182-0.516,0.294-0.795c-0.392,0.392-0.79,0.789-1.194,1.194
		c-0.404,0.404-0.816,0.773-1.235,1.109c-0.419,0.363-0.915,0.732-1.487,1.11c-0.571,0.376-1.165,0.495-1.779,0.354
		c-0.529-0.111-0.838-0.397-0.922-0.858c-0.084-0.46-0.049-0.976,0.105-1.549c0.152-0.572,0.356-1.117,0.607-1.634
		c0.252-0.517,0.461-0.9,0.629-1.152c0.391-0.529,0.801-1.039,1.234-1.528c0.434-0.488,0.914-0.928,1.445-1.319
		c0.25-0.195,0.502-0.369,0.754-0.523c0.25-0.153,0.529-0.286,0.838-0.398c0.084-0.027,0.209-0.048,0.377-0.063
		c0.166-0.014,0.32,0,0.459,0.041c0.141,0.042,0.237,0.112,0.294,0.21C135.686,17.005,135.646,17.153,135.506,17.349z"/>
	<path fill="#233A86" d="M153.223,17.726c-0.112,0.112-0.308,0.363-0.586,0.754c-0.28,0.392-0.602,0.852-0.964,1.382
		c-0.362,0.531-0.732,1.089-1.11,1.675c-0.377,0.587-0.719,1.131-1.025,1.634c-0.308,0.503-0.559,0.921-0.754,1.257
		c-0.195,0.335-0.266,0.517-0.209,0.545c0.307,0.111,0.643,0.111,1.005,0c0.362-0.112,0.712-0.286,1.048-0.524
		c0.334-0.236,0.648-0.488,0.941-0.753c0.293-0.267,0.551-0.482,0.775-0.65c1.088-0.921,2.094-1.926,3.016-3.015
		c0.139-0.14,0.32-0.182,0.543-0.126c0.223,0.057,0.307,0.21,0.252,0.461c-0.057,0.224-0.203,0.439-0.439,0.648
		c-0.238,0.21-0.426,0.384-0.566,0.524c-0.558,0.559-1.129,1.109-1.717,1.653c-0.586,0.545-1.201,1.055-1.843,1.529
		c-0.224,0.14-0.481,0.307-0.774,0.502c-0.293,0.196-0.607,0.356-0.942,0.482c-0.335,0.125-0.671,0.194-1.005,0.209
		c-0.336,0.014-0.629-0.091-0.88-0.313c-0.251-0.224-0.384-0.517-0.397-0.88c-0.015-0.362,0.026-0.747,0.125-1.152
		c0.098-0.404,0.23-0.789,0.398-1.152c0.168-0.362,0.307-0.655,0.418-0.88c0.225-0.39,0.461-0.773,0.714-1.151
		c0.25-0.377,0.53-0.746,0.837-1.109c-0.392,0.279-0.754,0.565-1.088,0.858c-0.335,0.293-0.671,0.594-1.006,0.9
		c-0.477,0.419-0.943,0.845-1.402,1.277c-0.461,0.434-0.93,0.858-1.402,1.277c-0.169,0.168-0.364,0.377-0.587,0.629
		c-0.224,0.251-0.461,0.503-0.713,0.754c-0.251,0.251-0.51,0.468-0.774,0.649c-0.266,0.181-0.523,0.272-0.774,0.272
		c-0.278-0.028-0.433-0.153-0.461-0.377c-0.028-0.223,0.021-0.495,0.146-0.817c0.127-0.32,0.301-0.67,0.525-1.047
		c0.223-0.377,0.453-0.739,0.69-1.089s0.454-0.656,0.648-0.921c0.195-0.266,0.336-0.439,0.419-0.523
		c0.307-0.475,0.635-0.956,0.984-1.445c0.349-0.488,0.678-0.983,0.984-1.486c0.055-0.111,0.118-0.23,0.188-0.356
		c0.069-0.125,0.146-0.23,0.231-0.313c-0.224,0.111-0.427,0.236-0.607,0.376c-0.183,0.141-0.356,0.279-0.524,0.419
		c-0.279,0.224-0.544,0.447-0.796,0.67c-0.25,0.224-0.488,0.447-0.712,0.67c-0.141,0.141-0.334,0.35-0.586,0.629
		c-0.25,0.278-0.447,0.475-0.586,0.586c-0.168,0.141-0.334,0.168-0.502,0.083c-0.169-0.083-0.223-0.236-0.169-0.46
		c0-0.084,0.083-0.216,0.251-0.398c0.168-0.181,0.279-0.299,0.334-0.355c0.42-0.446,0.859-0.872,1.32-1.277
		c0.461-0.404,0.941-0.789,1.444-1.151c0.168-0.112,0.391-0.259,0.671-0.44c0.278-0.181,0.558-0.314,0.838-0.397
		c0.279-0.084,0.523-0.084,0.732,0c0.209,0.083,0.342,0.335,0.398,0.753c0.056,0.309,0.041,0.607-0.041,0.9
		c-0.084,0.294-0.195,0.552-0.336,0.775c-0.363,0.642-0.782,1.234-1.258,1.779c-0.475,0.544-0.948,1.082-1.422,1.613
		c-0.281,0.307-0.553,0.593-0.818,0.857c-0.266,0.267-0.522,0.553-0.774,0.859l-0.545,0.628l0.545-0.544
		c0.307-0.251,0.593-0.51,0.858-0.775c0.267-0.265,0.523-0.537,0.775-0.816c0.559-0.53,1.104-1.047,1.633-1.55
		c0.531-0.503,1.074-0.99,1.635-1.466c0.475-0.391,0.969-0.782,1.486-1.173c0.516-0.391,1.053-0.74,1.611-1.048
		c0.169-0.084,0.398-0.173,0.691-0.272c0.293-0.097,0.551-0.118,0.775-0.063c0.194,0.057,0.313,0.167,0.355,0.335
		C153.411,17.432,153.36,17.586,153.223,17.726z"/>
	<path fill="#233A86" d="M155.609,25.055c0.391,0.334,0.844,0.476,1.361,0.419c0.517-0.056,1.039-0.21,1.57-0.461
		c0.529-0.251,1.031-0.551,1.508-0.9c0.475-0.349,0.865-0.649,1.174-0.9c0.92-0.726,1.785-1.507,2.596-2.346
		c0.141-0.111,0.277-0.258,0.418-0.438c0.141-0.182,0.279-0.328,0.42-0.44c0.223-0.168,0.42-0.168,0.586,0
		c0.168,0.167,0.18,0.363,0.041,0.586c-0.195,0.335-0.508,0.698-0.943,1.089c-0.432,0.392-0.803,0.712-1.107,0.963
		c-0.504,0.476-1.025,0.922-1.57,1.341s-1.125,0.81-1.738,1.172c-0.336,0.196-0.721,0.398-1.152,0.608
		c-0.434,0.21-0.88,0.376-1.34,0.503c-0.461,0.125-0.922,0.188-1.383,0.188c-0.459,0-0.887-0.112-1.277-0.335
		c-0.67-0.362-1.054-0.852-1.152-1.467c-0.097-0.613-0.035-1.256,0.189-1.926c0.223-0.671,0.543-1.306,0.963-1.906
		s0.795-1.096,1.131-1.487c0.334-0.362,0.768-0.796,1.298-1.299c0.53-0.502,1.103-0.955,1.716-1.36
		c0.615-0.405,1.236-0.713,1.865-0.921c0.629-0.21,1.221-0.189,1.779,0.063c0.531,0.279,0.727,0.648,0.586,1.11
		c-0.141,0.46-0.426,0.936-0.857,1.423c-0.434,0.489-0.908,0.929-1.424,1.319c-0.518,0.392-0.873,0.67-1.068,0.838
		c-0.504,0.363-1.025,0.713-1.57,1.048c-0.545,0.334-1.11,0.628-1.697,0.879c-0.141,0.057-0.301,0.133-0.481,0.23
		s-0.37,0.175-0.564,0.229c-0.168,0.393-0.252,0.775-0.252,1.152s0.112,0.706,0.335,0.984
		C155.566,25.041,155.581,25.055,155.609,25.055z M155.609,25.055c-0.028,0-0.042-0.014-0.042-0.042L155.609,25.055z M156.865,20.53
		c-0.14,0.168-0.287,0.364-0.44,0.587c-0.153,0.224-0.3,0.46-0.438,0.712c0.725-0.223,1.423-0.558,2.094-1.005
		c0.67-0.447,1.283-0.893,1.842-1.34c0.111-0.084,0.355-0.307,0.732-0.67c0.379-0.362,0.727-0.733,1.049-1.109
		c0.32-0.377,0.508-0.691,0.564-0.942c0.057-0.252-0.195-0.321-0.754-0.211c-0.475,0.112-0.936,0.309-1.381,0.587
		c-0.449,0.279-0.867,0.607-1.258,0.984c-0.391,0.376-0.754,0.774-1.088,1.193S157.145,20.141,156.865,20.53z"/>
	<path fill="#233A86" d="M178.854,20.573c-0.867,0.866-1.752,1.752-2.66,2.659c-0.908,0.908-1.893,1.642-2.953,2.199
		c-0.447,0.224-0.928,0.391-1.443,0.502c-0.518,0.112-1,0.029-1.445-0.25c-0.279-0.168-0.48-0.376-0.607-0.628
		s-0.203-0.524-0.23-0.817c-0.029-0.294-0.021-0.593,0.021-0.9c0.041-0.307,0.09-0.586,0.145-0.838l-1.381,1.089
		c-0.281,0.224-0.615,0.475-1.006,0.754s-0.795,0.537-1.215,0.774c-0.418,0.237-0.844,0.419-1.277,0.545
		c-0.432,0.125-0.844,0.132-1.234,0.021c-0.42-0.111-0.691-0.32-0.816-0.628c-0.127-0.307-0.182-0.649-0.168-1.026
		c0.014-0.376,0.09-0.76,0.23-1.152c0.141-0.39,0.279-0.711,0.418-0.963c0.42-0.81,0.984-1.556,1.697-2.24
		c0.711-0.685,1.457-1.264,2.24-1.739c0.279-0.194,0.641-0.411,1.09-0.648c0.445-0.237,0.912-0.446,1.402-0.628
		c0.488-0.182,0.971-0.294,1.445-0.335c0.473-0.042,0.893,0.035,1.256,0.229c0.307-0.474,0.629-0.942,0.963-1.403
		c0.334-0.46,0.67-0.914,1.006-1.361c1.953-2.597,4.09-5.025,6.406-7.287c0.17-0.14,0.412-0.363,0.732-0.67
		c0.322-0.307,0.688-0.635,1.09-0.984c0.404-0.349,0.84-0.691,1.299-1.025c0.461-0.335,0.906-0.593,1.34-0.775
		c0.434-0.181,0.824-0.258,1.174-0.23c0.35,0.029,0.635,0.224,0.857,0.586c0.141,0.25,0.176,0.537,0.105,0.859
		c-0.07,0.321-0.195,0.635-0.377,0.942s-0.385,0.607-0.607,0.9c-0.223,0.294-0.404,0.523-0.545,0.691
		c-0.502,0.67-1.033,1.313-1.592,1.927c-0.559,0.614-1.117,1.214-1.676,1.801c-1.088,1.117-2.191,2.206-3.307,3.267
		c-1.117,1.062-2.248,2.122-3.395,3.183l-2.721,2.429c-0.141,0.141-0.322,0.328-0.545,0.566c-0.225,0.237-0.447,0.453-0.668,0.648
		c-0.252,0.476-0.482,0.942-0.691,1.403c-0.211,0.46-0.385,0.928-0.525,1.403c-0.141,0.558-0.125,0.956,0.043,1.193
		c0.166,0.237,0.404,0.37,0.711,0.398c0.307,0.027,0.656-0.028,1.049-0.169c0.391-0.139,0.738-0.306,1.047-0.503
		c0.67-0.418,1.291-0.9,1.863-1.443c0.572-0.546,1.139-1.097,1.695-1.655l1.133-1.214c0.082-0.111,0.188-0.168,0.313-0.168
		c0.127,0,0.23,0.036,0.314,0.105s0.133,0.16,0.146,0.271C179.014,20.35,178.965,20.462,178.854,20.573z M169.348,21.578
		c0.084-0.056,0.201-0.168,0.354-0.335c0.154-0.167,0.314-0.307,0.482-0.419c0.223-0.642,0.48-1.25,0.773-1.822
		c0.295-0.571,0.609-1.137,0.945-1.695c-0.195-0.057-0.428-0.063-0.691-0.021c-0.268,0.041-0.51,0.104-0.734,0.188
		c-0.613,0.224-1.188,0.531-1.717,0.921c-0.531,0.392-1.033,0.824-1.508,1.299c-0.141,0.14-0.447,0.46-0.922,0.964
		c-0.475,0.503-0.941,1.04-1.402,1.612c-0.461,0.571-0.832,1.109-1.109,1.611c-0.279,0.504-0.293,0.824-0.043,0.964
		c0.252,0.141,0.539,0.161,0.859,0.063c0.322-0.098,0.635-0.237,0.943-0.419c0.307-0.182,0.607-0.384,0.9-0.608
		c0.293-0.222,0.537-0.403,0.732-0.543C167.965,22.807,168.676,22.221,169.348,21.578z M179.564,9.601
		c-1.031,1.284-2.029,2.583-2.994,3.896c-0.963,1.313-1.891,2.666-2.785,4.062c0.586-0.558,1.174-1.116,1.758-1.675
		c0.586-0.559,1.174-1.131,1.76-1.718c0.893-0.893,1.779-1.779,2.66-2.659c0.881-0.881,1.752-1.766,2.617-2.66
		c0.447-0.474,0.893-0.956,1.34-1.445c0.447-0.488,0.879-0.984,1.299-1.487c0.168-0.223,0.336-0.447,0.502-0.67
		c0.168-0.222,0.32-0.446,0.461-0.669c0.057-0.056,0.119-0.189,0.189-0.398c0.068-0.209,0.117-0.314,0.146-0.314
		c0.055-0.028-0.008-0.056-0.189-0.084c-0.182-0.027-0.258-0.042-0.23-0.042c-0.225,0.028-0.426,0.084-0.607,0.167
		c-0.182,0.084-0.355,0.182-0.523,0.293c-0.363,0.224-0.697,0.461-1.004,0.712c-0.309,0.251-0.615,0.517-0.922,0.796
		c-0.643,0.614-1.242,1.25-1.801,1.905C180.682,8.267,180.123,8.93,179.564,9.601z"/>
	<path fill="#233A86" d="M180.445,24.343c-0.141,0.308-0.344,0.607-0.607,0.9c-0.268,0.293-0.566,0.481-0.9,0.565
		c-0.477,0.084-0.791-0.049-0.943-0.397c-0.154-0.351-0.16-0.706-0.02-1.068c0.139-0.336,0.334-0.65,0.584-0.943
		c0.252-0.293,0.559-0.467,0.922-0.523c0.447-0.111,0.746,0.014,0.9,0.376C180.535,23.617,180.557,23.979,180.445,24.343z
		 M182.037,18.521c0.641-1.172,1.361-2.407,2.156-3.706s1.641-2.597,2.533-3.896c0.895-1.298,1.828-2.568,2.807-3.811
		c0.977-1.242,1.969-2.367,2.973-3.372c0.111-0.111,0.266-0.286,0.461-0.523c0.195-0.237,0.404-0.44,0.629-0.607
		c0.223-0.168,0.445-0.272,0.67-0.314c0.223-0.042,0.432,0.077,0.627,0.355c0.17,0.251,0.211,0.509,0.125,0.775
		c-0.084,0.265-0.223,0.523-0.418,0.774s-0.418,0.481-0.67,0.691c-0.25,0.21-0.447,0.384-0.586,0.523
		c-0.949,0.894-1.941,1.934-2.973,3.12c-1.033,1.187-2.025,2.402-2.975,3.645c-0.947,1.242-1.828,2.443-2.639,3.602
		c-0.809,1.159-1.465,2.171-1.967,3.036c-0.084,0.141-0.182,0.224-0.293,0.251c-0.111,0.028-0.217,0.021-0.314-0.021
		s-0.168-0.104-0.211-0.188C181.932,18.772,181.951,18.661,182.037,18.521z"/>
</g>
</svg>
