<?xml version="1.0" encoding="utf-8"?>
<!-- Generator: Adobe Illustrator 15.0.0, SVG Export Plug-In . SVG Version: 6.00 Build 0)  -->
<!DOCTYPE svg PUBLIC "-//W3C//DTD SVG 1.1//EN" "http://www.w3.org/Graphics/SVG/1.1/DTD/svg11.dtd">
<svg version="1.1" id="Layer_1" xmlns="http://www.w3.org/2000/svg" xmlns:xlink="http://www.w3.org/1999/xlink" x="0px" y="0px"
	 width="18px" height="18px" viewBox="0 0 18 18" enable-background="new 0 0 18 18" xml:space="preserve">
<g>
	<path fill="#231F20" d="M14.967,15.719l-3.703-3.697c-0.938,0.688-2.093,1.092-3.342,1.092c-3.122,0-5.661-2.541-5.661-5.665
		c0-3.123,2.54-5.663,5.661-5.663c3.125,0,5.668,2.54,5.668,5.663c0,1.482-0.572,2.833-1.508,3.844l3.658,3.653L14.967,15.719z
		 M7.921,2.88c-2.518,0-4.566,2.049-4.566,4.568c0,2.521,2.048,4.571,4.566,4.571c2.522,0,4.574-2.051,4.574-4.571
		C12.495,4.93,10.443,2.88,7.921,2.88z"/>
</g>
</svg>
