<?xml version="1.0" encoding="utf-8"?>
<!-- Generator: Adobe Illustrator 15.0.0, SVG Export Plug-In . SVG Version: 6.00 Build 0)  -->
<!DOCTYPE svg PUBLIC "-//W3C//DTD SVG 1.1//EN" "http://www.w3.org/Graphics/SVG/1.1/DTD/svg11.dtd">
<svg version="1.1" id="Layer_1" xmlns="http://www.w3.org/2000/svg" xmlns:xlink="http://www.w3.org/1999/xlink" x="0px" y="0px"
	 width="18px" height="18px" viewBox="0 0 18 18" enable-background="new 0 0 18 18" xml:space="preserve">
<g>
	<path fill="#231F20" d="M9.144,8.64c-1.828,0-3.315-1.488-3.315-3.317c0-1.83,1.487-3.319,3.315-3.319
		c1.83,0,3.318,1.489,3.318,3.319C12.462,7.152,10.974,8.64,9.144,8.64z M9.144,3.05c-1.251,0-2.269,1.02-2.269,2.272
		c0,1.252,1.018,2.271,2.269,2.271c1.253,0,2.271-1.019,2.271-2.271C11.415,4.07,10.396,3.05,9.144,3.05z"/>
	<path fill="#231F20" d="M15.722,15.666H2.566L5.87,9.565h6.548L15.722,15.666z M4.414,14.565h9.46l-2.112-3.899H6.526L4.414,14.565
		z"/>
</g>
</svg>
