<?xml version="1.0" encoding="utf-8"?>
<!-- Generator: Adobe Illustrator 15.0.0, SVG Export Plug-In . SVG Version: 6.00 Build 0)  -->
<!DOCTYPE svg PUBLIC "-//W3C//DTD SVG 1.1//EN" "http://www.w3.org/Graphics/SVG/1.1/DTD/svg11.dtd">
<svg version="1.1" id="Layer_1" xmlns="http://www.w3.org/2000/svg" xmlns:xlink="http://www.w3.org/1999/xlink" x="0px" y="0px"
	 width="18px" height="18px" viewBox="0 0 18 18" enable-background="new 0 0 18 18" xml:space="preserve">
<g>
	<path fill="#231F20" d="M8.987,15.763L2.674,9.38C1.85,8.593,1.389,7.526,1.387,6.385C1.386,5.241,1.847,4.169,2.685,3.366
		C3.51,2.574,4.613,2.137,5.79,2.137c1.349,0,2.545,0.964,3.168,1.576c0.57-0.625,1.69-1.576,3.227-1.576
		c1.181,0,2.283,0.437,3.106,1.23c0.835,0.801,1.295,1.873,1.294,3.017c-0.001,1.141-0.461,2.208-1.295,3.006L8.987,15.763z
		 M5.79,3.224c-0.896,0-1.73,0.329-2.354,0.927C2.815,4.747,2.474,5.539,2.474,6.383c0.001,0.842,0.342,1.63,0.961,2.221
		l5.552,5.612l5.54-5.602c0.629-0.601,0.97-1.39,0.971-2.232c0.001-0.844-0.341-1.637-0.96-2.232
		c-0.621-0.598-1.456-0.927-2.354-0.927c-1.646,0-2.733,1.603-2.744,1.619L9.031,5.457L8.564,4.885
		C8.552,4.868,7.2,3.224,5.79,3.224z"/>
</g>
</svg>
