<?xml version="1.0" encoding="utf-8"?>
<!-- Generator: Adobe Illustrator 16.0.0, SVG Export Plug-In . SVG Version: 6.00 Build 0)  -->
<!DOCTYPE svg PUBLIC "-//W3C//DTD SVG 1.1//EN" "http://www.w3.org/Graphics/SVG/1.1/DTD/svg11.dtd">
<svg version="1.1" id="Layer_1" xmlns="http://www.w3.org/2000/svg" xmlns:xlink="http://www.w3.org/1999/xlink" x="0px" y="0px"
	 width="120px" height="22px" viewBox="0 0 120 22" enable-background="new 0 0 120 22" xml:space="preserve">
<rect y="-0.057" fill="#F7F7F9" width="119.995" height="21.956"/>
<rect x="98.044" fill="#D4D3D3" width="21.956" height="21.956"/>
<polygon fill="#D4D3D3" points="98.496,13.678 95.791,10.975 98.493,8.28 101.193,10.978 "/>
<polygon fill="none" stroke="#D4D3D3" stroke-width="0.25" stroke-miterlimit="10" points="98.496,13.678 95.791,10.975 
	98.493,8.28 101.193,10.978 "/>
<path d="M105.796,5.206c-0.897,0-1.738,0.333-2.367,0.937c-0.628,0.6-0.975,1.396-0.975,2.246c0,0.849,0.347,1.649,0.975,2.247
	l5.596,5.658l5.584-5.646c0.638-0.609,0.982-1.407,0.982-2.259c0-0.849-0.345-1.646-0.97-2.246
	c-0.631-0.603-1.471-0.937-2.372-0.937c-1.663,0-2.76,1.619-2.774,1.635l-0.407,0.624L108.6,6.884
	C108.587,6.868,107.223,5.206,105.796,5.206 M109.024,17.851l-6.365-6.437c-0.831-0.792-1.298-1.871-1.298-3.025
	c0-1.15,0.467-2.229,1.31-3.038c0.832-0.799,1.941-1.24,3.125-1.24c1.358,0,2.57,0.976,3.198,1.594
	c0.572-0.631,1.705-1.594,3.255-1.594c1.185,0,2.294,0.441,3.126,1.243c0.844,0.806,1.308,1.884,1.308,3.035
	c0,1.155-0.464,2.23-1.308,3.038L109.024,17.851z"/>
<g>
	<path d="M6.391,12.754l-0.746,2.259H4.687l2.439-7.181h1.119l2.451,7.181H9.705l-0.768-2.259H6.391z M8.746,12.029L8.042,9.962
		c-0.16-0.468-0.267-0.895-0.373-1.311H7.648C7.542,9.078,7.424,9.515,7.286,9.953l-0.703,2.077H8.746z"/>
	<path d="M11.747,7.928c0.565-0.085,1.236-0.149,1.972-0.149c1.331,0,2.279,0.309,2.908,0.895c0.639,0.586,1.012,1.417,1.012,2.578
		c0,1.172-0.362,2.131-1.033,2.791c-0.671,0.671-1.779,1.033-3.175,1.033c-0.661,0-1.214-0.031-1.684-0.085V7.928z M12.674,14.277
		c0.234,0.043,0.575,0.053,0.937,0.053c1.981,0,3.058-1.107,3.058-3.046c0.01-1.694-0.948-2.77-2.909-2.77
		c-0.479,0-0.841,0.042-1.086,0.096V14.277z"/>
	<path d="M18.838,7.928c0.565-0.085,1.236-0.149,1.971-0.149c1.332,0,2.279,0.309,2.908,0.895c0.639,0.586,1.012,1.417,1.012,2.578
		c0,1.172-0.362,2.131-1.033,2.791c-0.671,0.671-1.779,1.033-3.175,1.033c-0.66,0-1.214-0.031-1.683-0.085V7.928z M19.765,14.277
		C20,14.32,20.341,14.33,20.703,14.33c1.981,0,3.058-1.107,3.058-3.046c0.011-1.694-0.948-2.77-2.908-2.77
		c-0.48,0-0.841,0.042-1.087,0.096V14.277z"/>
	<path d="M29.114,8.62H26.93V7.832h5.316V8.62h-2.195v6.393h-0.938V8.62z"/>
	<path d="M38.893,11.347c0,2.472-1.502,3.782-3.335,3.782c-1.896,0-3.228-1.47-3.228-3.643c0-2.28,1.416-3.772,3.334-3.772
		C37.625,7.714,38.893,9.217,38.893,11.347z M33.321,11.465c0,1.534,0.831,2.909,2.291,2.909c1.47,0,2.301-1.354,2.301-2.983
		c0-1.428-0.746-2.919-2.291-2.919C34.087,8.471,33.321,9.888,33.321,11.465z"/>
	<path d="M42.35,7.832h3.867v0.777h-2.94v2.387h2.716v0.768h-2.716v3.249H42.35V7.832z"/>
	<path d="M47.866,12.754l-0.746,2.259h-0.958l2.439-7.181h1.119l2.451,7.181h-0.991l-0.767-2.259H47.866z M50.22,12.029
		l-0.703-2.067c-0.159-0.468-0.267-0.895-0.373-1.311h-0.021c-0.107,0.426-0.224,0.863-0.362,1.301l-0.703,2.077H50.22z"/>
	<path d="M54.234,15.013l-2.344-7.181h1.001l1.119,3.537c0.309,0.969,0.575,1.844,0.767,2.685h0.022
		c0.202-0.831,0.5-1.736,0.82-2.674l1.214-3.548h0.991l-2.567,7.181H54.234z"/>
	<path d="M64.736,11.347c0,2.472-1.503,3.782-3.335,3.782c-1.896,0-3.228-1.47-3.228-3.643c0-2.28,1.417-3.772,3.334-3.772
		C63.469,7.714,64.736,9.217,64.736,11.347z M59.164,11.465c0,1.534,0.832,2.909,2.291,2.909c1.471,0,2.301-1.354,2.301-2.983
		c0-1.428-0.746-2.919-2.291-2.919C59.931,8.471,59.164,9.888,59.164,11.465z"/>
	<path d="M66.863,7.832v4.251c0,1.608,0.714,2.291,1.672,2.291c1.066,0,1.748-0.704,1.748-2.291V7.832h0.938v4.187
		c0,2.205-1.161,3.11-2.718,3.11c-1.469,0-2.578-0.841-2.578-3.067V7.832H66.863z"/>
	<path d="M72.826,7.928c0.469-0.096,1.14-0.149,1.778-0.149c0.99,0,1.63,0.181,2.077,0.585c0.363,0.32,0.565,0.81,0.565,1.364
		c0,0.948-0.596,1.578-1.354,1.833v0.032c0.554,0.192,0.885,0.704,1.055,1.45c0.234,1.001,0.406,1.693,0.555,1.971h-0.959
		c-0.117-0.202-0.278-0.82-0.48-1.715c-0.212-0.991-0.595-1.364-1.438-1.396h-0.873v3.111h-0.927V7.928z M73.753,11.199H74.7
		c0.992,0,1.619-0.544,1.619-1.364c0-0.927-0.671-1.333-1.65-1.343c-0.447,0-0.768,0.043-0.916,0.086V11.199z"/>
	<path d="M79.479,7.832v7.181h-0.926V7.832H79.479z"/>
	<path d="M82.462,8.62h-2.184V7.832h5.316V8.62h-2.195v6.393h-0.938V8.62z"/>
	<path d="M90.109,11.646h-2.792v2.588h3.112v0.778h-4.038V7.832h3.877v0.777h-2.951v2.269h2.792V11.646z"/>
</g>
</svg>
